{"glyphs":{"0":{"ha":814,"x_min":93,"x_max":803,"o":"m 93 264 q 228 624 93 474 q 540 775 364 775 q 734 698 665 775 q 803 488 803 621 q 667 127 803 278 q 356 -24 532 -24 q 162 54 231 -24 q 93 264 93 132 m 454 147 q 661 211 579 147 q 743 393 743 275 q 658 545 743 486 q 444 604 572 604 q 235 542 318 604 q 153 365 153 481 q 240 208 153 269 q 454 147 326 147 m 432 290 q 375 310 397 290 q 353 361 353 331 q 388 433 353 406 q 464 461 422 461 q 519 441 497 461 q 542 392 542 421 q 508 318 542 346 q 432 290 474 290 z "},"1":{"ha":550,"x_min":-50,"x_max":565,"o":"m 519 40 l 506 3 q 236 14 376 14 q -50 3 97 14 l -36 40 l 117 40 q 331 726 251 451 l 85 654 l 79 665 q 114 757 107 743 q 344 751 210 751 q 554 757 450 751 l 565 733 q 350 40 475 422 l 519 40 z "},"2":{"ha":731,"x_min":-11,"x_max":756,"o":"m 756 615 q 735 541 756 575 q 686 485 715 507 q 609 442 657 463 q 523 410 561 422 q 428 385 485 399 q 146 233 213 329 l 158 214 q 274 263 213 263 q 419 210 322 263 q 578 150 533 150 q 683 271 626 150 l 701 251 q 621 60 658 114 q 476 -22 564 -22 q 455 -20 467 -22 q 433 -16 443 -18 q 409 -8 424 -14 q 387 1 394 -1 q 362 13 379 4 q 339 26 344 22 q 313 40 333 29 q 289 53 293 50 q 100 121 167 121 q 63 97 64 121 q 138 -10 117 53 l 131 -24 q -11 -4 49 -21 q 74 204 21 119 q 188 322 115 275 q 363 410 260 369 q 478 474 443 442 q 513 560 513 507 q 454 671 513 622 q 335 719 396 719 q 260 678 267 719 q 305 609 285 656 q 326 515 325 563 l 314 504 q 144 564 207 508 q 249 719 153 663 q 492 775 344 775 q 679 733 603 775 q 756 615 756 692 z "},"3":{"ha":678,"x_min":-35,"x_max":664,"o":"m 664 606 q 517 399 664 488 q 281 290 469 371 l 292 268 q 460 308 394 308 q 583 267 536 308 q 629 151 629 225 q 535 -49 629 46 q 292 -199 442 -143 q -17 -258 143 -256 l -35 -236 l -32 -228 q 156 -194 72 -225 q 288 -116 239 -164 q 362 -15 336 -68 q 388 90 388 38 q 349 192 388 157 q 238 228 310 228 q 115 211 183 228 l 115 242 q 290 326 208 278 q 436 556 436 415 q 394 672 436 628 q 292 717 353 717 q 219 676 231 717 q 266 606 246 654 q 288 513 286 558 l 275 501 q 106 561 168 506 q 203 711 117 647 q 444 775 290 775 q 601 728 538 775 q 664 606 664 681 z "},"4":{"ha":701,"x_min":-14,"x_max":693,"o":"m 529 -250 l 522 -258 q 264 -185 353 -232 q 261 -132 261 -157 q 294 100 261 -22 q 7 75 167 96 l -14 114 q 195 349 124 219 q 267 578 267 479 q 185 696 267 672 l 185 713 q 442 775 324 764 q 503 644 503 736 q 458 501 503 572 q 358 380 414 429 q 210 251 303 331 q 63 114 118 171 q 306 138 169 131 q 388 336 339 247 q 519 429 442 367 q 642 542 596 492 l 664 542 q 513 133 544 257 q 685 111 618 129 l 693 53 l 685 47 q 504 94 615 83 q 482 -85 482 4 q 529 -250 482 -189 z "},"5":{"ha":747,"x_min":-40,"x_max":815,"o":"m 671 181 q 568 -38 671 64 q 306 -198 465 -140 q -21 -260 147 -256 l -40 -236 l -37 -228 q 166 -192 74 -225 q 315 -106 258 -158 q 403 6 372 -54 q 433 124 433 65 q 396 229 433 192 q 296 267 358 267 q 107 197 203 267 l 78 214 q 183 515 136 343 q 232 764 229 688 q 372 775 338 775 l 375 761 q 261 661 344 699 q 289 642 261 647 q 439 626 344 626 q 613 671 542 626 q 722 828 685 715 l 739 832 q 815 688 790 761 q 758 535 815 590 q 594 479 701 479 q 409 515 503 479 q 251 614 315 550 q 150 274 214 447 l 160 271 q 443 381 279 381 q 609 328 547 381 q 671 181 671 276 z "},"6":{"ha":901,"x_min":104,"x_max":875,"o":"m 400 482 l 397 507 q 515 622 443 582 q 663 663 588 663 q 816 594 757 663 q 875 425 875 525 q 745 116 875 253 q 447 -21 615 -21 q 190 66 276 -21 q 104 321 104 153 q 172 586 104 456 q 343 812 239 717 q 576 969 447 907 q 828 1042 706 1032 l 850 1022 l 849 1018 q 589 890 707 1000 q 407 630 471 781 q 343 328 343 479 q 355 174 343 240 q 397 62 367 107 q 474 17 426 17 q 570 83 531 17 q 624 228 610 150 q 639 379 639 306 q 605 515 639 469 q 517 561 571 561 q 400 482 458 561 z "},"7":{"ha":694,"x_min":56,"x_max":786,"o":"m 343 -258 q 184 -229 267 -253 q 69 -176 101 -206 q 135 56 69 -46 q 321 265 201 157 l 658 585 l 640 601 q 503 531 583 531 q 340 565 458 531 q 174 599 222 599 q 74 518 125 599 l 56 531 q 286 775 154 775 q 495 731 350 775 q 681 688 640 688 q 711 710 711 688 q 643 800 658 747 l 650 814 q 786 794 714 813 l 772 733 q 758 687 767 711 q 731 632 749 663 q 701 579 714 601 q 660 517 688 557 q 617 456 632 476 q 567 387 603 436 q 518 318 532 338 q 324 -142 325 53 q 354 -246 324 -203 l 343 -258 z "},"8":{"ha":736,"x_min":44,"x_max":799,"o":"m 703 290 q 665 152 703 214 q 569 54 628 90 q 445 -1 511 18 q 315 -21 379 -21 q 115 28 186 -21 q 44 168 44 76 q 293 435 44 331 q 191 543 224 493 q 158 664 158 593 q 221 830 158 758 q 368 934 283 901 q 539 967 453 967 q 731 918 664 967 q 799 778 799 869 q 774 687 799 731 q 710 610 750 643 q 631 556 669 578 q 550 517 592 533 q 665 406 628 457 q 703 290 703 356 m 368 768 q 393 675 368 719 q 446 604 418 631 q 533 529 474 578 q 628 776 628 650 q 599 889 628 847 q 518 931 571 931 q 412 883 456 931 q 368 768 368 836 m 215 169 q 245 58 215 100 q 331 17 275 17 q 447 60 401 17 q 492 171 492 103 q 452 287 492 235 q 343 393 413 339 q 332 402 339 396 q 319 413 325 408 q 310 422 314 418 q 215 169 215 304 z "},"9":{"ha":906,"x_min":101,"x_max":876,"o":"m 581 271 l 582 247 q 463 132 536 172 q 314 92 390 92 q 160 160 219 92 q 101 329 101 229 q 232 640 101 506 q 533 775 363 775 q 789 688 701 775 q 876 433 876 601 q 808 174 876 300 q 632 -43 739 47 q 395 -192 525 -133 q 142 -260 265 -250 l 122 -243 l 124 -236 q 488 -6 339 -207 q 638 436 638 196 q 606 651 638 565 q 507 738 575 738 q 409 672 450 738 q 353 527 368 606 q 338 375 338 449 q 371 239 338 285 q 458 193 404 193 q 581 271 522 193 z "}," ":{"ha":306,"x_min":0,"x_max":0,"o":""},"!":{"ha":511,"x_min":156,"x_max":557,"o":"m 557 939 q 490 652 557 839 q 349 313 424 465 l 308 313 q 310 340 308 315 q 313 368 311 364 q 301 690 318 454 q 283 967 283 925 q 346 1024 283 1019 q 503 1029 396 1029 q 557 939 557 1029 m 261 -18 q 186 8 217 -18 q 156 75 156 33 q 200 171 156 135 q 299 207 244 207 q 373 181 343 207 q 403 115 403 156 q 359 18 403 54 q 261 -18 315 -18 z "},"\"":{"ha":486,"x_min":304,"x_max":575,"o":"m 304 781 l 378 1139 l 436 1139 l 317 781 l 304 781 m 443 781 l 517 1139 l 575 1139 l 456 781 l 443 781 z "},"#":{"ha":967,"x_min":31,"x_max":1004,"o":"m 432 -154 l 578 156 l 297 156 l 151 -154 l 113 -154 l 258 156 l 31 156 l 44 188 l 274 188 l 403 464 l 175 464 l 189 496 l 418 496 l 563 804 l 601 804 l 457 496 l 738 496 l 882 804 l 921 804 l 776 496 l 1004 496 l 990 464 l 761 464 l 632 188 l 860 188 l 846 156 l 617 156 l 471 -154 l 432 -154 m 313 188 l 593 188 l 722 464 l 442 464 l 313 188 z "},"$":{"ha":803,"x_min":124,"x_max":814,"o":"m 697 289 q 614 133 697 190 q 428 76 531 76 l 376 -117 l 338 -117 l 389 78 q 124 196 207 89 q 222 371 147 265 l 233 371 q 266 249 243 307 q 331 148 289 192 q 425 104 374 104 q 500 133 469 104 q 531 206 531 161 q 524 237 531 221 q 510 264 518 253 q 486 292 503 275 q 460 317 469 308 q 428 344 450 326 q 399 369 406 363 q 290 486 322 435 q 258 607 258 538 q 353 792 258 724 q 571 868 449 861 l 622 1063 l 661 1063 l 610 867 q 761 830 708 864 q 814 735 814 796 q 763 628 814 664 q 590 585 685 594 l 588 600 q 654 729 654 640 q 560 842 654 842 q 472 803 504 842 q 440 706 440 764 q 467 603 440 646 q 556 511 494 561 q 664 401 631 450 q 697 289 697 353 z "},"%":{"ha":1018,"x_min":190,"x_max":929,"o":"m 550 788 q 492 573 550 656 q 350 490 433 490 q 253 541 289 490 q 218 669 218 592 q 276 885 218 801 q 417 968 335 968 q 514 917 478 968 q 550 788 550 867 m 229 -1 l 190 -1 l 890 943 l 929 943 l 229 -1 m 388 540 q 485 594 446 540 q 525 742 525 647 q 485 868 525 819 q 383 917 446 917 q 285 865 325 917 q 246 725 246 814 q 285 592 246 643 q 388 540 324 540 m 921 275 q 863 60 921 143 q 721 -22 804 -22 q 624 28 660 -22 q 589 157 589 79 q 647 372 589 289 q 788 456 706 456 q 885 405 849 456 q 921 275 921 354 m 758 28 q 856 81 817 28 q 894 229 894 135 q 856 356 894 307 q 754 404 817 404 q 656 353 696 404 q 617 213 617 301 q 656 79 617 131 q 758 28 694 28 z "},"&":{"ha":1213,"x_min":118,"x_max":1229,"o":"m 1031 -44 q 913 -126 967 -99 q 794 -153 860 -153 q 569 -7 674 -153 q 435 -24 493 -24 q 206 34 294 -24 q 118 199 118 92 q 186 378 118 299 q 375 528 254 457 q 365 653 365 608 q 463 885 365 803 q 686 967 560 967 q 833 850 833 967 q 811 777 833 813 q 740 705 789 742 q 661 649 690 668 q 571 594 632 631 q 638 327 592 461 q 743 94 685 193 q 886 286 860 179 q 754 351 813 292 q 696 486 696 411 q 728 568 696 532 q 819 604 760 604 q 934 538 890 604 q 978 367 978 471 q 972 318 978 340 q 1128 488 1128 339 q 1036 664 1128 611 l 1040 672 q 1217 621 1149 663 q 1229 546 1229 583 q 1158 372 1229 440 q 964 289 1088 304 q 761 67 918 160 q 925 -62 847 -62 q 1026 -18 976 -62 l 1031 -22 l 1031 -44 m 557 763 q 567 622 557 707 q 642 679 614 654 q 698 750 671 704 q 725 846 725 796 q 710 910 725 882 q 663 939 696 939 q 586 889 615 939 q 557 763 557 839 m 733 490 q 779 381 733 435 q 892 317 825 326 l 892 331 q 853 483 892 417 q 772 550 814 550 q 733 490 733 550 m 311 251 q 369 81 311 144 q 513 17 428 17 q 550 22 535 17 q 383 479 431 204 q 311 251 311 397 z "},"'":{"ha":347,"x_min":304,"x_max":436,"o":"m 304 781 l 378 1139 l 436 1139 l 317 781 l 304 781 z "},"(":{"ha":481,"x_min":128,"x_max":613,"o":"m 346 -332 l 328 -353 q 255 -252 281 -292 q 194 -142 229 -212 q 144 17 160 -71 q 128 213 128 104 q 274 703 128 465 q 597 1042 421 942 l 613 1024 q 394 804 494 957 q 242 488 294 651 q 189 194 189 324 q 227 -97 189 19 q 346 -332 265 -214 z "},")":{"ha":485,"x_min":-106,"x_max":379,"o":"m 161 1021 l 179 1042 q 276 903 239 964 q 346 726 313 842 q 379 476 379 611 q 234 -18 379 215 q -90 -353 89 -251 l -106 -335 q 113 -115 13 -268 q 266 201 214 38 q 318 494 318 365 q 280 787 318 669 q 161 1021 242 904 z "},"*":{"ha":682,"x_min":290,"x_max":804,"o":"m 546 1013 l 696 1231 l 744 1217 l 558 1011 l 801 1029 l 804 978 l 560 1000 l 653 799 l 607 761 l 549 989 l 399 772 l 350 786 l 538 992 l 293 974 l 290 1025 l 535 1003 l 443 1201 l 489 1240 l 546 1013 z "},"+":{"ha":739,"x_min":151,"x_max":685,"o":"m 671 388 l 431 388 l 374 150 l 340 150 l 397 388 l 151 388 l 165 419 l 406 419 l 463 657 l 496 657 l 439 419 l 685 419 l 671 388 z "},",":{"ha":556,"x_min":90,"x_max":350,"o":"m 350 88 q 280 -109 350 -10 q 107 -251 210 -208 l 90 -232 l 90 -228 q 231 -125 169 -197 q 306 31 292 -53 l 299 31 q 262 -5 288 10 q 204 -19 236 -19 q 133 6 160 -19 q 106 74 106 32 q 148 169 106 132 q 244 207 190 207 q 320 176 290 207 q 350 88 350 144 z "},"-":{"ha":536,"x_min":136,"x_max":479,"o":"m 136 378 l 154 428 l 479 428 l 461 378 l 136 378 z "},".":{"ha":551,"x_min":103,"x_max":351,"o":"m 208 -18 q 133 8 164 -18 q 103 75 103 33 q 148 171 103 135 q 246 207 193 207 q 321 181 290 207 q 351 115 351 156 q 307 18 351 54 q 208 -18 263 -18 z "},"/":{"ha":556,"x_min":-36,"x_max":635,"o":"m 3 -325 l -36 -325 l 596 1019 l 635 1019 l 3 -325 z "},":":{"ha":558,"x_min":117,"x_max":476,"o":"m 333 474 q 258 499 289 474 q 228 567 228 525 q 273 663 228 626 q 371 699 318 699 q 446 673 415 699 q 476 607 476 647 q 432 510 476 546 q 333 474 388 474 m 222 -18 q 147 8 178 -18 q 117 75 117 33 q 162 171 117 135 q 260 207 207 207 q 335 181 304 207 q 365 115 365 156 q 321 18 365 54 q 222 -18 276 -18 z "},";":{"ha":557,"x_min":104,"x_max":476,"o":"m 333 474 q 258 499 289 474 q 228 567 228 525 q 273 663 228 626 q 371 699 318 699 q 446 673 415 699 q 476 607 476 647 q 432 510 476 546 q 333 474 388 474 m 364 88 q 294 -109 364 -10 q 121 -251 224 -208 l 104 -232 l 104 -228 q 244 -125 183 -197 q 319 31 306 -53 l 313 31 q 276 -5 301 10 q 218 -19 250 -19 q 147 6 174 -19 q 119 74 119 32 q 162 169 119 132 q 258 207 204 207 q 334 176 304 207 q 364 88 364 144 z "},"<":{"ha":554,"x_min":132,"x_max":579,"o":"m 132 399 l 133 408 l 554 658 l 579 640 l 175 399 l 453 118 l 428 100 l 132 399 z "},"=":{"ha":757,"x_min":132,"x_max":711,"o":"m 178 481 l 192 513 l 711 513 l 697 481 l 178 481 m 132 290 l 146 322 l 665 322 l 651 290 l 132 290 z "},">":{"ha":563,"x_min":68,"x_max":515,"o":"m 515 360 l 514 350 l 93 100 l 68 118 l 472 360 l 194 640 l 219 658 l 515 360 z "},"?":{"ha":668,"x_min":153,"x_max":750,"o":"m 507 443 q 422 347 475 383 q 304 310 368 310 q 222 342 253 310 q 190 425 190 374 q 315 596 190 540 q 368 619 353 613 q 413 642 383 626 q 456 669 443 658 q 486 698 469 681 q 509 735 503 715 q 515 776 515 754 q 470 874 515 839 q 346 908 425 908 q 239 881 285 908 l 236 906 q 368 967 292 940 q 501 1000 444 993 q 677 949 604 1000 q 750 822 750 897 q 689 699 750 750 q 483 611 628 649 q 397 586 426 596 q 332 562 367 576 q 283 531 297 547 q 268 494 268 515 q 301 432 268 458 q 383 406 335 406 q 500 461 447 406 l 507 443 m 258 -19 q 183 7 214 -19 q 153 75 153 33 q 197 169 153 133 q 296 206 242 206 q 370 180 340 206 q 400 114 400 154 q 356 17 400 54 q 258 -19 313 -19 z "},"@":{"ha":1553,"x_min":125,"x_max":1513,"o":"m 1106 22 q 986 56 1031 22 q 942 157 942 89 q 944 194 942 175 q 952 238 946 213 q 963 277 958 263 q 977 326 967 292 q 992 372 988 360 l 958 375 q 871 200 910 269 q 777 73 832 131 q 671 15 722 15 q 543 249 543 15 q 576 455 543 353 q 674 627 610 557 q 814 697 738 697 q 981 608 911 697 l 968 574 q 825 661 899 661 q 674 541 739 661 q 610 256 610 421 q 701 65 610 65 q 758 99 729 65 q 835 213 788 133 q 1039 688 922 363 q 1108 642 1086 664 q 1039 374 1108 590 q 996 163 996 224 q 1028 84 996 111 q 1119 57 1061 57 q 1358 188 1257 57 q 1458 494 1458 318 q 1311 900 1458 744 q 926 1056 1164 1056 q 713 1017 821 1056 q 510 902 606 978 q 341 726 415 826 q 223 492 267 625 q 179 215 179 360 q 332 -187 179 -31 q 714 -344 485 -344 q 933 -293 842 -344 q 1058 -154 1025 -242 l 1076 -161 l 1063 -268 q 905 -352 1006 -324 q 725 -381 804 -381 q 294 -215 463 -381 q 125 214 125 -50 q 197 568 125 401 q 384 847 269 735 q 642 1026 499 960 q 931 1092 786 1092 q 1351 927 1190 1092 q 1513 499 1513 763 q 1395 161 1513 300 q 1106 22 1278 22 z "},"A":{"ha":1054,"x_min":-140,"x_max":1051,"o":"m 464 376 q 158 389 250 376 q 135 469 135 425 l 140 474 q 378 417 207 426 q 640 824 513 589 l 486 928 l 489 947 q 742 940 614 940 q 993 946 922 940 l 1004 929 q 921 190 921 608 q 983 51 921 51 q 1047 82 1022 51 l 1051 81 l 1047 50 q 850 -22 985 -22 q 681 174 681 -22 q 690 381 681 242 q 464 376 586 376 m 476 415 q 693 422 606 415 q 754 889 715 681 l 718 889 q 476 415 568 582 m 329 357 l 444 357 q 236 67 332 156 q 13 -22 140 -22 q -140 71 -108 -22 l -126 90 q -72 61 -104 61 q 99 133 -6 61 q 329 357 203 206 z "},"B":{"ha":1000,"x_min":67,"x_max":1028,"o":"m 982 340 q 929 196 982 263 q 794 88 876 129 q 619 22 713 46 q 438 -1 525 -1 q 325 -1 408 -1 q 210 0 242 0 q 74 -1 117 0 l 67 18 q 198 355 117 72 q 314 849 279 638 l 174 929 l 176 946 q 351 959 218 951 q 538 967 483 967 l 558 954 q 488 700 553 846 l 503 692 q 644 894 564 821 q 843 967 725 967 q 978 928 928 967 q 1028 819 1028 890 q 644 465 1028 592 l 649 449 q 813 479 743 479 q 982 340 982 479 m 728 889 q 513 638 626 889 q 333 58 408 249 q 463 29 393 29 q 664 115 586 29 q 742 297 742 200 q 703 390 742 365 q 592 415 664 415 q 528 407 569 415 l 528 435 q 717 586 631 475 q 803 800 803 697 q 782 865 803 842 q 728 889 761 889 z "},"C":{"ha":894,"x_min":125,"x_max":981,"o":"m 832 217 l 842 217 l 842 179 q 677 34 785 90 q 436 -22 569 -22 q 208 63 292 -22 q 125 310 125 149 q 203 633 125 482 q 420 875 282 783 q 721 967 558 967 q 981 810 981 967 q 963 737 981 775 q 918 676 944 699 q 721 624 843 647 l 717 640 q 792 803 792 700 q 689 932 792 932 q 540 847 614 932 q 421 628 467 763 q 375 354 375 493 q 429 167 375 239 q 576 96 483 96 q 832 217 722 96 z "},"D":{"ha":1065,"x_min":71,"x_max":1075,"o":"m 1075 653 q 894 185 1075 374 q 433 -3 714 -3 q 308 -1 397 -3 q 211 0 219 0 q 79 -1 122 0 l 71 18 q 208 366 124 76 q 322 850 293 656 l 181 929 l 183 950 q 399 947 240 947 q 574 950 453 947 q 746 953 694 953 q 986 878 897 953 q 1075 653 1075 803 m 636 915 l 560 915 q 469 458 540 733 q 331 56 397 183 q 482 29 394 29 q 672 123 589 29 q 793 349 754 217 q 832 624 832 482 q 785 835 832 754 q 636 915 738 915 z "},"E":{"ha":900,"x_min":67,"x_max":1010,"o":"m 799 79 q 751 15 785 32 q 647 -3 718 -3 q 443 -1 594 -3 q 226 0 292 0 q 74 -1 125 0 l 67 19 q 198 356 114 71 q 314 851 282 640 l 172 929 l 175 950 q 618 944 347 944 q 807 948 692 944 q 949 951 922 951 q 1010 903 1010 951 q 846 593 1010 829 l 817 593 q 817 833 831 742 q 785 896 808 876 q 719 915 763 915 l 551 915 q 464 468 531 725 l 508 468 q 632 499 561 468 q 761 576 703 529 l 772 571 q 700 340 750 457 l 689 338 q 606 410 663 379 q 501 442 550 442 l 457 442 q 310 29 376 139 l 415 29 q 536 60 475 29 q 688 178 611 99 q 821 358 765 258 l 849 358 q 799 79 819 149 z "},"F":{"ha":840,"x_min":-51,"x_max":997,"o":"m 374 165 q 125 -22 313 -22 q -51 79 11 -22 l -37 100 q 4 63 -22 79 q 51 47 31 47 q 131 135 103 47 q 314 842 246 479 l 174 929 l 176 950 q 586 944 325 944 q 796 947 678 944 q 936 949 914 949 q 997 903 997 949 q 842 619 997 849 q 824 593 829 601 l 794 593 q 794 833 813 751 q 764 895 786 875 q 690 915 742 915 l 560 915 q 456 440 531 728 l 515 440 q 636 470 565 440 q 767 549 707 500 l 779 543 q 707 313 757 429 l 694 310 q 611 383 667 353 q 507 414 556 414 l 449 414 q 374 165 414 283 z "},"G":{"ha":967,"x_min":125,"x_max":993,"o":"m 125 310 q 203 633 125 482 q 420 875 282 783 q 721 967 558 967 q 993 810 993 967 q 975 737 993 775 q 931 676 957 699 q 733 624 856 647 l 729 640 q 804 803 804 700 q 693 932 804 932 q 541 847 615 932 q 421 628 467 763 q 375 354 375 493 q 428 166 375 236 q 572 96 481 96 q 768 215 675 96 q 892 508 854 325 l 938 508 q 760 -206 840 49 q 579 -347 715 -347 q 296 -283 415 -347 l 296 -265 q 456 -236 372 -274 q 796 163 674 -154 l 779 168 q 436 -22 654 -22 q 207 63 289 -22 q 125 310 125 149 z "},"H":{"ha":1024,"x_min":-54,"x_max":1228,"o":"m 361 376 q 63 389 151 376 q 39 469 39 425 l 44 474 q 215 422 103 435 q 313 854 276 647 l 172 929 l 175 946 q 535 967 331 964 l 558 956 q 522 729 554 883 q 446 417 490 575 q 696 426 601 419 q 803 781 735 581 q 1051 968 864 968 q 1228 867 1165 968 l 1214 846 q 1172 883 1199 867 q 1125 899 1146 899 q 1046 811 1075 899 q 923 391 985 629 q 861 56 861 153 q 863 35 861 38 q 988 97 918 50 q 1110 197 1057 144 l 1114 194 l 1114 161 q 949 33 1042 85 q 785 -18 857 -18 q 677 18 717 -18 q 638 115 638 54 q 685 385 638 189 q 361 376 578 376 m 197 354 q 429 353 265 353 q 372 165 388 211 q 279 23 339 68 q 124 -22 219 -22 q -54 79 7 -22 l -40 100 q 1 63 -25 79 q 49 47 28 47 q 128 135 97 47 q 197 354 154 204 z "},"I":{"ha":507,"x_min":-54,"x_max":558,"o":"m 372 165 q 124 -22 310 -22 q -54 79 7 -22 l -40 100 q 1 63 -25 79 q 49 47 28 47 q 128 135 97 47 q 313 854 243 457 l 172 929 l 175 946 q 535 967 331 964 l 558 956 q 494 602 553 854 q 372 165 435 350 z "},"J":{"ha":818,"x_min":32,"x_max":867,"o":"m 685 172 q 363 -22 618 -22 q 173 1 263 -22 q 32 68 83 25 q 110 267 60 161 q 208 436 161 372 l 239 433 q 215 261 215 342 q 331 8 215 8 q 443 135 399 8 q 544 487 490 268 q 633 910 597 706 q 513 897 544 910 q 371 798 433 863 q 242 626 308 733 l 214 626 q 269 875 235 785 q 312 932 285 917 q 385 947 339 947 q 497 944 401 947 q 643 940 592 940 q 844 951 758 940 l 867 940 q 803 592 860 835 q 685 172 746 350 z "},"K":{"ha":988,"x_min":-54,"x_max":1111,"o":"m 372 165 q 124 -22 310 -22 q -54 79 7 -22 l -40 100 q 1 63 -25 79 q 49 47 28 47 q 128 135 97 47 q 313 854 243 457 l 172 929 l 175 946 q 535 967 331 964 l 558 956 q 494 602 553 854 q 372 165 435 350 m 1058 -183 q 829 -257 964 -257 q 592 3 668 -257 q 511 471 538 192 q 774 613 678 521 q 871 807 871 706 q 763 901 871 899 l 761 917 q 990 967 876 964 q 1111 840 1111 943 q 963 637 1111 736 q 599 472 814 538 l 604 458 q 732 472 650 461 l 742 467 q 767 274 750 376 q 813 61 785 171 q 882 -120 840 -49 q 971 -192 924 -192 q 1054 -160 1007 -192 l 1058 -162 l 1058 -183 z "},"L":{"ha":886,"x_min":79,"x_max":867,"o":"m 813 79 q 767 15 799 32 q 665 -3 735 -3 q 503 0 619 -3 q 326 3 386 3 q 86 -1 224 3 l 79 18 q 201 336 125 71 q 319 854 278 601 l 178 931 l 181 946 q 540 967 324 964 l 565 954 q 466 451 547 753 q 318 33 385 149 l 429 33 q 553 60 500 33 q 838 385 683 122 l 867 385 q 813 79 838 163 z "},"M":{"ha":1508,"x_min":-78,"x_max":1492,"o":"m 1486 931 q 1364 193 1364 503 q 1424 54 1364 54 q 1488 85 1463 54 l 1492 82 l 1488 53 q 1290 -19 1428 -19 q 1121 167 1121 -19 q 1164 526 1121 263 q 1238 901 1197 736 l 1213 901 q 779 65 1010 479 q 607 90 675 65 q 651 460 622 282 q 733 901 697 743 l 708 901 q 628 710 697 875 q 544 515 560 546 q 323 103 426 229 q 75 -22 219 -22 q -78 75 -29 -22 l -64 94 q -6 63 -40 63 q 75 87 28 63 q 185 162 122 111 q 324 310 247 213 q 474 539 400 408 q 628 822 553 672 l 467 929 l 469 949 q 722 942 594 942 q 942 946 865 942 l 953 928 q 840 300 875 586 l 856 300 q 1188 944 1013 583 q 1293 943 1215 943 q 1475 947 1418 943 l 1486 931 z "},"N":{"ha":1088,"x_min":-35,"x_max":1336,"o":"m 888 0 q 640 -22 794 -11 l 624 -12 q 540 402 579 149 q 485 899 500 656 l 469 899 l 438 639 q 326 135 396 293 q 143 -22 257 -22 q -35 46 29 -22 l -21 65 q 39 38 3 38 q 198 208 101 38 q 368 633 294 378 l 419 803 l 246 926 l 249 946 q 496 939 371 939 q 707 943 632 939 l 719 926 q 769 452 732 711 q 849 40 806 193 l 863 40 l 875 188 q 973 785 908 604 q 1158 967 1038 967 q 1336 899 1283 967 l 1322 879 q 1264 907 1297 907 q 1094 688 1196 907 q 925 168 992 469 l 888 0 z "},"O":{"ha":1011,"x_min":83,"x_max":1138,"o":"m 1138 954 q 1067 753 1138 856 q 883 581 997 650 q 651 513 768 513 q 505 563 561 513 q 449 696 449 614 q 533 907 449 826 q 735 988 618 988 q 910 916 843 988 q 1000 726 976 844 q 1076 889 1076 810 q 1021 1036 1076 979 l 1026 1042 q 1115 1021 1092 1033 q 1138 954 1138 1008 m 494 703 q 540 589 494 631 q 668 547 586 547 q 761 565 710 547 q 633 917 761 917 q 537 856 579 917 q 494 703 494 796 m 760 503 q 905 564 836 521 q 1011 661 974 607 l 1011 621 q 953 374 1011 494 q 806 167 896 253 q 603 30 715 82 q 386 -22 492 -22 q 167 53 251 -22 q 83 281 83 129 q 157 527 83 411 q 332 708 231 643 q 414 599 375 669 q 360 460 379 544 q 340 293 340 376 q 377 104 340 181 q 486 28 414 28 q 670 173 586 28 q 760 503 754 318 z "},"P":{"ha":988,"x_min":-54,"x_max":1067,"o":"m 372 165 q 124 -22 310 -22 q -54 79 7 -22 l -40 100 q 1 63 -25 79 q 49 47 28 47 q 128 135 97 47 q 313 854 243 457 l 172 929 l 175 946 q 535 967 331 964 l 558 956 q 482 699 553 860 l 501 686 q 831 967 615 967 q 1003 906 940 967 q 1067 753 1067 846 q 969 522 1067 626 q 734 364 872 418 q 451 301 596 310 l 446 324 q 715 485 588 347 q 843 779 843 622 q 749 907 843 907 q 617 820 683 907 q 500 588 550 733 q 372 165 451 394 z "},"Q":{"ha":1040,"x_min":7,"x_max":1047,"o":"m 7 -107 q 247 39 65 -39 q 475 146 428 117 q 797 671 797 314 q 764 860 797 789 q 667 931 731 931 q 526 851 594 931 q 419 655 458 772 q 381 425 381 538 q 443 290 381 290 q 526 360 494 290 q 563 538 558 429 l 567 539 l 599 506 q 528 283 599 371 q 350 194 458 194 q 190 265 243 194 q 136 432 136 335 q 212 685 136 561 q 417 888 288 808 q 690 967 546 967 q 953 879 860 967 q 1047 628 1047 792 q 669 143 1047 310 q 207 -10 526 75 l 208 -25 q 265 -15 238 -15 q 350 -39 307 -15 q 461 -115 393 -62 q 646 -210 583 -210 q 743 -143 696 -210 l 761 -156 q 640 -290 726 -232 q 488 -347 553 -347 q 400 -322 442 -347 q 288 -239 358 -297 q 155 -152 215 -179 q 11 -125 94 -125 l 7 -107 z "},"R":{"ha":1004,"x_min":-54,"x_max":1086,"o":"m 1058 -183 q 839 -257 964 -257 q 560 74 649 -257 q 504 426 528 203 q 724 564 610 450 q 839 797 839 678 q 756 894 839 894 q 615 808 693 894 q 501 592 538 722 q 372 165 453 404 q 124 -22 308 -22 q -54 79 7 -22 l -40 100 q 1 63 -25 79 q 49 47 28 47 q 128 135 97 47 q 313 854 243 457 l 172 929 l 175 946 q 535 967 331 964 l 558 956 q 482 699 553 860 l 499 688 q 652 889 551 811 q 883 967 753 967 q 1035 914 985 967 q 1086 790 1086 861 q 1052 670 1086 726 q 965 574 1018 614 q 844 503 913 535 q 712 453 775 471 q 586 424 649 435 l 590 406 q 732 418 651 406 l 739 413 q 781 163 750 297 q 864 -81 811 29 q 971 -192 917 -192 q 1054 -160 1007 -192 l 1058 -162 l 1058 -183 z "},"S":{"ha":815,"x_min":36,"x_max":901,"o":"m 546 140 q 544 167 546 154 q 535 192 542 179 q 523 215 528 206 q 506 238 518 225 q 488 260 494 251 q 465 282 481 268 q 442 302 449 296 q 416 324 435 308 q 392 344 397 339 q 251 494 293 431 q 208 642 208 557 q 247 785 208 721 q 347 888 285 849 q 480 947 408 926 q 622 967 551 967 q 828 924 756 967 q 901 801 901 882 q 883 726 901 764 q 836 667 865 689 q 631 614 732 624 l 626 632 q 713 793 713 685 q 679 898 713 858 q 582 938 646 938 q 472 888 513 938 q 431 764 431 838 q 460 628 431 682 q 561 513 489 574 q 700 386 672 419 q 756 244 756 319 q 650 49 756 121 q 415 -22 544 -22 q 192 17 292 -22 q 36 129 93 56 q 143 346 76 250 l 157 346 q 199 194 169 267 q 286 65 229 121 q 413 10 343 10 q 508 47 469 10 q 546 140 546 83 z "},"T":{"ha":1063,"x_min":171,"x_max":1193,"o":"m 622 165 q 531 23 592 68 q 374 -22 469 -22 q 197 79 258 -22 l 211 100 q 253 63 226 79 q 300 47 279 47 q 379 135 350 47 q 575 915 508 519 l 501 915 q 292 683 403 915 q 200 436 238 569 l 171 436 q 199 865 181 768 q 288 950 208 950 q 419 947 313 950 q 599 944 526 944 l 808 944 q 996 947 882 944 q 1133 950 1110 950 q 1177 938 1161 950 q 1193 903 1193 925 q 1186 858 1193 885 q 1165 794 1179 831 q 1138 726 1151 758 q 1101 647 1124 693 q 1065 572 1079 600 q 1028 498 1051 544 q 997 436 1004 451 l 967 436 q 993 738 993 611 q 972 870 993 825 q 890 915 950 915 l 808 915 q 729 537 783 753 q 622 165 675 321 z "},"U":{"ha":990,"x_min":157,"x_max":1033,"o":"m 886 297 q 468 -22 704 -22 q 240 47 318 -22 q 161 226 161 115 q 206 442 161 286 q 296 856 283 751 l 157 931 l 158 946 q 525 967 322 967 l 544 953 q 457 471 528 771 q 392 126 392 192 q 506 21 392 21 q 804 306 692 21 q 871 671 871 474 q 754 926 871 865 l 756 943 q 974 967 869 964 q 1033 835 1033 928 q 994 569 1033 719 q 886 297 954 419 z "},"V":{"ha":881,"x_min":140,"x_max":963,"o":"m 482 967 l 500 951 q 514 671 514 831 q 464 128 514 417 l 500 126 q 721 425 642 276 q 800 690 800 574 q 683 926 800 861 l 686 943 q 900 967 779 964 q 963 847 963 931 q 917 667 963 778 q 698 308 869 533 q 389 -22 526 83 q 232 22 310 -17 q 271 582 271 350 q 256 843 271 733 l 140 929 l 143 944 q 482 967 292 964 z "},"W":{"ha":1396,"x_min":140,"x_max":1474,"o":"m 1474 847 q 1436 675 1474 778 q 1219 313 1389 540 q 908 -22 1049 86 q 761 22 843 -18 q 794 464 788 239 q 598 194 710 328 q 386 -22 486 60 q 231 22 308 -17 q 269 582 269 331 q 254 843 269 733 l 140 929 l 142 944 q 481 967 290 964 l 500 951 q 513 671 513 824 q 464 128 513 408 l 494 126 q 708 411 629 269 q 794 668 788 553 q 772 864 790 760 q 989 944 942 931 l 1017 931 q 1029 671 1029 811 q 985 128 1029 383 l 1015 128 q 1234 424 1156 276 q 1313 689 1313 572 q 1194 926 1313 857 l 1197 943 q 1411 967 1300 964 q 1474 847 1474 929 z "},"X":{"ha":1165,"x_min":11,"x_max":1264,"o":"m 743 -24 q 538 268 542 -24 q 536 472 533 364 l 514 472 q 347 110 456 240 q 114 -21 238 -21 q 11 75 11 -21 q 85 383 11 179 l 107 385 q 145 208 110 272 q 246 144 181 144 q 383 248 313 144 q 501 544 453 351 l 497 613 q 371 888 476 888 q 210 826 294 888 l 204 831 l 208 863 q 352 936 264 904 q 528 968 440 968 q 746 658 746 968 q 743 485 746 554 l 763 485 q 931 847 821 715 q 1163 978 1040 978 q 1264 883 1264 978 q 1192 574 1264 775 l 1169 572 q 1131 749 1167 685 q 1031 814 1094 814 q 896 710 967 814 q 776 418 825 607 l 781 349 q 908 56 796 56 q 1069 118 985 56 l 1074 117 l 1071 82 q 924 8 1015 39 q 743 -24 833 -24 z "},"Y":{"ha":968,"x_min":118,"x_max":1082,"o":"m 893 329 q 703 74 835 169 q 414 -22 572 -22 q 215 23 301 -22 q 118 150 128 68 q 205 245 143 199 q 335 322 267 292 q 258 374 286 338 q 231 460 231 411 q 285 661 231 510 q 339 861 335 797 l 203 931 l 204 946 q 372 960 247 953 q 557 967 497 967 l 575 954 q 518 682 575 858 q 463 456 463 513 q 504 413 463 413 q 640 528 557 413 q 794 825 722 644 q 860 967 828 881 q 1075 942 953 965 l 1082 925 q 1001 664 1075 904 q 893 329 928 424 m 324 213 q 367 69 324 129 q 492 10 411 10 q 546 35 519 10 q 597 113 572 61 q 641 215 622 164 q 685 340 660 265 q 792 663 772 611 l 771 661 q 658 486 717 558 q 394 314 525 314 q 378 315 389 314 q 363 315 368 315 q 324 213 324 268 z "},"Z":{"ha":826,"x_min":-11,"x_max":974,"o":"m 154 -15 l 144 -33 q -11 -10 63 -31 q 271 390 43 217 q 536 544 349 443 q 782 700 724 646 l 764 728 q 643 685 719 685 q 481 726 597 685 q 311 767 364 767 q 193 668 247 767 l 169 685 q 463 967 301 967 q 676 915 543 967 q 850 863 808 863 q 890 897 890 863 q 810 999 818 943 l 819 1014 q 974 992 907 1008 q 736 600 908 731 q 435 412 622 515 q 182 257 247 308 l 196 235 q 322 285 256 285 q 513 221 390 285 q 674 157 635 157 q 733 176 708 157 q 788 244 757 196 l 810 231 q 685 51 763 124 q 526 -22 607 -22 q 369 14 449 -22 q 224 86 289 50 q 117 122 158 122 q 76 86 76 122 q 154 -15 144 38 z "},"[":{"ha":444,"x_min":14,"x_max":543,"o":"m 207 -347 l 14 -325 l 367 1019 l 543 1042 l 540 1025 l 419 1003 l 75 -307 l 213 -336 l 207 -347 z "},"\\":{"ha":529,"x_min":261,"x_max":456,"o":"m 421 -325 l 261 1019 l 296 1019 l 456 -325 l 421 -325 z "},"]":{"ha":444,"x_min":-50,"x_max":479,"o":"m 126 -325 l -50 -347 l -47 -331 l 74 -308 l 418 1001 l 281 1031 l 286 1042 l 479 1019 l 126 -325 z "},"^":{"ha":674,"x_min":179,"x_max":660,"o":"m 179 531 l 493 1069 l 533 1069 l 660 528 l 632 522 l 488 1006 l 199 522 l 179 531 z "},"_":{"ha":1003,"x_min":106,"x_max":917,"o":"m 106 -86 l 119 -54 l 917 -54 l 903 -86 l 106 -86 z "},"`":{"ha":694,"x_min":222,"x_max":496,"o":"m 496 850 q 356 919 440 869 q 222 1004 272 969 l 222 1061 l 229 1065 q 496 861 353 929 l 496 850 z "},"a":{"ha":857,"x_min":79,"x_max":979,"o":"m 979 160 q 815 37 917 96 q 638 -22 713 -22 q 540 10 575 -22 q 506 103 506 43 q 526 195 506 144 q 596 342 546 246 l 553 338 q 497 217 524 268 q 432 105 471 165 q 347 11 393 44 q 253 -22 301 -22 q 126 50 174 -22 q 79 238 79 122 q 176 572 79 436 q 425 708 274 708 q 594 615 536 708 l 581 579 q 460 665 518 665 q 359 541 403 665 q 315 253 315 417 q 367 103 315 103 q 413 138 388 103 q 478 261 438 174 q 650 692 546 400 q 767 653 708 682 q 854 592 825 624 q 781 322 854 546 q 707 56 707 99 q 713 31 707 38 q 975 200 851 74 l 979 196 l 979 160 z "},"b":{"ha":785,"x_min":90,"x_max":1021,"o":"m 699 300 q 475 75 607 174 q 249 -24 343 -24 q 90 208 90 -24 q 110 434 90 321 q 173 658 129 547 q 279 853 217 768 q 436 991 342 939 q 644 1043 531 1043 q 778 1014 731 1043 q 825 936 825 985 q 774 835 825 872 q 617 757 724 799 q 381 604 461 692 q 313 132 313 322 q 354 50 313 50 q 459 127 401 50 q 569 322 517 204 q 699 300 621 300 m 593 1010 q 487 913 539 1010 q 392 651 435 815 q 444 701 417 678 q 504 747 472 724 q 550 781 536 769 q 636 950 636 851 q 593 1010 636 1010 m 1010 392 q 692 321 851 321 q 475 489 475 321 q 528 646 475 583 q 668 708 582 708 q 772 674 733 708 q 810 572 810 640 q 736 354 810 475 q 1017 432 879 367 l 1021 429 l 1010 392 m 521 482 q 590 369 521 400 q 638 578 638 499 q 599 643 638 643 q 542 594 563 643 q 521 482 521 546 z "},"c":{"ha":675,"x_min":78,"x_max":807,"o":"m 314 253 q 353 118 314 169 q 463 67 392 67 q 639 113 550 67 q 800 242 728 160 l 806 239 l 807 204 q 583 40 711 103 q 333 -22 454 -22 q 145 47 213 -22 q 78 238 78 115 q 206 565 78 422 q 514 708 333 708 q 664 675 610 708 q 718 575 718 642 q 692 494 718 531 q 475 419 600 444 l 468 431 q 544 610 544 525 q 497 667 544 667 q 369 540 425 667 q 314 253 314 414 z "},"d":{"ha":869,"x_min":79,"x_max":983,"o":"m 983 161 q 824 36 921 94 q 650 -22 726 -22 q 553 10 588 -22 q 519 103 519 43 q 592 340 519 176 l 567 338 q 525 250 547 289 q 392 44 457 110 q 257 -22 328 -22 q 128 49 176 -22 q 79 238 79 121 q 178 574 79 440 q 429 708 278 708 q 608 615 544 708 l 594 579 q 463 665 529 665 q 360 541 404 665 q 315 253 315 417 q 372 103 315 103 q 429 149 399 103 q 511 311 460 194 q 626 590 558 399 q 721 931 708 811 l 671 1004 l 674 1021 q 946 1042 814 1039 l 963 1031 q 931 824 963 963 q 854 550 900 685 q 719 67 719 151 q 726 31 719 40 q 978 199 849 69 l 983 196 l 983 161 z "},"e":{"ha":692,"x_min":79,"x_max":817,"o":"m 499 667 q 371 542 426 667 q 315 263 315 417 q 356 119 315 172 q 474 67 396 67 q 650 113 561 67 q 811 242 739 160 l 817 239 l 817 204 q 592 40 721 103 q 343 -22 464 -22 q 147 46 215 -22 q 79 238 79 114 q 207 565 79 422 q 515 708 335 708 q 669 671 614 708 q 724 564 724 633 q 615 401 724 474 q 344 300 507 328 l 336 318 q 483 444 422 363 q 543 604 543 525 q 499 667 543 667 z "},"f":{"ha":465,"x_min":-318,"x_max":767,"o":"m 276 24 q 108 -239 229 -131 q -162 -347 -14 -347 q -274 -319 -229 -347 q -318 -243 -318 -292 q -303 -183 -318 -211 q -256 -130 -289 -156 q -195 -87 -222 -104 q -117 -41 -168 -69 q -39 3 -65 -12 q 13 33 -29 8 q 71 67 54 57 l 204 608 l 99 608 l 113 640 l 213 640 q 222 681 215 658 q 378 940 263 839 q 638 1042 494 1042 q 730 1017 693 1042 q 767 942 767 992 q 726 858 767 894 q 568 779 651 813 l 561 790 q 617 950 617 869 q 581 1001 617 1001 q 535 977 556 1001 q 497 901 514 953 q 469 810 479 850 q 446 703 460 771 q 440 671 444 696 q 433 640 435 646 l 569 640 l 554 608 l 425 608 q 329 231 382 422 q 619 447 496 339 l 624 447 l 624 408 q 268 153 524 311 q 171 94 244 139 q 33 10 97 49 q -50 -42 -31 -29 q -132 -212 -132 -96 q -118 -281 -132 -257 q -82 -306 -104 -306 q 43 -60 -11 -306 q 54 -7 46 -43 l 308 151 q 293 89 303 132 q 276 24 283 46 z "},"g":{"ha":840,"x_min":-60,"x_max":847,"o":"m 668 18 q 484 -249 606 -150 q 215 -347 363 -347 q 90 -328 149 -347 q -11 -269 32 -310 q -60 -171 -54 -228 q 32 -58 -32 -115 q 153 22 96 0 l 175 15 q 136 -92 136 -33 q 185 -239 136 -174 q 310 -304 235 -304 q 450 -40 374 -304 q 568 343 532 240 l 546 339 q 528 302 542 329 q 511 265 515 275 q 392 80 454 142 q 250 18 331 18 q 125 90 172 18 q 78 278 78 163 q 174 583 78 458 q 418 708 269 708 q 588 615 529 708 l 574 579 q 451 665 507 665 q 355 553 397 665 q 313 293 313 442 q 368 140 313 140 q 481 283 414 140 q 643 693 563 460 q 760 654 701 682 q 847 592 819 626 q 767 331 836 561 q 668 18 699 100 z "},"h":{"ha":899,"x_min":19,"x_max":908,"o":"m 908 568 q 840 347 908 511 q 708 -129 708 28 q 753 -197 708 -197 q 815 -182 779 -197 l 819 -185 l 815 -211 q 660 -257 733 -257 q 526 -214 567 -257 q 485 -100 485 -171 q 579 271 485 28 q 606 344 589 297 q 633 416 624 390 q 652 474 642 442 q 667 529 663 507 q 672 568 672 551 q 638 610 672 610 q 496 472 583 610 q 239 -22 397 319 q 19 25 100 -15 q 86 216 54 104 q 156 481 118 328 q 203 672 193 635 q 363 945 249 849 q 633 1042 478 1042 q 748 1013 703 1042 q 793 933 793 983 q 755 834 793 878 q 638 735 717 790 q 389 529 464 614 q 313 243 357 392 l 324 238 q 468 499 417 422 q 757 708 610 708 q 869 670 829 708 q 908 568 908 632 m 428 710 q 401 583 413 632 q 467 652 425 611 q 519 703 510 693 q 607 904 607 794 q 557 1010 607 1010 q 428 710 490 1010 z "},"i":{"ha":433,"x_min":61,"x_max":522,"o":"m 318 857 q 257 878 282 857 q 232 933 232 900 q 269 1012 232 982 q 351 1042 307 1042 q 411 1020 388 1042 q 435 965 435 999 q 399 887 435 917 q 318 857 363 857 m 522 150 q 372 31 458 83 q 210 -22 285 -22 q 102 13 143 -22 q 61 113 61 49 q 113 332 61 169 q 183 604 168 501 l 132 671 l 135 688 q 408 708 281 706 l 425 696 q 368 396 425 592 q 331 278 357 358 q 291 147 304 197 q 278 65 278 97 q 285 31 278 40 q 402 91 335 44 q 517 188 469 138 l 522 183 l 522 150 z "},"j":{"ha":426,"x_min":-311,"x_max":588,"o":"m 315 857 q 255 878 279 857 q 231 933 231 900 q 267 1012 231 982 q 349 1042 304 1042 q 409 1020 385 1042 q 433 965 433 999 q 397 887 433 917 q 315 857 360 857 m 283 24 q 117 -239 240 -131 q -158 -347 -7 -347 q -267 -319 -224 -347 q -311 -243 -311 -292 q -253 -129 -311 -178 q -74 -15 -196 -81 l 74 64 q 182 604 150 392 l 129 671 l 133 688 q 406 708 249 708 l 424 696 q 347 244 424 543 q 583 436 494 350 l 588 436 l 588 397 q 256 143 481 282 l 29 4 q -135 -235 -135 -97 q -87 -306 -135 -306 q 61 -6 6 -306 l 321 157 q 303 95 319 150 q 283 24 288 40 z "},"k":{"ha":868,"x_min":18,"x_max":924,"o":"m 18 25 q 85 216 53 104 q 154 481 117 328 q 201 672 192 635 q 362 945 247 849 q 632 1042 476 1042 q 745 1013 700 1042 q 790 933 790 983 q 778 875 790 903 q 735 817 767 847 q 683 770 704 788 q 608 716 661 753 q 533 664 554 679 q 385 526 439 592 q 301 224 347 376 l 307 213 q 500 533 413 414 q 635 667 568 625 q 786 708 703 708 q 885 676 847 708 q 924 590 924 644 q 828 426 924 500 q 588 342 732 351 l 588 322 q 728 335 657 322 l 736 326 q 683 -46 683 115 q 744 -197 683 -197 q 810 -182 779 -197 l 814 -185 l 811 -210 q 649 -257 729 -257 q 464 -28 464 -257 q 524 356 464 133 q 663 413 617 357 q 710 533 710 468 q 654 613 710 613 q 533 517 604 613 q 235 -22 365 285 q 18 25 97 -15 m 426 710 q 412 646 421 688 q 399 582 403 604 q 463 649 422 608 q 518 704 504 689 q 604 904 604 794 q 556 1010 604 1010 q 426 710 489 1010 z "},"l":{"ha":442,"x_min":61,"x_max":539,"o":"m 210 -22 q 101 15 142 -22 q 61 113 61 51 q 113 343 61 178 l 221 682 q 281 931 269 835 l 231 1004 l 233 1021 q 507 1042 364 1039 l 524 1031 q 418 560 524 900 q 366 402 411 539 q 300 186 321 265 q 279 65 279 107 q 285 31 279 42 q 413 94 339 46 q 535 192 486 142 l 539 188 l 539 154 q 373 29 469 81 q 210 -22 276 -22 z "},"m":{"ha":1333,"x_min":18,"x_max":1438,"o":"m 1438 160 q 1274 37 1376 96 q 1096 -22 1172 -22 q 964 106 964 -22 q 1030 344 964 163 q 1096 568 1096 526 q 1063 608 1096 608 q 957 510 1028 608 q 817 283 886 413 q 755 145 789 233 q 703 32 721 57 q 587 53 649 35 q 490 99 525 72 q 596 349 547 201 q 644 569 644 497 q 611 610 644 610 q 228 -22 521 610 q 115 -6 181 -21 q 18 26 49 8 q 117 315 63 129 q 182 606 172 500 l 131 671 l 135 688 q 407 708 263 708 l 425 696 q 292 246 425 526 l 307 238 q 341 303 314 251 q 380 376 368 356 q 419 444 392 397 q 463 515 446 492 q 507 574 479 538 q 558 630 535 611 q 610 670 581 649 q 669 700 639 692 q 731 708 699 708 q 839 673 801 708 q 876 579 876 638 q 818 390 876 510 l 833 386 q 908 505 874 454 q 988 605 943 556 q 1081 681 1032 654 q 1181 707 1131 707 q 1293 669 1254 707 q 1332 568 1332 632 q 1254 313 1332 517 q 1176 63 1176 108 q 1182 36 1176 44 q 1433 199 1311 76 l 1438 196 l 1438 160 z "},"n":{"ha":899,"x_min":18,"x_max":1003,"o":"m 1003 160 q 840 37 942 96 q 661 -22 738 -22 q 529 106 529 -22 q 594 346 529 167 q 661 569 661 532 q 625 610 661 610 q 483 472 574 610 q 228 -22 375 300 q 115 -6 181 -21 q 18 26 49 8 q 117 315 63 129 q 182 606 172 500 l 131 671 l 135 688 q 407 708 263 708 l 425 696 q 292 247 425 528 l 311 238 q 457 499 411 432 q 744 708 599 708 q 856 670 817 708 q 896 569 896 632 q 818 310 896 513 q 742 63 742 114 q 747 36 742 43 q 999 199 876 76 l 1003 196 l 1003 160 z "},"o":{"ha":781,"x_min":46,"x_max":1006,"o":"m 1006 497 q 759 372 894 421 q 506 324 624 324 q 356 368 413 324 q 299 500 299 413 q 363 690 299 615 q 532 765 428 765 q 700 681 636 765 q 764 461 764 597 q 761 401 764 438 q 999 532 890 447 l 1006 528 l 1006 497 m 343 518 q 519 354 343 354 q 543 356 535 354 q 544 414 544 375 q 522 622 544 540 q 454 703 499 703 q 378 649 413 703 q 343 518 343 594 m 538 299 q 750 346 671 311 q 565 85 700 193 q 272 -22 431 -22 q 106 39 167 -22 q 46 196 46 100 q 94 369 46 289 q 215 493 143 449 q 314 376 274 428 q 279 225 279 304 q 378 32 279 32 q 538 299 496 32 z "},"p":{"ha":838,"x_min":-31,"x_max":829,"o":"m 251 -339 l 246 -347 q -26 -289 68 -332 q -31 -240 -31 -268 q -12 -101 -31 -187 q 26 49 7 -15 q 83 233 46 113 q 194 665 175 518 l 144 739 l 149 756 q 399 776 276 775 l 415 764 q 313 356 415 635 l 347 357 q 656 708 493 708 q 782 640 735 708 q 829 457 829 571 q 719 119 829 261 q 454 -22 610 -22 q 303 75 353 -22 l 317 110 q 425 18 368 18 q 539 149 485 18 q 593 442 593 281 q 540 583 593 583 q 385 354 485 583 q 254 13 332 235 q 204 -212 204 -137 q 251 -339 204 -301 z "},"q":{"ha":831,"x_min":78,"x_max":865,"o":"m 661 690 q 777 653 717 681 q 865 590 838 626 q 821 475 861 579 q 758 306 781 371 q 702 141 735 242 q 653 -42 669 40 q 638 -187 638 -125 q 685 -339 638 -281 l 679 -347 q 421 -289 519 -333 q 413 -222 413 -261 q 603 342 413 -35 l 565 339 q 519 240 540 281 q 256 -22 390 -22 q 126 50 175 -22 q 78 238 78 122 q 176 572 78 436 q 428 708 275 708 q 607 615 543 708 l 593 579 q 461 665 529 665 q 358 541 403 665 q 314 253 314 417 q 371 103 314 103 q 488 267 407 103 q 661 690 551 392 z "},"r":{"ha":735,"x_min":14,"x_max":811,"o":"m 557 536 q 460 440 521 536 q 224 -22 351 265 q 110 -6 176 -21 q 14 26 44 8 q 117 316 60 132 q 183 606 174 500 l 132 671 l 135 688 q 408 708 265 708 l 425 696 q 289 247 415 517 l 310 235 q 461 511 415 435 l 483 544 q 510 585 504 578 q 536 619 515 592 q 570 656 557 647 q 606 681 583 665 q 651 703 628 697 q 700 708 674 708 q 778 681 749 708 q 811 610 808 654 q 696 335 778 483 l 674 335 q 557 536 621 536 z "},"s":{"ha":674,"x_min":18,"x_max":711,"o":"m 599 189 q 516 33 599 89 q 329 -22 433 -22 q 137 10 225 -22 q 18 103 49 42 q 117 250 47 175 l 129 250 q 203 88 150 165 q 318 10 257 10 q 383 35 356 10 q 410 104 410 60 q 392 162 410 135 q 359 201 375 189 q 303 242 343 214 q 289 251 293 249 q 222 298 244 281 q 173 341 199 315 q 136 394 147 367 q 125 457 125 422 q 183 599 125 540 q 320 683 242 658 q 481 708 399 708 q 648 672 585 708 q 711 571 711 635 q 638 463 711 507 q 469 454 589 457 l 465 467 q 531 574 531 532 q 499 638 531 608 q 421 668 467 668 q 347 640 375 668 q 318 560 318 613 q 349 474 318 510 q 436 401 379 439 q 560 301 522 344 q 599 189 599 257 z "},"t":{"ha":488,"x_min":82,"x_max":626,"o":"m 626 192 q 436 49 557 119 q 228 -22 315 -22 q 122 13 163 -22 q 82 114 82 49 q 168 524 82 208 q 190 608 179 563 l 121 608 l 135 640 l 201 640 q 372 763 293 672 q 471 944 451 853 l 504 926 q 436 640 486 814 l 581 640 l 567 608 l 426 608 q 414 565 422 596 q 403 526 406 533 q 299 61 299 185 q 304 31 299 42 q 469 108 368 43 q 622 229 571 174 l 626 225 l 626 192 z "},"u":{"ha":871,"x_min":64,"x_max":993,"o":"m 993 150 q 835 33 932 88 q 661 -22 738 -22 q 565 10 599 -22 q 531 103 531 43 q 625 407 531 199 l 601 414 q 547 308 557 326 q 496 210 517 249 q 441 122 475 171 q 376 45 407 74 q 301 -3 344 17 q 211 -22 258 -22 q 103 17 142 -22 q 64 121 64 57 q 133 361 64 172 q 203 614 203 550 q 179 643 203 643 q 106 619 149 643 l 103 622 l 108 654 q 290 708 217 708 q 389 675 356 708 q 422 581 422 642 q 360 344 422 526 q 299 119 299 164 q 335 76 299 76 q 475 232 386 76 q 686 708 568 396 q 801 678 743 703 q 885 628 858 654 q 807 358 882 588 q 732 56 732 129 q 738 31 732 38 q 989 190 875 74 l 993 186 l 993 150 z "},"v":{"ha":767,"x_min":92,"x_max":971,"o":"m 963 408 q 838 344 910 368 q 700 321 767 321 q 540 373 604 321 q 476 543 476 425 q 532 730 476 657 q 679 803 588 803 q 778 765 738 803 q 819 657 819 726 q 710 354 819 525 q 725 353 714 353 q 848 381 782 353 q 967 451 914 408 l 971 449 l 963 408 m 522 546 q 593 379 522 424 q 649 646 649 535 q 603 739 649 739 q 544 679 567 739 q 522 546 522 619 m 133 13 q 112 32 133 13 q 92 111 92 50 q 144 350 92 172 q 197 613 197 528 q 172 644 197 644 q 118 629 143 644 l 115 632 l 121 661 q 283 708 199 708 q 415 582 415 708 q 364 344 415 521 q 313 94 313 167 q 350 49 313 49 q 456 127 394 49 q 568 322 517 206 q 672 299 618 299 q 456 71 576 165 q 242 -24 335 -24 q 133 13 174 -24 z "},"w":{"ha":1190,"x_min":92,"x_max":1401,"o":"m 1394 399 q 1114 321 1232 321 q 953 372 1018 321 q 889 543 889 424 q 944 730 889 657 q 1092 803 1000 803 q 1191 765 1150 803 q 1232 657 1232 726 q 1128 354 1232 524 q 1142 353 1132 353 q 1397 438 1236 353 l 1401 435 l 1394 399 m 935 546 q 1007 378 935 422 q 1057 646 1057 535 q 1015 739 1057 739 q 957 679 979 739 q 935 546 935 619 m 615 661 q 833 607 753 649 q 769 333 794 476 q 744 110 744 190 q 785 50 744 50 q 885 131 825 50 q 988 324 944 211 q 1093 300 1025 303 q 883 72 1001 167 q 675 -22 765 -22 q 570 14 607 -22 q 533 113 533 50 q 560 260 533 168 l 546 264 q 410 52 482 126 q 239 -22 338 -22 q 131 15 171 -22 q 92 113 92 51 q 144 353 92 172 q 196 610 196 524 q 172 644 196 644 q 118 629 146 644 l 114 632 l 119 661 q 282 708 201 708 q 414 582 414 708 q 363 342 414 525 q 311 96 311 163 q 344 50 311 50 q 458 172 385 50 q 576 440 532 293 q 615 661 597 551 z "},"x":{"ha":982,"x_min":-10,"x_max":1054,"o":"m 953 708 q 1028 685 1001 708 q 1054 625 1054 663 q 933 397 1054 581 l 919 397 q 843 600 919 600 q 731 519 792 600 q 638 319 671 439 l 642 267 q 738 54 654 54 q 856 103 789 54 l 860 100 l 857 71 q 738 5 807 32 q 607 -22 669 -22 q 478 32 521 -22 q 435 182 435 86 q 449 343 435 246 l 432 343 q 296 78 383 182 q 92 -25 208 -25 q 17 -2 43 -25 q -10 58 -10 21 q 113 286 -10 101 l 126 286 q 201 83 126 83 q 313 163 253 83 q 406 360 372 243 l 401 411 q 301 631 388 631 q 183 583 249 631 l 181 586 l 182 615 q 302 681 233 654 q 432 708 371 708 q 565 655 521 708 q 608 506 608 601 q 596 342 608 418 l 613 342 q 750 606 663 503 q 953 708 838 708 z "},"y":{"ha":829,"x_min":-50,"x_max":865,"o":"m 679 18 q 494 -249 615 -150 q 225 -347 374 -347 q 41 -301 122 -347 q -50 -171 -40 -256 q 38 -58 -22 -117 q 157 28 99 0 q 64 163 64 57 q 138 394 64 217 q 206 614 206 556 q 182 644 206 644 q 126 629 151 644 l 124 632 l 129 661 q 292 708 207 708 q 424 582 424 708 q 365 374 424 529 q 299 163 299 207 q 335 118 299 118 q 465 250 385 118 q 661 699 565 419 q 778 660 719 686 q 865 597 838 633 q 835 497 861 583 q 784 334 808 411 q 729 164 760 257 q 679 18 699 71 m 147 -92 q 195 -240 147 -175 q 319 -304 243 -304 q 387 -235 354 -304 q 463 -37 419 -167 q 501 92 476 10 q 544 238 525 175 q 578 343 563 300 l 553 339 q 493 235 519 276 q 215 19 358 19 q 185 22 204 19 q 147 -92 147 -36 z "},"z":{"ha":679,"x_min":-22,"x_max":764,"o":"m 86 94 q 53 72 53 94 q 117 -19 106 36 l 110 -33 q -22 -14 38 -31 l 8 78 q 55 171 25 129 q 113 238 85 213 q 193 290 142 264 q 275 328 244 317 q 368 363 306 340 q 388 369 381 367 q 576 460 540 433 q 599 478 589 468 l 586 501 q 478 464 540 464 q 351 497 436 464 q 221 529 267 529 q 121 449 172 529 l 101 461 q 332 706 203 706 q 508 663 394 706 q 661 621 622 621 q 692 643 692 621 q 625 733 639 682 l 632 747 q 764 728 706 743 l 733 629 q 707 560 724 592 q 674 506 690 529 q 629 460 657 482 q 581 425 601 439 q 523 394 561 411 q 461 367 485 376 q 392 340 438 358 q 142 215 194 267 l 154 194 q 261 229 206 229 q 346 184 299 229 q 431 85 393 139 q 516 -15 469 31 q 599 -60 563 -60 q 647 -46 626 -60 q 694 6 667 -32 l 713 -7 q 604 -152 674 -89 q 468 -215 535 -215 q 378 -183 424 -215 q 296 -106 333 -151 q 224 -15 258 -61 q 153 63 189 31 q 86 94 117 94 z "},"{":{"ha":442,"x_min":35,"x_max":558,"o":"m 313 849 q 367 995 326 949 q 513 1042 407 1042 q 558 1039 522 1042 l 558 1024 q 528 1025 547 1025 q 459 1012 488 1025 q 413 972 431 999 q 385 918 394 944 q 364 849 375 892 q 258 386 275 424 q 231 349 249 363 q 246 307 246 335 q 208 185 246 290 q 133 -52 171 79 q 96 -264 96 -183 q 193 -332 96 -332 q 224 -331 213 -332 l 218 -344 q 172 -347 200 -347 q 35 -276 35 -347 q 54 -160 35 -235 q 94 -28 74 -86 q 158 151 114 31 q 218 318 201 271 l 111 335 l 117 356 l 225 376 q 313 849 282 631 z "},"|":{"ha":458,"x_min":107,"x_max":506,"o":"m 146 -154 l 107 -154 l 467 1210 l 506 1210 l 146 -154 z "},"}":{"ha":442,"x_min":-64,"x_max":460,"o":"m 182 -154 q 128 -301 168 -254 q -18 -347 88 -347 q -64 -344 -28 -347 l -64 -329 q -33 -331 -53 -331 q 76 -286 43 -331 q 131 -154 110 -242 q 236 308 219 268 q 264 346 246 332 q 249 388 249 360 q 286 510 249 404 q 361 747 324 615 q 399 958 399 878 q 301 1026 399 1026 q 271 1025 282 1026 l 276 1039 q 322 1042 294 1042 q 460 971 460 1042 q 440 855 460 929 q 401 722 421 781 q 337 544 381 664 q 276 376 293 424 l 383 360 l 378 339 l 269 318 q 182 -154 213 64 z "},"~":{"ha":729,"x_min":136,"x_max":686,"o":"m 499 326 q 404 371 458 326 q 389 385 401 374 q 371 400 376 396 q 354 411 365 404 q 333 421 343 418 q 311 424 322 424 q 151 326 244 424 l 136 329 q 324 467 238 467 q 363 457 342 467 q 390 442 383 447 q 421 418 397 436 q 434 407 424 415 q 448 395 444 399 q 461 385 451 392 q 477 376 471 378 q 492 371 483 374 q 511 368 501 368 q 671 467 579 368 l 686 464 q 499 326 585 326 z "}," ":{"ha":306,"x_min":0,"x_max":0,"o":""},"¡":{"ha":469,"x_min":61,"x_max":463,"o":"m 357 708 q 433 682 403 708 q 463 614 463 656 q 419 520 463 557 q 319 483 375 483 q 245 510 275 483 q 215 575 215 536 q 259 671 215 633 q 357 708 303 708 m 61 -250 q 128 35 61 -150 q 271 378 194 219 l 310 378 q 309 352 310 374 q 308 328 308 331 q 319 4 303 242 q 335 -276 335 -233 q 272 -335 335 -331 q 115 -340 225 -340 q 61 -250 61 -340 z "},"¢":{"ha":676,"x_min":149,"x_max":669,"o":"m 615 181 q 389 82 504 92 l 336 -117 l 297 -117 l 350 82 q 202 140 256 85 q 149 292 149 194 q 248 550 149 435 q 492 671 347 665 l 543 868 l 582 868 l 529 669 q 633 638 596 665 q 669 564 669 611 q 647 500 669 529 q 474 439 583 461 l 468 447 q 529 592 529 524 q 490 638 529 638 q 388 535 432 638 q 343 303 343 433 q 371 194 343 236 q 449 153 399 153 q 611 215 522 153 l 615 211 l 615 181 z "},"£":{"ha":764,"x_min":7,"x_max":838,"o":"m 7 -4 q 108 217 32 103 q 199 449 169 308 q 203 472 200 454 q 208 494 207 489 l 89 494 l 103 526 l 214 526 q 217 550 214 532 q 221 574 219 568 q 346 878 257 789 q 611 967 435 967 q 781 924 724 967 q 838 806 838 882 q 819 726 838 765 q 772 663 801 688 q 571 624 700 633 l 567 642 q 651 728 619 672 q 682 836 682 783 q 604 936 682 936 q 499 866 538 936 q 425 656 460 796 q 393 526 419 624 l 532 526 l 518 494 l 386 494 q 289 317 356 375 q 165 231 243 267 l 178 211 q 296 253 228 253 q 456 192 342 253 q 586 146 544 146 q 642 173 618 146 q 701 272 667 200 l 719 251 q 494 -22 644 -22 q 318 47 439 -22 q 118 121 190 121 q 81 97 83 121 q 156 -10 133 53 l 149 -24 q 7 -4 69 -21 z "},"¤":{"ha":742,"x_min":156,"x_max":717,"o":"m 646 190 l 597 143 l 540 263 q 383 210 469 210 q 265 251 311 210 l 196 144 l 156 192 l 249 269 q 208 389 208 317 q 299 618 208 531 l 210 706 l 258 753 l 317 632 q 474 688 385 688 q 601 639 553 688 l 676 753 l 717 706 l 615 621 q 651 507 651 574 q 557 278 651 363 l 646 190 m 433 260 q 565 313 513 260 q 617 461 617 367 q 564 588 617 539 q 428 636 511 636 q 297 585 350 636 q 244 444 244 533 q 297 311 244 363 q 433 260 349 260 z "},"¥":{"ha":978,"x_min":85,"x_max":1003,"o":"m 632 3 q 363 14 496 14 q 85 3 240 14 l 99 40 l 247 40 q 333 372 307 219 l 110 372 l 124 404 l 333 404 l 333 511 l 143 511 l 157 543 l 333 543 q 306 846 326 714 l 189 929 l 192 944 q 531 967 340 964 l 549 951 q 568 617 568 796 q 554 381 568 492 l 579 381 q 767 536 693 446 q 840 699 840 626 q 724 926 840 860 l 726 943 q 940 967 822 964 q 1003 847 1003 931 q 840 543 1003 721 l 996 543 l 982 511 l 810 511 q 696 404 776 476 l 963 404 l 949 372 l 657 372 q 557 297 622 343 q 476 40 551 281 l 646 40 l 632 3 z "},"¦":{"ha":458,"x_min":107,"x_max":506,"o":"m 347 607 l 308 607 l 467 1210 l 506 1210 l 347 607 m 267 450 l 306 450 l 146 -154 l 107 -154 l 267 450 z "},"§":{"ha":642,"x_min":-24,"x_max":729,"o":"m 301 74 q 83 -261 301 -261 q 6 -235 35 -261 q -24 -165 -24 -208 q 3 -85 -24 -121 q 110 -35 36 -60 l 118 -44 q 51 -164 51 -96 q 68 -214 51 -196 q 114 -232 85 -232 q 250 21 250 -232 q 210 272 250 101 q 197 319 206 288 q 184 369 189 351 q 175 412 179 388 q 171 454 171 436 q 225 560 171 519 q 363 600 279 600 q 406 597 378 600 q 404 631 404 608 q 622 965 404 965 q 700 939 671 965 q 729 869 729 913 q 703 789 729 825 q 596 739 669 764 l 588 749 q 654 868 654 800 q 638 918 654 900 q 592 936 621 936 q 457 683 457 936 q 497 432 457 603 q 510 387 501 418 q 522 338 518 356 q 531 295 526 321 q 535 250 535 269 q 481 144 535 185 q 343 104 426 104 q 300 107 328 104 q 301 74 301 96 m 261 293 q 294 151 286 208 q 367 131 326 131 q 454 153 422 131 q 486 217 486 176 q 444 411 486 264 q 411 553 419 496 q 339 574 381 574 q 252 552 283 574 q 221 490 221 531 q 261 293 221 429 z "},"¨":{"ha":694,"x_min":132,"x_max":540,"o":"m 194 871 q 150 888 168 871 q 132 931 132 904 q 158 991 132 968 q 217 1014 185 1014 q 260 997 243 1014 q 278 954 278 979 q 252 894 278 917 q 194 871 226 871 m 457 871 q 412 888 429 871 q 394 931 394 904 q 421 991 394 968 q 479 1014 447 1014 q 523 997 506 1014 q 540 954 540 979 q 515 894 540 917 q 457 871 489 871 z "},"©":{"ha":1083,"x_min":115,"x_max":1061,"o":"m 519 -24 q 230 98 344 -24 q 115 399 115 219 q 198 699 115 565 q 403 900 281 832 q 658 968 526 968 q 947 847 832 968 q 1061 546 1061 725 q 978 246 1061 379 q 773 44 896 113 q 519 -24 650 -24 m 524 11 q 699 49 611 11 q 857 154 786 88 q 972 323 928 221 q 1015 543 1015 425 q 913 822 1015 710 q 654 935 810 935 q 479 897 567 935 q 321 791 392 858 q 206 622 250 724 q 161 401 161 519 q 264 124 161 236 q 524 11 367 11 m 765 264 l 768 260 l 768 236 q 531 128 649 128 q 371 199 431 128 q 311 385 311 271 q 353 581 311 481 q 483 755 396 681 q 679 829 571 829 q 825 719 825 829 q 799 638 825 672 q 676 590 758 614 l 668 599 q 738 726 738 653 q 667 797 738 797 q 492 672 564 797 q 419 390 419 546 q 459 231 419 288 q 575 175 499 175 q 765 264 667 175 z "},"ª":{"ha":706,"x_min":168,"x_max":686,"o":"m 672 467 q 565 433 610 433 q 492 499 492 433 q 499 545 492 518 q 513 593 506 572 q 535 651 521 614 q 557 706 550 688 l 550 704 q 335 433 425 433 q 225 615 225 433 q 288 855 225 744 q 446 965 351 965 q 576 897 519 965 l 567 868 q 454 938 514 938 q 362 844 401 938 q 322 621 322 750 q 367 492 322 492 q 409 513 388 492 q 461 586 431 533 q 622 951 525 697 q 686 915 672 929 q 642 706 686 856 q 588 485 588 529 q 594 457 588 468 q 668 490 615 457 l 672 467 m 168 308 l 186 344 l 619 344 l 601 308 l 168 308 z "},"«":{"ha":556,"x_min":150,"x_max":531,"o":"m 392 604 q 228 403 308 492 q 300 224 272 314 l 292 214 q 150 386 224 336 l 153 401 q 267 495 197 431 q 385 617 336 560 l 392 604 m 531 604 q 367 403 447 492 q 439 224 411 314 l 431 214 q 289 386 363 336 l 292 401 q 406 495 336 431 q 524 617 475 560 l 531 604 z "},"¬":{"ha":743,"x_min":144,"x_max":678,"o":"m 144 386 l 158 418 l 678 418 l 628 214 l 592 214 l 633 386 l 144 386 z "},"­":{"ha":536,"x_min":136,"x_max":479,"o":"m 136 378 l 154 428 l 479 428 l 461 378 l 136 378 z "},"®":{"ha":944,"x_min":258,"x_max":900,"o":"m 626 968 q 824 894 749 968 q 900 696 900 819 q 830 467 900 567 q 703 368 760 368 q 603 458 647 368 q 544 642 558 547 q 640 690 596 654 q 683 783 683 726 q 653 833 683 833 q 593 800 624 833 q 546 713 563 767 q 489 521 531 649 q 418 463 469 463 q 364 499 376 463 l 368 508 q 396 493 379 493 q 428 525 418 493 q 503 817 489 711 l 460 844 l 460 847 q 556 856 497 856 l 561 851 q 525 738 557 800 l 531 735 q 592 822 551 788 q 676 856 632 856 q 733 836 715 856 q 750 793 750 817 q 689 692 750 733 q 564 638 628 651 l 567 633 l 603 635 l 608 632 q 657 478 618 558 q 731 399 696 399 q 822 501 781 426 q 864 692 864 576 q 797 873 864 806 q 622 940 731 940 q 394 840 494 940 q 294 585 294 740 q 363 388 294 467 q 536 310 432 310 q 572 313 550 310 l 574 299 q 532 296 546 296 q 336 378 414 296 q 258 582 258 460 q 371 860 258 751 q 626 968 483 968 z "},"¯":{"ha":694,"x_min":107,"x_max":479,"o":"m 107 933 l 119 965 l 479 965 l 467 933 l 107 933 z "},"°":{"ha":478,"x_min":181,"x_max":578,"o":"m 338 589 q 223 638 265 589 q 181 757 181 686 q 250 947 181 875 q 419 1019 319 1019 q 535 971 492 1019 q 578 850 578 922 q 508 660 578 732 q 338 589 438 589 m 383 633 q 494 681 449 633 q 540 810 540 728 q 496 926 540 879 q 378 974 451 974 q 265 928 311 974 q 218 807 218 883 q 264 683 218 733 q 383 633 310 633 z "},"±":{"ha":726,"x_min":65,"x_max":701,"o":"m 688 483 l 447 483 l 390 246 l 357 246 l 414 483 l 168 483 l 182 515 l 422 515 l 479 753 l 513 753 l 456 515 l 701 515 l 688 483 m 65 57 l 79 89 l 599 89 l 585 57 l 65 57 z "},"²":{"ha":668,"x_min":121,"x_max":697,"o":"m 697 839 q 681 779 697 806 q 646 737 665 753 q 588 706 626 721 q 524 685 549 692 q 453 668 500 679 q 239 561 290 631 l 246 551 q 332 589 288 589 q 446 553 376 589 q 558 515 521 515 q 642 589 607 515 l 656 576 q 626 475 643 517 q 575 401 610 433 q 493 369 540 369 q 350 424 446 369 q 207 476 253 476 q 186 458 186 476 q 243 379 222 428 l 238 368 q 121 383 163 371 q 183 539 144 474 q 400 693 236 628 q 480 740 458 717 q 501 806 501 764 q 464 889 501 853 q 382 925 426 925 q 349 917 364 925 q 333 894 335 908 q 367 844 353 879 q 383 772 382 808 l 375 764 q 238 808 283 768 q 310 924 244 882 q 489 965 376 965 q 638 933 579 965 q 697 839 697 901 z "},"³":{"ha":621,"x_min":144,"x_max":646,"o":"m 646 850 q 604 759 646 788 q 479 708 563 731 q 353 665 400 686 l 358 653 q 475 672 414 672 q 577 644 540 672 q 614 561 614 617 q 513 425 614 479 q 303 371 411 371 q 144 450 188 371 l 151 475 l 158 475 q 294 399 210 399 q 388 438 351 399 q 425 538 425 478 q 399 602 425 583 q 321 621 374 621 q 267 614 299 621 l 267 647 q 338 678 310 664 q 399 715 367 692 q 449 769 432 738 q 465 840 465 801 q 438 901 465 879 q 363 922 411 922 q 318 893 326 922 q 352 841 336 876 q 369 771 368 806 l 360 763 q 222 807 268 767 q 299 915 229 869 q 478 967 371 967 q 600 934 554 967 q 646 850 646 901 z "},"´":{"ha":694,"x_min":157,"x_max":492,"o":"m 492 1004 q 347 927 456 978 q 157 849 238 876 l 157 860 q 486 1065 392 964 l 492 1061 l 492 1004 z "},"¶":{"ha":897,"x_min":93,"x_max":1050,"o":"m 604 -144 q 515 -305 565 -262 q 363 -347 464 -347 q 93 -251 171 -347 l 107 -224 q 172 -276 133 -254 q 240 -297 211 -297 q 294 -274 274 -297 q 338 -186 315 -250 q 499 403 404 7 q 264 512 350 433 q 178 697 178 590 q 258 877 178 806 q 494 949 338 949 q 762 947 543 949 q 1044 944 981 944 l 1050 921 l 858 903 l 851 903 q 742 377 829 747 q 604 -144 654 7 m 392 -143 q 306 -312 353 -261 q 386 -317 336 -317 q 547 -186 501 -317 q 692 344 599 -39 q 815 903 786 728 l 654 903 l 649 911 q 539 398 631 771 q 392 -143 447 25 z "},"·":{"ha":488,"x_min":178,"x_max":419,"o":"m 281 369 q 207 393 236 369 q 178 453 178 417 q 222 537 178 504 q 318 569 265 569 q 391 546 363 569 q 419 488 419 522 q 376 402 419 435 q 281 369 333 369 z "},"¸":{"ha":694,"x_min":140,"x_max":392,"o":"m 254 -93 l 253 -87 l 269 -83 q 357 -113 322 -86 q 392 -189 392 -140 q 323 -301 392 -257 q 154 -347 254 -346 l 140 -336 l 140 -332 q 281 -294 225 -332 q 336 -194 336 -256 q 254 -93 336 -112 z "},"¹":{"ha":567,"x_min":111,"x_max":585,"o":"m 539 413 l 529 385 q 326 393 440 393 q 111 385 217 393 l 122 413 l 225 413 q 385 928 338 757 l 210 863 l 204 871 q 235 950 221 924 q 408 946 318 946 q 575 950 486 946 l 585 933 q 424 413 522 717 l 539 413 z "},"º":{"ha":706,"x_min":172,"x_max":718,"o":"m 439 435 q 291 487 339 435 q 243 629 243 539 q 326 865 243 765 q 522 965 410 965 q 670 913 622 965 q 718 771 718 861 q 633 535 718 636 q 439 435 549 435 m 447 463 q 569 558 517 463 q 621 781 621 653 q 594 894 621 851 q 514 938 568 938 q 392 843 444 938 q 340 619 340 749 q 367 506 340 549 q 447 463 393 463 m 172 308 l 190 344 l 624 344 l 606 308 l 172 308 z "},"»":{"ha":556,"x_min":128,"x_max":508,"o":"m 128 226 q 292 428 211 339 q 219 607 247 517 l 228 617 q 369 444 296 494 l 367 429 q 253 335 322 400 q 135 214 183 271 l 128 226 m 267 226 q 431 428 350 339 q 358 607 386 517 l 367 617 q 508 444 435 494 l 506 429 q 392 335 461 400 q 274 214 322 271 l 267 226 z "},"¼":{"ha":1336,"x_min":111,"x_max":1278,"o":"m 539 413 l 529 385 q 326 393 440 393 q 111 385 217 393 l 122 413 l 225 413 q 385 928 338 757 l 210 863 l 204 871 q 235 950 221 924 q 408 946 318 946 q 575 950 486 946 l 585 933 q 424 413 522 717 l 539 413 m 375 -1 l 336 -1 l 1036 943 l 1075 943 l 375 -1 m 1238 21 l 1228 -7 q 1033 1 1136 1 q 842 -7 946 1 l 853 21 l 961 21 q 979 147 963 85 q 771 126 890 143 l 756 156 l 779 175 q 964 444 964 329 q 900 533 964 515 l 900 546 q 1089 592 1004 588 q 1136 494 1136 563 q 1119 422 1136 457 q 1063 352 1101 388 q 1001 299 1024 317 q 928 246 978 281 q 811 154 844 190 q 988 175 883 168 q 1039 289 1007 232 q 1147 360 1082 313 q 1244 443 1211 408 l 1258 433 q 1158 174 1188 294 q 1271 158 1224 169 l 1278 114 l 1271 110 q 1151 142 1217 136 q 1139 21 1142 94 l 1238 21 z "},"½":{"ha":1418,"x_min":111,"x_max":1374,"o":"m 539 413 l 529 385 q 326 393 440 393 q 111 385 217 393 l 122 413 l 225 413 q 385 928 338 757 l 210 863 l 204 871 q 235 950 221 924 q 408 946 318 946 q 575 950 486 946 l 585 933 q 424 413 522 717 l 539 413 m 375 -1 l 336 -1 l 1036 943 l 1075 943 l 375 -1 m 1128 279 q 914 172 965 242 l 922 161 q 1008 200 963 200 q 1121 164 1051 200 q 1235 126 1193 126 q 1317 200 1283 126 l 1331 186 q 1274 36 1310 92 q 1169 -19 1239 -19 q 1025 35 1125 -19 q 1009 43 1021 36 q 993 52 997 50 q 978 60 989 54 q 962 67 967 65 q 947 74 957 69 q 931 80 938 78 q 915 84 924 82 q 899 87 907 86 q 882 88 890 88 q 861 68 861 88 q 918 -10 900 38 l 913 -21 q 796 -6 843 -21 q 860 150 822 88 q 944 238 890 203 q 1076 304 997 272 q 1156 351 1133 328 q 1178 417 1178 375 q 1140 500 1178 464 q 1058 536 1103 536 q 1008 506 1015 536 q 1043 454 1028 489 q 1060 383 1058 419 l 1051 375 q 913 419 958 379 q 986 534 921 493 q 1165 575 1051 575 q 1315 543 1256 575 q 1374 449 1374 511 q 1358 390 1374 415 q 1322 348 1342 364 q 1263 317 1303 332 q 1199 297 1224 303 q 1128 279 1175 290 z "},"¾":{"ha":1353,"x_min":115,"x_max":1265,"o":"m 617 850 q 575 759 617 788 q 450 708 533 731 q 324 665 371 686 l 329 653 q 446 672 385 672 q 548 644 511 672 q 585 561 585 617 q 483 425 585 479 q 274 371 382 371 q 115 450 158 371 l 122 475 l 129 475 q 265 399 181 399 q 359 438 322 399 q 396 538 396 478 q 370 602 396 583 q 292 621 344 621 q 238 614 269 621 l 238 647 q 309 678 281 664 q 370 715 338 692 q 419 769 403 738 q 436 840 436 801 q 409 901 436 879 q 333 922 382 922 q 289 893 297 922 q 323 841 307 876 q 340 771 339 806 l 331 763 q 193 807 239 767 q 269 915 200 869 q 449 967 342 967 q 571 934 525 967 q 617 850 617 901 m 404 -1 l 365 -1 l 1065 943 l 1104 943 l 404 -1 m 1225 21 l 1215 -7 q 1021 1 1124 1 q 829 -7 933 1 l 840 21 l 949 21 q 967 147 950 85 q 758 126 878 143 l 743 156 l 767 175 q 951 444 951 329 q 888 533 951 515 l 888 546 q 1076 592 992 588 q 1124 494 1124 563 q 1106 422 1124 457 q 1050 352 1089 388 q 988 299 1011 317 q 915 246 965 281 q 799 154 832 190 q 975 175 871 168 q 1026 289 994 232 q 1134 360 1069 313 q 1232 443 1199 408 l 1246 433 q 1146 174 1175 294 q 1258 158 1211 169 l 1265 114 l 1258 110 q 1139 142 1204 136 q 1126 21 1129 94 l 1225 21 z "},"¿":{"ha":668,"x_min":31,"x_max":626,"o":"m 521 708 q 596 682 565 708 q 626 614 626 656 q 582 519 626 556 q 483 483 538 483 q 409 509 439 483 q 379 575 379 535 q 424 672 379 635 q 521 708 468 708 m 272 246 q 358 342 306 306 q 475 379 411 379 q 558 347 526 379 q 589 264 589 315 q 464 93 589 149 q 411 69 426 76 q 366 47 396 63 q 323 19 336 31 q 293 -9 310 8 q 270 -46 276 -26 q 264 -87 264 -65 q 309 -185 264 -150 q 433 -219 354 -219 q 540 -192 494 -219 l 543 -217 q 410 -278 486 -251 q 278 -311 335 -304 q 103 -260 175 -311 q 31 -133 31 -208 q 91 -10 31 -61 q 296 78 151 40 q 383 103 353 93 q 448 127 414 113 q 497 158 482 142 q 511 194 511 174 q 478 257 511 231 q 396 283 444 283 q 279 228 332 283 l 272 246 z "},"À":{"ha":1054,"x_min":-140,"x_max":1051,"o":"m 917 1024 q 777 1093 861 1043 q 643 1178 693 1143 l 643 1235 l 650 1239 q 917 1035 774 1103 l 917 1024 m 464 376 q 158 389 250 376 q 135 469 135 425 l 140 474 q 378 417 207 426 q 640 824 513 589 l 486 928 l 489 947 q 742 940 614 940 q 993 946 922 940 l 1004 929 q 921 190 921 608 q 983 51 921 51 q 1047 82 1022 51 l 1051 81 l 1047 50 q 850 -22 985 -22 q 681 174 681 -22 q 690 381 681 242 q 464 376 586 376 m 476 415 q 693 422 606 415 q 754 889 715 681 l 718 889 q 476 415 568 582 m 329 357 l 444 357 q 236 67 332 156 q 13 -22 140 -22 q -140 71 -108 -22 l -126 90 q -72 61 -104 61 q 99 133 -6 61 q 329 357 203 206 z "},"Á":{"ha":1054,"x_min":-140,"x_max":1051,"o":"m 1043 1178 q 898 1101 1007 1151 q 708 1022 789 1050 l 708 1033 q 1038 1239 943 1138 l 1043 1235 l 1043 1178 m 464 376 q 158 389 250 376 q 135 469 135 425 l 140 474 q 378 417 207 426 q 640 824 513 589 l 486 928 l 489 947 q 742 940 614 940 q 993 946 922 940 l 1004 929 q 921 190 921 608 q 983 51 921 51 q 1047 82 1022 51 l 1051 81 l 1047 50 q 850 -22 985 -22 q 681 174 681 -22 q 690 381 681 242 q 464 376 586 376 m 476 415 q 693 422 606 415 q 754 889 715 681 l 718 889 q 476 415 568 582 m 329 357 l 444 357 q 236 67 332 156 q 13 -22 140 -22 q -140 71 -108 -22 l -126 90 q -72 61 -104 61 q 99 133 -6 61 q 329 357 203 206 z "},"Â":{"ha":1054,"x_min":-140,"x_max":1051,"o":"m 624 1039 l 608 1043 q 640 1063 614 1046 q 676 1088 667 1081 q 710 1111 686 1094 q 749 1140 735 1128 q 785 1168 764 1151 q 823 1202 806 1185 q 857 1238 840 1219 l 893 1238 q 1007 1046 914 1171 l 996 1040 q 853 1181 906 1115 q 624 1039 732 1100 m 464 376 q 158 389 250 376 q 135 469 135 425 l 140 474 q 378 417 207 426 q 640 824 513 589 l 486 928 l 489 947 q 742 940 614 940 q 993 946 922 940 l 1004 929 q 921 190 921 608 q 983 51 921 51 q 1047 82 1022 51 l 1051 81 l 1047 50 q 850 -22 985 -22 q 681 174 681 -22 q 690 381 681 242 q 464 376 586 376 m 476 415 q 693 422 606 415 q 754 889 715 681 l 718 889 q 476 415 568 582 m 329 357 l 444 357 q 236 67 332 156 q 13 -22 140 -22 q -140 71 -108 -22 l -126 90 q -72 61 -104 61 q 99 133 -6 61 q 329 357 203 206 z "},"Ã":{"ha":1054,"x_min":-140,"x_max":1051,"o":"m 726 1143 q 671 1120 696 1143 q 611 1049 646 1097 l 599 1051 q 751 1175 678 1175 q 836 1128 786 1175 q 921 1081 886 1081 q 976 1103 951 1081 q 1036 1175 1001 1126 l 1049 1172 q 896 1049 972 1049 q 869 1056 883 1049 q 848 1068 856 1063 q 823 1090 840 1074 q 801 1108 806 1106 q 726 1143 761 1143 m 464 376 q 158 389 250 376 q 135 469 135 425 l 140 474 q 378 417 207 426 q 640 824 513 589 l 486 928 l 489 947 q 742 940 614 940 q 993 946 922 940 l 1004 929 q 921 190 921 608 q 983 51 921 51 q 1047 82 1022 51 l 1051 81 l 1047 50 q 850 -22 985 -22 q 681 174 681 -22 q 690 381 681 242 q 464 376 586 376 m 476 415 q 693 422 606 415 q 754 889 715 681 l 718 889 q 476 415 568 582 m 329 357 l 444 357 q 236 67 332 156 q 13 -22 140 -22 q -140 71 -108 -22 l -126 90 q -72 61 -104 61 q 99 133 -6 61 q 329 357 203 206 z "},"Ä":{"ha":1054,"x_min":-140,"x_max":1051,"o":"m 685 1043 q 640 1060 658 1043 q 622 1103 622 1076 q 649 1163 622 1140 q 707 1186 675 1186 q 751 1169 733 1186 q 768 1126 768 1151 q 742 1066 768 1089 q 685 1043 717 1043 m 947 1043 q 902 1060 919 1043 q 885 1103 885 1076 q 911 1163 885 1140 q 969 1186 938 1186 q 1013 1169 996 1186 q 1031 1126 1031 1151 q 1005 1066 1031 1089 q 947 1043 979 1043 m 464 376 q 158 389 250 376 q 135 469 135 425 l 140 474 q 378 417 207 426 q 640 824 513 589 l 486 928 l 489 947 q 742 940 614 940 q 993 946 922 940 l 1004 929 q 921 190 921 608 q 983 51 921 51 q 1047 82 1022 51 l 1051 81 l 1047 50 q 850 -22 985 -22 q 681 174 681 -22 q 690 381 681 242 q 464 376 586 376 m 476 415 q 693 422 606 415 q 754 889 715 681 l 718 889 q 476 415 568 582 m 329 357 l 444 357 q 236 67 332 156 q 13 -22 140 -22 q -140 71 -108 -22 l -126 90 q -72 61 -104 61 q 99 133 -6 61 q 329 357 203 206 z "},"Å":{"ha":1054,"x_min":-140,"x_max":1051,"o":"m 819 1007 q 733 1036 764 1007 q 703 1113 703 1065 q 752 1221 703 1181 q 867 1261 801 1261 q 951 1233 921 1261 q 981 1158 981 1204 q 933 1048 981 1089 q 819 1007 885 1007 m 824 1044 q 925 1074 882 1044 q 968 1154 968 1104 q 940 1204 968 1185 q 861 1224 913 1224 q 759 1194 803 1224 q 715 1115 715 1165 q 744 1064 715 1083 q 824 1044 772 1044 m 464 376 q 158 389 250 376 q 135 469 135 425 l 140 474 q 378 417 207 426 q 640 824 513 589 l 486 928 l 489 947 q 742 940 614 940 q 993 946 922 940 l 1004 929 q 921 190 921 608 q 983 51 921 51 q 1047 82 1022 51 l 1051 81 l 1047 50 q 850 -22 985 -22 q 681 174 681 -22 q 690 381 681 242 q 464 376 586 376 m 476 415 q 693 422 606 415 q 754 889 715 681 l 718 889 q 476 415 568 582 m 329 357 l 444 357 q 236 67 332 156 q 13 -22 140 -22 q -140 71 -108 -22 l -126 90 q -72 61 -104 61 q 99 133 -6 61 q 329 357 203 206 z "},"Æ":{"ha":1374,"x_min":-164,"x_max":1472,"o":"m 454 376 q 132 389 231 376 q 108 469 108 425 l 114 474 q 371 417 193 428 q 639 822 497 576 l 485 931 l 488 949 q 1021 943 664 943 q 1251 947 1117 943 q 1411 951 1385 951 q 1472 903 1472 951 q 1308 593 1472 826 l 1279 593 q 1279 833 1296 738 q 1249 895 1271 875 q 1182 915 1228 915 l 1015 915 q 928 468 996 736 l 982 468 q 1097 497 1031 468 q 1224 576 1163 526 l 1236 571 q 1163 340 1210 444 l 1151 338 q 1067 411 1124 381 q 964 442 1011 442 l 921 442 q 776 31 843 144 q 879 29 801 29 q 999 60 942 29 q 1153 181 1076 100 q 1283 358 1231 263 l 1311 358 q 1261 79 1289 165 q 1212 14 1246 31 q 1110 -3 1178 -3 q 906 -1 1058 -3 q 689 0 754 0 q 536 -1 588 0 l 529 18 q 667 379 581 74 q 454 376 542 376 m 721 886 q 468 415 525 518 q 678 419 574 415 q 782 886 757 706 l 721 886 m 321 358 q 436 357 342 357 q 217 67 318 157 q -11 -22 117 -22 q -164 71 -132 -22 l -150 90 q -96 61 -128 61 q 82 135 -28 61 q 321 358 192 208 z "},"Ç":{"ha":894,"x_min":125,"x_max":981,"o":"m 832 217 l 842 217 l 842 179 q 677 34 785 90 q 436 -22 569 -22 q 208 63 292 -22 q 125 310 125 149 q 203 633 125 482 q 420 875 282 783 q 721 967 558 967 q 981 810 981 967 q 963 737 981 775 q 918 676 944 699 q 721 624 843 647 l 717 640 q 792 803 792 700 q 689 932 792 932 q 540 847 614 932 q 421 628 467 763 q 375 354 375 493 q 429 167 375 239 q 576 96 483 96 q 832 217 722 96 m 411 -93 l 410 -87 l 426 -83 q 514 -113 479 -86 q 549 -189 549 -140 q 480 -301 549 -257 q 311 -347 411 -346 l 297 -336 l 297 -332 q 438 -294 382 -332 q 493 -194 493 -256 q 411 -93 493 -112 z "},"È":{"ha":900,"x_min":67,"x_max":1010,"o":"m 763 1024 q 623 1093 707 1043 q 489 1178 539 1143 l 489 1235 l 496 1239 q 763 1035 619 1103 l 763 1024 m 799 79 q 751 15 785 32 q 647 -3 718 -3 q 443 -1 594 -3 q 226 0 292 0 q 74 -1 125 0 l 67 19 q 198 356 114 71 q 314 851 282 640 l 172 929 l 175 950 q 618 944 347 944 q 807 948 692 944 q 949 951 922 951 q 1010 903 1010 951 q 846 593 1010 829 l 817 593 q 817 833 831 742 q 785 896 808 876 q 719 915 763 915 l 551 915 q 464 468 531 725 l 508 468 q 632 499 561 468 q 761 576 703 529 l 772 571 q 700 340 750 457 l 689 338 q 606 410 663 379 q 501 442 550 442 l 457 442 q 310 29 376 139 l 415 29 q 536 60 475 29 q 688 178 611 99 q 821 358 765 258 l 849 358 q 799 79 819 149 z "},"É":{"ha":900,"x_min":67,"x_max":1010,"o":"m 889 1178 q 744 1101 853 1151 q 554 1022 635 1050 l 554 1033 q 883 1239 789 1138 l 889 1235 l 889 1178 m 799 79 q 751 15 785 32 q 647 -3 718 -3 q 443 -1 594 -3 q 226 0 292 0 q 74 -1 125 0 l 67 19 q 198 356 114 71 q 314 851 282 640 l 172 929 l 175 950 q 618 944 347 944 q 807 948 692 944 q 949 951 922 951 q 1010 903 1010 951 q 846 593 1010 829 l 817 593 q 817 833 831 742 q 785 896 808 876 q 719 915 763 915 l 551 915 q 464 468 531 725 l 508 468 q 632 499 561 468 q 761 576 703 529 l 772 571 q 700 340 750 457 l 689 338 q 606 410 663 379 q 501 442 550 442 l 457 442 q 310 29 376 139 l 415 29 q 536 60 475 29 q 688 178 611 99 q 821 358 765 258 l 849 358 q 799 79 819 149 z "},"Ê":{"ha":900,"x_min":67,"x_max":1010,"o":"m 469 1039 l 454 1043 q 486 1063 460 1046 q 522 1088 513 1081 q 556 1111 532 1094 q 595 1140 581 1128 q 631 1168 610 1151 q 669 1202 651 1185 q 703 1238 686 1219 l 739 1238 q 853 1046 760 1171 l 842 1040 q 699 1181 751 1115 q 469 1039 578 1100 m 799 79 q 751 15 785 32 q 647 -3 718 -3 q 443 -1 594 -3 q 226 0 292 0 q 74 -1 125 0 l 67 19 q 198 356 114 71 q 314 851 282 640 l 172 929 l 175 950 q 618 944 347 944 q 807 948 692 944 q 949 951 922 951 q 1010 903 1010 951 q 846 593 1010 829 l 817 593 q 817 833 831 742 q 785 896 808 876 q 719 915 763 915 l 551 915 q 464 468 531 725 l 508 468 q 632 499 561 468 q 761 576 703 529 l 772 571 q 700 340 750 457 l 689 338 q 606 410 663 379 q 501 442 550 442 l 457 442 q 310 29 376 139 l 415 29 q 536 60 475 29 q 688 178 611 99 q 821 358 765 258 l 849 358 q 799 79 819 149 z "},"Ë":{"ha":900,"x_min":67,"x_max":1010,"o":"m 531 1043 q 486 1060 504 1043 q 468 1103 468 1076 q 494 1163 468 1140 q 553 1186 521 1186 q 597 1169 579 1186 q 614 1126 614 1151 q 588 1066 614 1089 q 531 1043 563 1043 m 793 1043 q 748 1060 765 1043 q 731 1103 731 1076 q 757 1163 731 1140 q 815 1186 783 1186 q 859 1169 842 1186 q 876 1126 876 1151 q 851 1066 876 1089 q 793 1043 825 1043 m 799 79 q 751 15 785 32 q 647 -3 718 -3 q 443 -1 594 -3 q 226 0 292 0 q 74 -1 125 0 l 67 19 q 198 356 114 71 q 314 851 282 640 l 172 929 l 175 950 q 618 944 347 944 q 807 948 692 944 q 949 951 922 951 q 1010 903 1010 951 q 846 593 1010 829 l 817 593 q 817 833 831 742 q 785 896 808 876 q 719 915 763 915 l 551 915 q 464 468 531 725 l 508 468 q 632 499 561 468 q 761 576 703 529 l 772 571 q 700 340 750 457 l 689 338 q 606 410 663 379 q 501 442 550 442 l 457 442 q 310 29 376 139 l 415 29 q 536 60 475 29 q 688 178 611 99 q 821 358 765 258 l 849 358 q 799 79 819 149 z "},"Ì":{"ha":507,"x_min":-54,"x_max":558,"o":"m 536 1024 q 397 1093 481 1043 q 263 1178 313 1143 l 263 1235 l 269 1239 q 536 1035 393 1103 l 536 1024 m 372 165 q 124 -22 310 -22 q -54 79 7 -22 l -40 100 q 1 63 -25 79 q 49 47 28 47 q 128 135 97 47 q 313 854 243 457 l 172 929 l 175 946 q 535 967 331 964 l 558 956 q 494 602 553 854 q 372 165 435 350 z "},"Í":{"ha":507,"x_min":-54,"x_max":663,"o":"m 663 1178 q 517 1101 626 1151 q 328 1022 408 1050 l 328 1033 q 657 1239 563 1138 l 663 1235 l 663 1178 m 372 165 q 124 -22 310 -22 q -54 79 7 -22 l -40 100 q 1 63 -25 79 q 49 47 28 47 q 128 135 97 47 q 313 854 243 457 l 172 929 l 175 946 q 535 967 331 964 l 558 956 q 494 602 553 854 q 372 165 435 350 z "},"Î":{"ha":507,"x_min":-54,"x_max":626,"o":"m 243 1039 l 228 1043 q 260 1063 233 1046 q 296 1088 286 1081 q 330 1111 306 1094 q 369 1140 354 1128 q 404 1168 383 1151 q 442 1202 425 1185 q 476 1238 460 1219 l 513 1238 q 626 1046 533 1171 l 615 1040 q 472 1181 525 1115 q 243 1039 351 1100 m 372 165 q 124 -22 310 -22 q -54 79 7 -22 l -40 100 q 1 63 -25 79 q 49 47 28 47 q 128 135 97 47 q 313 854 243 457 l 172 929 l 175 946 q 535 967 331 964 l 558 956 q 494 602 553 854 q 372 165 435 350 z "},"Ï":{"ha":507,"x_min":-54,"x_max":650,"o":"m 304 1043 q 260 1060 278 1043 q 242 1103 242 1076 q 268 1163 242 1140 q 326 1186 294 1186 q 370 1169 353 1186 q 388 1126 388 1151 q 362 1066 388 1089 q 304 1043 336 1043 m 567 1043 q 522 1060 539 1043 q 504 1103 504 1076 q 531 1163 504 1140 q 589 1186 557 1186 q 633 1169 615 1186 q 650 1126 650 1151 q 624 1066 650 1089 q 567 1043 599 1043 m 372 165 q 124 -22 310 -22 q -54 79 7 -22 l -40 100 q 1 63 -25 79 q 49 47 28 47 q 128 135 97 47 q 313 854 243 457 l 172 929 l 175 946 q 535 967 331 964 l 558 956 q 494 602 553 854 q 372 165 435 350 z "},"Ð":{"ha":1057,"x_min":71,"x_max":1075,"o":"m 1075 653 q 894 185 1075 374 q 433 -3 713 -3 q 308 -1 397 -3 q 211 0 219 0 q 79 -1 122 0 l 71 18 q 232 450 131 82 l 115 450 l 129 482 l 240 482 q 321 850 303 719 l 181 929 l 183 950 q 399 947 240 947 q 572 950 451 947 q 746 953 692 953 q 986 878 897 953 q 1075 653 1075 803 m 331 56 q 482 29 394 29 q 672 123 589 29 q 793 350 754 217 q 832 624 832 483 q 785 835 832 754 q 636 915 738 915 l 560 915 q 474 482 540 746 l 606 482 l 592 450 l 465 450 q 331 56 396 186 z "},"Ñ":{"ha":1088,"x_min":-35,"x_max":1336,"o":"m 792 1143 q 736 1120 761 1143 q 676 1049 711 1097 l 664 1051 q 817 1175 743 1175 q 901 1128 851 1175 q 986 1081 951 1081 q 1042 1103 1017 1081 q 1101 1175 1067 1126 l 1114 1172 q 961 1049 1038 1049 q 935 1056 949 1049 q 913 1068 921 1063 q 888 1090 906 1074 q 867 1108 871 1106 q 792 1143 826 1143 m 888 0 q 640 -22 794 -11 l 624 -12 q 540 402 579 149 q 485 899 500 656 l 469 899 l 438 639 q 326 135 396 293 q 143 -22 257 -22 q -35 46 29 -22 l -21 65 q 39 38 3 38 q 198 208 101 38 q 368 633 294 378 l 419 803 l 246 926 l 249 946 q 496 939 371 939 q 707 943 632 939 l 719 926 q 769 452 732 711 q 849 40 806 193 l 863 40 l 875 188 q 973 785 908 604 q 1158 967 1038 967 q 1336 899 1283 967 l 1322 879 q 1264 907 1297 907 q 1094 688 1196 907 q 925 168 992 469 l 888 0 z "},"Ò":{"ha":1011,"x_min":83,"x_max":1138,"o":"m 836 1024 q 697 1093 781 1043 q 563 1178 613 1143 l 563 1235 l 569 1239 q 836 1035 693 1103 l 836 1024 m 1138 954 q 1067 753 1138 856 q 883 581 997 650 q 651 513 768 513 q 505 563 561 513 q 449 696 449 614 q 533 907 449 826 q 735 988 618 988 q 910 916 843 988 q 1000 726 976 844 q 1076 889 1076 810 q 1021 1036 1076 979 l 1026 1042 q 1115 1021 1092 1033 q 1138 954 1138 1008 m 494 703 q 540 589 494 631 q 668 547 586 547 q 761 565 710 547 q 633 917 761 917 q 537 856 579 917 q 494 703 494 796 m 760 503 q 905 564 836 521 q 1011 661 974 607 l 1011 621 q 953 374 1011 494 q 806 167 896 253 q 603 30 715 82 q 386 -22 492 -22 q 167 53 251 -22 q 83 281 83 129 q 157 527 83 411 q 332 708 231 643 q 414 599 375 669 q 360 460 379 544 q 340 293 340 376 q 377 104 340 181 q 486 28 414 28 q 670 173 586 28 q 760 503 754 318 z "},"Ó":{"ha":1011,"x_min":83,"x_max":1138,"o":"m 963 1178 q 817 1101 926 1151 q 628 1022 708 1050 l 628 1033 q 957 1239 863 1138 l 963 1235 l 963 1178 m 1138 954 q 1067 753 1138 856 q 883 581 997 650 q 651 513 768 513 q 505 563 561 513 q 449 696 449 614 q 533 907 449 826 q 735 988 618 988 q 910 916 843 988 q 1000 726 976 844 q 1076 889 1076 810 q 1021 1036 1076 979 l 1026 1042 q 1115 1021 1092 1033 q 1138 954 1138 1008 m 494 703 q 540 589 494 631 q 668 547 586 547 q 761 565 710 547 q 633 917 761 917 q 537 856 579 917 q 494 703 494 796 m 760 503 q 905 564 836 521 q 1011 661 974 607 l 1011 621 q 953 374 1011 494 q 806 167 896 253 q 603 30 715 82 q 386 -22 492 -22 q 167 53 251 -22 q 83 281 83 129 q 157 527 83 411 q 332 708 231 643 q 414 599 375 669 q 360 460 379 544 q 340 293 340 376 q 377 104 340 181 q 486 28 414 28 q 670 173 586 28 q 760 503 754 318 z "},"Ô":{"ha":1011,"x_min":83,"x_max":1138,"o":"m 543 1039 l 528 1043 q 560 1063 533 1046 q 596 1088 586 1081 q 630 1111 606 1094 q 669 1140 654 1128 q 704 1168 683 1151 q 742 1202 725 1185 q 776 1238 760 1219 l 813 1238 q 926 1046 833 1171 l 915 1040 q 772 1181 825 1115 q 543 1039 651 1100 m 1138 954 q 1067 753 1138 856 q 883 581 997 650 q 651 513 768 513 q 505 563 561 513 q 449 696 449 614 q 533 907 449 826 q 735 988 618 988 q 910 916 843 988 q 1000 726 976 844 q 1076 889 1076 810 q 1021 1036 1076 979 l 1026 1042 q 1115 1021 1092 1033 q 1138 954 1138 1008 m 494 703 q 540 589 494 631 q 668 547 586 547 q 761 565 710 547 q 633 917 761 917 q 537 856 579 917 q 494 703 494 796 m 760 503 q 905 564 836 521 q 1011 661 974 607 l 1011 621 q 953 374 1011 494 q 806 167 896 253 q 603 30 715 82 q 386 -22 492 -22 q 167 53 251 -22 q 83 281 83 129 q 157 527 83 411 q 332 708 231 643 q 414 599 375 669 q 360 460 379 544 q 340 293 340 376 q 377 104 340 181 q 486 28 414 28 q 670 173 586 28 q 760 503 754 318 z "},"Õ":{"ha":1011,"x_min":83,"x_max":1138,"o":"m 646 1143 q 590 1120 615 1143 q 531 1049 565 1097 l 518 1051 q 671 1175 597 1175 q 756 1128 706 1175 q 840 1081 806 1081 q 896 1103 871 1081 q 956 1175 921 1126 l 968 1172 q 815 1049 892 1049 q 789 1056 803 1049 q 767 1068 775 1063 q 742 1090 760 1074 q 721 1108 725 1106 q 646 1143 681 1143 m 1138 954 q 1067 753 1138 856 q 883 581 997 650 q 651 513 768 513 q 505 563 561 513 q 449 696 449 614 q 533 907 449 826 q 735 988 618 988 q 910 916 843 988 q 1000 726 976 844 q 1076 889 1076 810 q 1021 1036 1076 979 l 1026 1042 q 1115 1021 1092 1033 q 1138 954 1138 1008 m 494 703 q 540 589 494 631 q 668 547 586 547 q 761 565 710 547 q 633 917 761 917 q 537 856 579 917 q 494 703 494 796 m 760 503 q 905 564 836 521 q 1011 661 974 607 l 1011 621 q 953 374 1011 494 q 806 167 896 253 q 603 30 715 82 q 386 -22 492 -22 q 167 53 251 -22 q 83 281 83 129 q 157 527 83 411 q 332 708 231 643 q 414 599 375 669 q 360 460 379 544 q 340 293 340 376 q 377 104 340 181 q 486 28 414 28 q 670 173 586 28 q 760 503 754 318 z "},"Ö":{"ha":1011,"x_min":83,"x_max":1138,"o":"m 604 1043 q 560 1060 578 1043 q 542 1103 542 1076 q 568 1163 542 1140 q 626 1186 594 1186 q 670 1169 653 1186 q 688 1126 688 1151 q 662 1066 688 1089 q 604 1043 636 1043 m 867 1043 q 822 1060 839 1043 q 804 1103 804 1076 q 831 1163 804 1140 q 889 1186 857 1186 q 933 1169 915 1186 q 950 1126 950 1151 q 924 1066 950 1089 q 867 1043 899 1043 m 1138 954 q 1067 753 1138 856 q 883 581 997 650 q 651 513 768 513 q 505 563 561 513 q 449 696 449 614 q 533 907 449 826 q 735 988 618 988 q 910 916 843 988 q 1000 726 976 844 q 1076 889 1076 810 q 1021 1036 1076 979 l 1026 1042 q 1115 1021 1092 1033 q 1138 954 1138 1008 m 494 703 q 540 589 494 631 q 668 547 586 547 q 761 565 710 547 q 633 917 761 917 q 537 856 579 917 q 494 703 494 796 m 760 503 q 905 564 836 521 q 1011 661 974 607 l 1011 621 q 953 374 1011 494 q 806 167 896 253 q 603 30 715 82 q 386 -22 492 -22 q 167 53 251 -22 q 83 281 83 129 q 157 527 83 411 q 332 708 231 643 q 414 599 375 669 q 360 460 379 544 q 340 293 340 376 q 377 104 340 181 q 486 28 414 28 q 670 173 586 28 q 760 503 754 318 z "},"×":{"ha":650,"x_min":78,"x_max":647,"o":"m 493 164 l 464 150 l 364 383 l 106 150 l 78 167 l 350 414 l 250 647 l 279 657 l 375 438 l 618 658 l 647 642 l 388 407 l 493 164 z "},"Ø":{"ha":1026,"x_min":29,"x_max":1126,"o":"m 1050 631 q 967 303 1049 454 q 753 66 886 153 q 469 -21 619 -21 q 164 117 251 -21 q 111 56 126 83 q 85 -18 96 28 q 29 38 28 -12 q 39 53 33 46 q 49 67 44 61 q 62 81 54 74 q 74 94 69 89 q 89 107 79 99 q 103 119 99 115 q 119 132 107 122 q 135 145 131 142 q 153 160 139 149 q 171 174 167 171 l 799 671 q 758 858 792 786 q 661 931 724 931 q 514 849 585 931 q 399 635 443 767 q 356 364 356 503 l 356 353 l 133 176 q 106 315 106 239 q 281 774 106 582 q 686 967 456 967 q 993 829 900 967 q 1044 892 1029 864 q 1071 964 1060 919 q 1126 908 1125 958 q 1112 887 1119 897 q 1093 865 1104 876 q 1075 847 1082 854 q 1053 826 1068 839 q 1031 809 1038 814 q 1007 790 1025 804 q 985 772 989 776 l 358 276 q 398 90 364 163 q 497 15 432 17 q 648 95 576 14 q 760 308 719 176 q 801 582 801 440 l 801 593 l 1022 772 q 1050 631 1050 710 z "},"Ù":{"ha":990,"x_min":157,"x_max":1033,"o":"m 782 1024 q 642 1093 726 1043 q 508 1178 558 1143 l 508 1235 l 515 1239 q 782 1035 639 1103 l 782 1024 m 886 297 q 468 -22 704 -22 q 240 47 318 -22 q 161 226 161 115 q 206 442 161 286 q 296 856 283 751 l 157 931 l 158 946 q 525 967 322 967 l 544 953 q 457 471 528 771 q 392 126 392 192 q 506 21 392 21 q 804 306 692 21 q 871 671 871 474 q 754 926 871 865 l 756 943 q 974 967 869 964 q 1033 835 1033 928 q 994 569 1033 719 q 886 297 954 419 z "},"Ú":{"ha":990,"x_min":157,"x_max":1033,"o":"m 908 1178 q 763 1101 872 1151 q 574 1022 654 1050 l 574 1033 q 903 1239 808 1138 l 908 1235 l 908 1178 m 886 297 q 468 -22 704 -22 q 240 47 318 -22 q 161 226 161 115 q 206 442 161 286 q 296 856 283 751 l 157 931 l 158 946 q 525 967 322 967 l 544 953 q 457 471 528 771 q 392 126 392 192 q 506 21 392 21 q 804 306 692 21 q 871 671 871 474 q 754 926 871 865 l 756 943 q 974 967 869 964 q 1033 835 1033 928 q 994 569 1033 719 q 886 297 954 419 z "},"Û":{"ha":990,"x_min":157,"x_max":1033,"o":"m 489 1039 l 474 1043 q 506 1063 479 1046 q 542 1088 532 1081 q 576 1111 551 1094 q 615 1140 600 1128 q 650 1168 629 1151 q 688 1202 671 1185 q 722 1238 706 1219 l 758 1238 q 872 1046 779 1171 l 861 1040 q 718 1181 771 1115 q 489 1039 597 1100 m 886 297 q 468 -22 704 -22 q 240 47 318 -22 q 161 226 161 115 q 206 442 161 286 q 296 856 283 751 l 157 931 l 158 946 q 525 967 322 967 l 544 953 q 457 471 528 771 q 392 126 392 192 q 506 21 392 21 q 804 306 692 21 q 871 671 871 474 q 754 926 871 865 l 756 943 q 974 967 869 964 q 1033 835 1033 928 q 994 569 1033 719 q 886 297 954 419 z "},"Ü":{"ha":990,"x_min":157,"x_max":1033,"o":"m 550 1043 q 506 1060 524 1043 q 488 1103 488 1076 q 514 1163 488 1140 q 572 1186 540 1186 q 616 1169 599 1186 q 633 1126 633 1151 q 608 1066 633 1089 q 550 1043 582 1043 m 813 1043 q 767 1060 785 1043 q 750 1103 750 1076 q 776 1163 750 1140 q 835 1186 803 1186 q 878 1169 861 1186 q 896 1126 896 1151 q 870 1066 896 1089 q 813 1043 844 1043 m 886 297 q 468 -22 704 -22 q 240 47 318 -22 q 161 226 161 115 q 206 442 161 286 q 296 856 283 751 l 157 931 l 158 946 q 525 967 322 967 l 544 953 q 457 471 528 771 q 392 126 392 192 q 506 21 392 21 q 804 306 692 21 q 871 671 871 474 q 754 926 871 865 l 756 943 q 974 967 869 964 q 1033 835 1033 928 q 994 569 1033 719 q 886 297 954 419 z "},"Ý":{"ha":968,"x_min":118,"x_max":1082,"o":"m 963 1178 q 817 1101 926 1151 q 628 1022 708 1050 l 628 1033 q 957 1239 863 1138 l 963 1235 l 963 1178 m 893 329 q 703 74 835 169 q 414 -22 572 -22 q 215 23 301 -22 q 118 150 128 68 q 205 245 143 199 q 335 322 267 292 q 258 374 286 338 q 231 460 231 411 q 285 661 231 510 q 339 861 335 797 l 203 931 l 204 946 q 372 960 247 953 q 557 967 497 967 l 575 954 q 518 682 575 858 q 463 456 463 513 q 504 413 463 413 q 640 528 557 413 q 794 825 722 644 q 860 967 828 881 q 1075 942 953 965 l 1082 925 q 1001 664 1075 904 q 893 329 928 424 m 324 213 q 367 69 324 129 q 492 10 411 10 q 546 35 519 10 q 597 113 572 61 q 641 215 622 164 q 685 340 660 265 q 792 663 772 611 l 771 661 q 658 486 717 558 q 394 314 525 314 q 378 315 389 314 q 363 315 368 315 q 324 213 324 268 z "},"Þ":{"ha":975,"x_min":-54,"x_max":1010,"o":"m 371 165 q 279 23 340 68 q 122 -22 218 -22 q -54 79 7 -22 l -40 100 q 1 63 -25 79 q 49 47 28 47 q 128 135 97 47 q 311 854 240 449 l 171 929 l 174 946 q 535 967 333 964 l 558 956 q 490 590 551 842 q 775 775 603 775 q 946 724 882 775 q 1010 589 1010 672 q 928 396 1010 476 q 719 276 846 315 q 425 228 592 238 l 419 250 q 669 385 556 276 q 783 606 783 493 q 692 715 783 715 q 564 633 628 715 q 444 408 500 550 q 371 165 388 214 z "},"ß":{"ha":869,"x_min":-40,"x_max":976,"o":"m 240 -339 l 233 -347 q -37 -289 58 -332 q -40 -253 -40 -282 q -10 -86 -40 -199 q 45 103 19 26 q 128 342 71 179 q 294 931 289 807 l 244 1006 l 249 1022 q 521 1043 394 1042 l 538 1031 q 453 721 538 911 l 469 714 q 608 899 531 832 q 799 967 686 967 q 926 926 875 967 q 976 819 976 885 q 946 708 976 760 q 864 619 915 656 q 754 556 813 582 q 632 515 696 531 q 743 358 649 450 q 817 272 796 307 q 838 189 838 236 q 753 33 838 88 q 560 -22 669 -22 q 412 3 483 -22 q 294 75 340 29 l 308 110 q 415 38 351 65 q 528 10 478 10 q 617 42 586 10 q 647 124 647 74 q 582 254 647 192 q 472 453 479 356 q 669 586 578 482 q 761 799 761 690 q 739 864 761 839 q 683 889 717 889 q 467 628 579 889 q 215 -92 239 13 q 193 -212 193 -172 q 240 -339 193 -303 z "},"à":{"ha":857,"x_min":79,"x_max":979,"o":"m 700 829 q 560 899 644 849 q 426 983 476 949 l 426 1040 l 433 1044 q 700 840 557 908 l 700 829 m 979 160 q 815 37 917 96 q 638 -22 713 -22 q 540 10 575 -22 q 506 103 506 43 q 526 195 506 144 q 596 342 546 246 l 553 338 q 497 217 524 268 q 432 105 471 165 q 347 11 393 44 q 253 -22 301 -22 q 126 50 174 -22 q 79 238 79 122 q 176 572 79 436 q 425 708 274 708 q 594 615 536 708 l 581 579 q 460 665 518 665 q 359 541 403 665 q 315 253 315 417 q 367 103 315 103 q 413 138 388 103 q 478 261 438 174 q 650 692 546 400 q 767 653 708 682 q 854 592 825 624 q 781 322 854 546 q 707 56 707 99 q 713 31 707 38 q 975 200 851 74 l 979 196 l 979 160 z "},"á":{"ha":857,"x_min":79,"x_max":979,"o":"m 826 983 q 681 906 790 957 q 492 828 572 856 l 492 839 q 821 1044 726 943 l 826 1040 l 826 983 m 979 160 q 815 37 917 96 q 638 -22 713 -22 q 540 10 575 -22 q 506 103 506 43 q 526 195 506 144 q 596 342 546 246 l 553 338 q 497 217 524 268 q 432 105 471 165 q 347 11 393 44 q 253 -22 301 -22 q 126 50 174 -22 q 79 238 79 122 q 176 572 79 436 q 425 708 274 708 q 594 615 536 708 l 581 579 q 460 665 518 665 q 359 541 403 665 q 315 253 315 417 q 367 103 315 103 q 413 138 388 103 q 478 261 438 174 q 650 692 546 400 q 767 653 708 682 q 854 592 825 624 q 781 322 854 546 q 707 56 707 99 q 713 31 707 38 q 975 200 851 74 l 979 196 l 979 160 z "},"â":{"ha":857,"x_min":79,"x_max":979,"o":"m 407 844 l 392 849 q 424 869 397 851 q 460 893 450 886 q 494 917 469 900 q 533 945 518 933 q 568 974 547 957 q 606 1008 589 990 q 640 1043 624 1025 l 676 1043 q 790 851 697 976 l 779 846 q 636 986 689 921 q 407 844 515 906 m 979 160 q 815 37 917 96 q 638 -22 713 -22 q 540 10 575 -22 q 506 103 506 43 q 526 195 506 144 q 596 342 546 246 l 553 338 q 497 217 524 268 q 432 105 471 165 q 347 11 393 44 q 253 -22 301 -22 q 126 50 174 -22 q 79 238 79 122 q 176 572 79 436 q 425 708 274 708 q 594 615 536 708 l 581 579 q 460 665 518 665 q 359 541 403 665 q 315 253 315 417 q 367 103 315 103 q 413 138 388 103 q 478 261 438 174 q 650 692 546 400 q 767 653 708 682 q 854 592 825 624 q 781 322 854 546 q 707 56 707 99 q 713 31 707 38 q 975 200 851 74 l 979 196 l 979 160 z "},"ã":{"ha":857,"x_min":79,"x_max":979,"o":"m 510 949 q 454 926 479 949 q 394 854 429 903 l 382 857 q 535 981 461 981 q 619 933 569 981 q 704 886 669 886 q 760 909 735 886 q 819 981 785 932 l 832 978 q 679 854 756 854 q 653 861 667 854 q 631 874 639 868 q 606 895 624 879 q 585 914 589 911 q 510 949 544 949 m 979 160 q 815 37 917 96 q 638 -22 713 -22 q 540 10 575 -22 q 506 103 506 43 q 526 195 506 144 q 596 342 546 246 l 553 338 q 497 217 524 268 q 432 105 471 165 q 347 11 393 44 q 253 -22 301 -22 q 126 50 174 -22 q 79 238 79 122 q 176 572 79 436 q 425 708 274 708 q 594 615 536 708 l 581 579 q 460 665 518 665 q 359 541 403 665 q 315 253 315 417 q 367 103 315 103 q 413 138 388 103 q 478 261 438 174 q 650 692 546 400 q 767 653 708 682 q 854 592 825 624 q 781 322 854 546 q 707 56 707 99 q 713 31 707 38 q 975 200 851 74 l 979 196 l 979 160 z "},"ä":{"ha":857,"x_min":79,"x_max":979,"o":"m 468 849 q 424 865 442 849 q 406 908 406 882 q 432 969 406 946 q 490 992 458 992 q 534 974 517 992 q 551 932 551 957 q 526 872 551 894 q 468 849 500 849 m 731 849 q 685 865 703 849 q 668 908 668 882 q 694 969 668 946 q 753 992 721 992 q 797 974 779 992 q 814 932 814 957 q 788 872 814 894 q 731 849 763 849 m 979 160 q 815 37 917 96 q 638 -22 713 -22 q 540 10 575 -22 q 506 103 506 43 q 526 195 506 144 q 596 342 546 246 l 553 338 q 497 217 524 268 q 432 105 471 165 q 347 11 393 44 q 253 -22 301 -22 q 126 50 174 -22 q 79 238 79 122 q 176 572 79 436 q 425 708 274 708 q 594 615 536 708 l 581 579 q 460 665 518 665 q 359 541 403 665 q 315 253 315 417 q 367 103 315 103 q 413 138 388 103 q 478 261 438 174 q 650 692 546 400 q 767 653 708 682 q 854 592 825 624 q 781 322 854 546 q 707 56 707 99 q 713 31 707 38 q 975 200 851 74 l 979 196 l 979 160 z "},"å":{"ha":857,"x_min":79,"x_max":979,"o":"m 603 813 q 517 842 547 813 q 486 918 486 871 q 535 1026 486 986 q 650 1067 585 1067 q 734 1038 704 1067 q 764 964 764 1010 q 716 853 764 894 q 603 813 668 813 m 607 850 q 708 880 665 850 q 751 960 751 910 q 724 1010 751 990 q 644 1029 696 1029 q 542 1000 586 1029 q 499 921 499 971 q 527 869 499 889 q 607 850 556 850 m 979 160 q 815 37 917 96 q 638 -22 713 -22 q 540 10 575 -22 q 506 103 506 43 q 526 195 506 144 q 596 342 546 246 l 553 338 q 497 217 524 268 q 432 105 471 165 q 347 11 393 44 q 253 -22 301 -22 q 126 50 174 -22 q 79 238 79 122 q 176 572 79 436 q 425 708 274 708 q 594 615 536 708 l 581 579 q 460 665 518 665 q 359 541 403 665 q 315 253 315 417 q 367 103 315 103 q 413 138 388 103 q 478 261 438 174 q 650 692 546 400 q 767 653 708 682 q 854 592 825 624 q 781 322 854 546 q 707 56 707 99 q 713 31 707 38 q 975 200 851 74 l 979 196 l 979 160 z "},"æ":{"ha":1122,"x_min":79,"x_max":1239,"o":"m 1239 204 q 1010 38 1138 100 q 764 -24 882 -24 q 580 42 647 -24 q 513 225 513 108 l 513 236 l 506 236 q 381 37 439 96 q 251 -22 322 -22 q 126 49 174 -22 q 79 238 79 121 q 177 574 79 440 q 425 708 275 708 q 533 678 479 708 q 617 603 586 649 l 603 567 q 530 638 569 611 q 458 665 490 665 q 358 541 401 665 q 314 253 314 417 q 365 103 314 103 q 489 282 410 103 l 546 413 q 711 632 607 556 q 947 708 815 708 q 1102 670 1049 708 q 1156 564 1156 632 q 1054 406 1156 478 q 776 300 953 333 l 768 318 q 919 447 864 367 q 975 604 975 526 q 931 667 975 667 q 803 542 858 667 q 747 263 747 418 q 786 119 747 171 q 896 67 825 67 q 1233 242 1078 67 l 1239 239 l 1239 204 z "},"ç":{"ha":675,"x_min":78,"x_max":807,"o":"m 314 253 q 353 118 314 169 q 463 67 392 67 q 639 113 550 67 q 800 242 728 160 l 806 239 l 807 204 q 583 40 711 103 q 333 -22 454 -22 q 145 47 213 -22 q 78 238 78 115 q 206 565 78 422 q 514 708 333 708 q 664 675 610 708 q 718 575 718 642 q 692 494 718 531 q 475 419 600 444 l 468 431 q 544 610 544 525 q 497 667 544 667 q 369 540 425 667 q 314 253 314 414 m 313 -93 l 311 -87 l 328 -83 q 415 -113 381 -86 q 450 -189 450 -140 q 381 -301 450 -257 q 213 -347 313 -346 l 199 -336 l 199 -332 q 339 -294 283 -332 q 394 -194 394 -256 q 313 -93 394 -112 z "},"è":{"ha":692,"x_min":79,"x_max":817,"o":"m 635 829 q 495 899 579 849 q 361 983 411 949 l 361 1040 l 368 1044 q 635 840 492 908 l 635 829 m 499 667 q 371 542 426 667 q 315 263 315 417 q 356 119 315 172 q 474 67 396 67 q 650 113 561 67 q 811 242 739 160 l 817 239 l 817 204 q 592 40 721 103 q 343 -22 464 -22 q 147 46 215 -22 q 79 238 79 114 q 207 565 79 422 q 515 708 335 708 q 669 671 614 708 q 724 564 724 633 q 615 401 724 474 q 344 300 507 328 l 336 318 q 483 444 422 363 q 543 604 543 525 q 499 667 543 667 z "},"é":{"ha":692,"x_min":79,"x_max":817,"o":"m 761 983 q 616 906 725 957 q 426 828 507 856 l 426 839 q 756 1044 661 943 l 761 1040 l 761 983 m 499 667 q 371 542 426 667 q 315 263 315 417 q 356 119 315 172 q 474 67 396 67 q 650 113 561 67 q 811 242 739 160 l 817 239 l 817 204 q 592 40 721 103 q 343 -22 464 -22 q 147 46 215 -22 q 79 238 79 114 q 207 565 79 422 q 515 708 335 708 q 669 671 614 708 q 724 564 724 633 q 615 401 724 474 q 344 300 507 328 l 336 318 q 483 444 422 363 q 543 604 543 525 q 499 667 543 667 z "},"ê":{"ha":692,"x_min":79,"x_max":817,"o":"m 342 844 l 326 849 q 358 869 332 851 q 394 893 385 886 q 428 917 404 900 q 467 945 453 933 q 503 974 482 957 q 541 1008 524 990 q 575 1043 558 1025 l 611 1043 q 725 851 632 976 l 714 846 q 571 986 624 921 q 342 844 450 906 m 499 667 q 371 542 426 667 q 315 263 315 417 q 356 119 315 172 q 474 67 396 67 q 650 113 561 67 q 811 242 739 160 l 817 239 l 817 204 q 592 40 721 103 q 343 -22 464 -22 q 147 46 215 -22 q 79 238 79 114 q 207 565 79 422 q 515 708 335 708 q 669 671 614 708 q 724 564 724 633 q 615 401 724 474 q 344 300 507 328 l 336 318 q 483 444 422 363 q 543 604 543 525 q 499 667 543 667 z "},"ë":{"ha":692,"x_min":79,"x_max":817,"o":"m 403 849 q 358 865 376 849 q 340 908 340 882 q 367 969 340 946 q 425 992 393 992 q 469 974 451 992 q 486 932 486 957 q 460 872 486 894 q 403 849 435 849 m 665 849 q 620 865 638 849 q 603 908 603 882 q 629 969 603 946 q 688 992 656 992 q 731 974 714 992 q 749 932 749 957 q 723 872 749 894 q 665 849 697 849 m 499 667 q 371 542 426 667 q 315 263 315 417 q 356 119 315 172 q 474 67 396 67 q 650 113 561 67 q 811 242 739 160 l 817 239 l 817 204 q 592 40 721 103 q 343 -22 464 -22 q 147 46 215 -22 q 79 238 79 114 q 207 565 79 422 q 515 708 335 708 q 669 671 614 708 q 724 564 724 633 q 615 401 724 474 q 344 300 507 328 l 336 318 q 483 444 422 363 q 543 604 543 525 q 499 667 543 667 z "},"ì":{"ha":418,"x_min":61,"x_max":522,"o":"m 429 829 q 290 899 374 849 q 156 983 206 949 l 156 1040 l 163 1044 q 429 840 286 908 l 429 829 m 522 150 q 372 31 458 83 q 210 -22 285 -22 q 102 13 143 -22 q 61 113 61 49 q 113 332 61 169 q 183 604 168 501 l 132 671 l 135 688 q 408 708 281 706 l 425 696 q 368 396 425 592 q 331 278 357 358 q 291 147 304 197 q 278 65 278 97 q 285 31 278 40 q 402 91 335 44 q 517 188 469 138 l 522 183 l 522 150 z "},"í":{"ha":418,"x_min":61,"x_max":556,"o":"m 556 983 q 410 906 519 957 q 221 828 301 856 l 221 839 q 550 1044 456 943 l 556 1040 l 556 983 m 522 150 q 372 31 458 83 q 210 -22 285 -22 q 102 13 143 -22 q 61 113 61 49 q 113 332 61 169 q 183 604 168 501 l 132 671 l 135 688 q 408 708 281 706 l 425 696 q 368 396 425 592 q 331 278 357 358 q 291 147 304 197 q 278 65 278 97 q 285 31 278 40 q 402 91 335 44 q 517 188 469 138 l 522 183 l 522 150 z "},"î":{"ha":418,"x_min":61,"x_max":522,"o":"m 135 844 l 119 849 q 151 869 125 851 q 188 893 178 886 q 222 917 197 900 q 260 945 246 933 q 296 974 275 957 q 334 1008 317 990 q 368 1043 351 1025 l 404 1043 q 518 851 425 976 l 507 846 q 364 986 417 921 q 135 844 243 906 m 522 150 q 372 31 458 83 q 210 -22 285 -22 q 102 13 143 -22 q 61 113 61 49 q 113 332 61 169 q 183 604 168 501 l 132 671 l 135 688 q 408 708 281 706 l 425 696 q 368 396 425 592 q 331 278 357 358 q 291 147 304 197 q 278 65 278 97 q 285 31 278 40 q 402 91 335 44 q 517 188 469 138 l 522 183 l 522 150 z "},"ï":{"ha":418,"x_min":61,"x_max":543,"o":"m 197 849 q 153 865 171 849 q 135 908 135 882 q 161 969 135 946 q 219 992 188 992 q 263 974 246 992 q 281 932 281 957 q 255 872 281 894 q 197 849 229 849 m 460 849 q 415 865 432 849 q 397 908 397 882 q 424 969 397 946 q 482 992 450 992 q 526 974 508 992 q 543 932 543 957 q 517 872 543 894 q 460 849 492 849 m 522 150 q 372 31 458 83 q 210 -22 285 -22 q 102 13 143 -22 q 61 113 61 49 q 113 332 61 169 q 183 604 168 501 l 132 671 l 135 688 q 408 708 281 706 l 425 696 q 368 396 425 592 q 331 278 357 358 q 291 147 304 197 q 278 65 278 97 q 285 31 278 40 q 402 91 335 44 q 517 188 469 138 l 522 183 l 522 150 z "},"ð":{"ha":832,"x_min":78,"x_max":808,"o":"m 808 460 q 677 122 808 267 q 356 -22 546 -22 q 151 47 225 -22 q 78 238 78 115 q 204 560 78 421 q 531 708 331 699 l 551 667 l 524 667 q 363 535 422 667 q 303 204 303 403 q 406 18 303 18 q 503 108 460 18 q 565 315 546 199 q 585 535 585 431 q 522 917 585 753 l 358 850 l 358 883 l 511 946 q 472 1026 497 986 l 496 1040 q 582 975 542 1011 l 749 1042 l 749 1008 l 607 951 q 808 460 808 754 z "},"ñ":{"ha":899,"x_min":18,"x_max":1003,"o":"m 510 949 q 454 926 479 949 q 394 854 429 903 l 382 857 q 535 981 461 981 q 619 933 569 981 q 704 886 669 886 q 760 909 735 886 q 819 981 785 932 l 832 978 q 679 854 756 854 q 653 861 667 854 q 631 874 639 868 q 606 895 624 879 q 585 914 589 911 q 510 949 544 949 m 1003 160 q 840 37 942 96 q 661 -22 738 -22 q 529 106 529 -22 q 594 346 529 167 q 661 569 661 532 q 625 610 661 610 q 483 472 574 610 q 228 -22 375 300 q 115 -6 181 -21 q 18 26 49 8 q 117 315 63 129 q 182 606 172 500 l 131 671 l 135 688 q 407 708 263 708 l 425 696 q 292 247 425 528 l 311 238 q 457 499 411 432 q 744 708 599 708 q 856 670 817 708 q 896 569 896 632 q 818 310 896 513 q 742 63 742 114 q 747 36 742 43 q 999 199 876 76 l 1003 196 l 1003 160 z "},"ò":{"ha":781,"x_min":46,"x_max":1006,"o":"m 638 829 q 498 899 582 849 q 364 983 414 949 l 364 1040 l 371 1044 q 638 840 494 908 l 638 829 m 1006 497 q 759 372 894 421 q 506 324 624 324 q 356 368 413 324 q 299 500 299 413 q 363 690 299 615 q 532 765 428 765 q 700 681 636 765 q 764 461 764 597 q 761 401 764 438 q 999 532 890 447 l 1006 528 l 1006 497 m 343 518 q 519 354 343 354 q 543 356 535 354 q 544 414 544 375 q 522 622 544 540 q 454 703 499 703 q 378 649 413 703 q 343 518 343 594 m 538 299 q 750 346 671 311 q 565 85 700 193 q 272 -22 431 -22 q 106 39 167 -22 q 46 196 46 100 q 94 369 46 289 q 215 493 143 449 q 314 376 274 428 q 279 225 279 304 q 378 32 279 32 q 538 299 496 32 z "},"ó":{"ha":781,"x_min":46,"x_max":1006,"o":"m 764 983 q 619 906 728 957 q 429 828 510 856 l 429 839 q 758 1044 664 943 l 764 1040 l 764 983 m 1006 497 q 759 372 894 421 q 506 324 624 324 q 356 368 413 324 q 299 500 299 413 q 363 690 299 615 q 532 765 428 765 q 700 681 636 765 q 764 461 764 597 q 761 401 764 438 q 999 532 890 447 l 1006 528 l 1006 497 m 343 518 q 519 354 343 354 q 543 356 535 354 q 544 414 544 375 q 522 622 544 540 q 454 703 499 703 q 378 649 413 703 q 343 518 343 594 m 538 299 q 750 346 671 311 q 565 85 700 193 q 272 -22 431 -22 q 106 39 167 -22 q 46 196 46 100 q 94 369 46 289 q 215 493 143 449 q 314 376 274 428 q 279 225 279 304 q 378 32 279 32 q 538 299 496 32 z "},"ô":{"ha":781,"x_min":46,"x_max":1006,"o":"m 344 844 l 329 849 q 361 869 335 851 q 397 893 388 886 q 431 917 407 900 q 470 945 456 933 q 506 974 485 957 q 544 1008 526 990 q 578 1043 561 1025 l 614 1043 q 728 851 635 976 l 717 846 q 574 986 626 921 q 344 844 453 906 m 1006 497 q 759 372 894 421 q 506 324 624 324 q 356 368 413 324 q 299 500 299 413 q 363 690 299 615 q 532 765 428 765 q 700 681 636 765 q 764 461 764 597 q 761 401 764 438 q 999 532 890 447 l 1006 528 l 1006 497 m 343 518 q 519 354 343 354 q 543 356 535 354 q 544 414 544 375 q 522 622 544 540 q 454 703 499 703 q 378 649 413 703 q 343 518 343 594 m 538 299 q 750 346 671 311 q 565 85 700 193 q 272 -22 431 -22 q 106 39 167 -22 q 46 196 46 100 q 94 369 46 289 q 215 493 143 449 q 314 376 274 428 q 279 225 279 304 q 378 32 279 32 q 538 299 496 32 z "},"õ":{"ha":781,"x_min":46,"x_max":1006,"o":"m 447 949 q 392 926 417 949 q 332 854 367 903 l 319 857 q 472 981 399 981 q 557 933 507 981 q 642 886 607 886 q 697 909 672 886 q 757 981 722 932 l 769 978 q 617 854 693 854 q 590 861 604 854 q 569 874 576 868 q 544 895 561 879 q 522 914 526 911 q 447 949 482 949 m 1006 497 q 759 372 894 421 q 506 324 624 324 q 356 368 413 324 q 299 500 299 413 q 363 690 299 615 q 532 765 428 765 q 700 681 636 765 q 764 461 764 597 q 761 401 764 438 q 999 532 890 447 l 1006 528 l 1006 497 m 343 518 q 519 354 343 354 q 543 356 535 354 q 544 414 544 375 q 522 622 544 540 q 454 703 499 703 q 378 649 413 703 q 343 518 343 594 m 538 299 q 750 346 671 311 q 565 85 700 193 q 272 -22 431 -22 q 106 39 167 -22 q 46 196 46 100 q 94 369 46 289 q 215 493 143 449 q 314 376 274 428 q 279 225 279 304 q 378 32 279 32 q 538 299 496 32 z "},"ö":{"ha":781,"x_min":46,"x_max":1006,"o":"m 406 849 q 361 865 379 849 q 343 908 343 882 q 369 969 343 946 q 428 992 396 992 q 472 974 454 992 q 489 932 489 957 q 463 872 489 894 q 406 849 438 849 m 668 849 q 623 865 640 849 q 606 908 606 882 q 632 969 606 946 q 690 992 658 992 q 734 974 717 992 q 751 932 751 957 q 726 872 751 894 q 668 849 700 849 m 1006 497 q 759 372 894 421 q 506 324 624 324 q 356 368 413 324 q 299 500 299 413 q 363 690 299 615 q 532 765 428 765 q 700 681 636 765 q 764 461 764 597 q 761 401 764 438 q 999 532 890 447 l 1006 528 l 1006 497 m 343 518 q 519 354 343 354 q 543 356 535 354 q 544 414 544 375 q 522 622 544 540 q 454 703 499 703 q 378 649 413 703 q 343 518 343 594 m 538 299 q 750 346 671 311 q 565 85 700 193 q 272 -22 431 -22 q 106 39 167 -22 q 46 196 46 100 q 94 369 46 289 q 215 493 143 449 q 314 376 274 428 q 279 225 279 304 q 378 32 279 32 q 538 299 496 32 z "},"÷":{"ha":725,"x_min":153,"x_max":686,"o":"m 471 653 q 426 667 443 653 q 408 704 408 682 q 434 756 408 736 q 492 775 460 775 q 537 761 519 775 q 554 725 554 747 q 528 673 554 693 q 471 653 503 653 m 153 415 l 167 447 l 686 447 l 672 415 l 153 415 m 346 86 q 301 101 318 86 q 283 138 283 115 q 309 189 283 169 q 367 208 335 208 q 412 194 394 208 q 429 158 429 181 q 403 106 429 126 q 346 86 378 86 z "},"ø":{"ha":825,"x_min":-14,"x_max":896,"o":"m 806 449 q 674 120 806 263 q 351 -22 542 -22 q 104 110 167 -22 q 72 70 85 93 q 55 32 60 47 q 42 -19 50 17 q -14 36 -12 -14 q 128 171 28 110 l 579 453 q 486 667 575 667 q 367 563 417 667 q 306 304 317 460 l 85 171 q 78 238 78 197 q 210 566 78 424 q 532 708 342 708 q 779 576 714 708 q 811 617 799 594 q 828 656 824 640 q 840 707 832 671 q 896 651 894 701 q 754 515 856 581 l 303 235 q 328 72 306 126 q 397 18 350 18 q 515 123 465 18 q 576 381 565 228 l 799 518 q 806 449 806 483 z "},"ù":{"ha":871,"x_min":64,"x_max":993,"o":"m 664 829 q 524 899 608 849 q 390 983 440 949 l 390 1040 l 397 1044 q 664 840 521 908 l 664 829 m 993 150 q 835 33 932 88 q 661 -22 738 -22 q 565 10 599 -22 q 531 103 531 43 q 625 407 531 199 l 601 414 q 547 308 557 326 q 496 210 517 249 q 441 122 475 171 q 376 45 407 74 q 301 -3 344 17 q 211 -22 258 -22 q 103 17 142 -22 q 64 121 64 57 q 133 361 64 172 q 203 614 203 550 q 179 643 203 643 q 106 619 149 643 l 103 622 l 108 654 q 290 708 217 708 q 389 675 356 708 q 422 581 422 642 q 360 344 422 526 q 299 119 299 164 q 335 76 299 76 q 475 232 386 76 q 686 708 568 396 q 801 678 743 703 q 885 628 858 654 q 807 358 882 588 q 732 56 732 129 q 738 31 732 38 q 989 190 875 74 l 993 186 l 993 150 z "},"ú":{"ha":871,"x_min":64,"x_max":993,"o":"m 790 983 q 645 906 754 957 q 456 828 536 856 l 456 839 q 785 1044 690 943 l 790 1040 l 790 983 m 993 150 q 835 33 932 88 q 661 -22 738 -22 q 565 10 599 -22 q 531 103 531 43 q 625 407 531 199 l 601 414 q 547 308 557 326 q 496 210 517 249 q 441 122 475 171 q 376 45 407 74 q 301 -3 344 17 q 211 -22 258 -22 q 103 17 142 -22 q 64 121 64 57 q 133 361 64 172 q 203 614 203 550 q 179 643 203 643 q 106 619 149 643 l 103 622 l 108 654 q 290 708 217 708 q 389 675 356 708 q 422 581 422 642 q 360 344 422 526 q 299 119 299 164 q 335 76 299 76 q 475 232 386 76 q 686 708 568 396 q 801 678 743 703 q 885 628 858 654 q 807 358 882 588 q 732 56 732 129 q 738 31 732 38 q 989 190 875 74 l 993 186 l 993 150 z "},"û":{"ha":871,"x_min":64,"x_max":993,"o":"m 371 844 l 356 849 q 388 869 361 851 q 424 893 414 886 q 458 917 433 900 q 497 945 482 933 q 532 974 511 957 q 570 1008 553 990 q 604 1043 588 1025 l 640 1043 q 754 851 661 976 l 743 846 q 600 986 653 921 q 371 844 479 906 m 993 150 q 835 33 932 88 q 661 -22 738 -22 q 565 10 599 -22 q 531 103 531 43 q 625 407 531 199 l 601 414 q 547 308 557 326 q 496 210 517 249 q 441 122 475 171 q 376 45 407 74 q 301 -3 344 17 q 211 -22 258 -22 q 103 17 142 -22 q 64 121 64 57 q 133 361 64 172 q 203 614 203 550 q 179 643 203 643 q 106 619 149 643 l 103 622 l 108 654 q 290 708 217 708 q 389 675 356 708 q 422 581 422 642 q 360 344 422 526 q 299 119 299 164 q 335 76 299 76 q 475 232 386 76 q 686 708 568 396 q 801 678 743 703 q 885 628 858 654 q 807 358 882 588 q 732 56 732 129 q 738 31 732 38 q 989 190 875 74 l 993 186 l 993 150 z "},"ü":{"ha":871,"x_min":64,"x_max":993,"o":"m 432 849 q 388 865 406 849 q 369 908 369 882 q 396 969 369 946 q 454 992 422 992 q 498 974 481 992 q 515 932 515 957 q 490 872 515 894 q 432 849 464 849 m 694 849 q 649 865 667 849 q 632 908 632 882 q 658 969 632 946 q 717 992 685 992 q 760 974 743 992 q 778 932 778 957 q 752 872 778 894 q 694 849 726 849 m 993 150 q 835 33 932 88 q 661 -22 738 -22 q 565 10 599 -22 q 531 103 531 43 q 625 407 531 199 l 601 414 q 547 308 557 326 q 496 210 517 249 q 441 122 475 171 q 376 45 407 74 q 301 -3 344 17 q 211 -22 258 -22 q 103 17 142 -22 q 64 121 64 57 q 133 361 64 172 q 203 614 203 550 q 179 643 203 643 q 106 619 149 643 l 103 622 l 108 654 q 290 708 217 708 q 389 675 356 708 q 422 581 422 642 q 360 344 422 526 q 299 119 299 164 q 335 76 299 76 q 475 232 386 76 q 686 708 568 396 q 801 678 743 703 q 885 628 858 654 q 807 358 882 588 q 732 56 732 129 q 738 31 732 38 q 989 190 875 74 l 993 186 l 993 150 z "},"ý":{"ha":829,"x_min":-50,"x_max":865,"o":"m 804 983 q 659 906 768 957 q 469 828 550 856 l 469 839 q 799 1044 704 943 l 804 1040 l 804 983 m 679 18 q 494 -249 615 -150 q 225 -347 374 -347 q 41 -301 122 -347 q -50 -171 -40 -256 q 38 -58 -22 -117 q 157 28 99 0 q 64 163 64 57 q 138 394 64 217 q 206 614 206 556 q 182 644 206 644 q 126 629 151 644 l 124 632 l 129 661 q 292 708 207 708 q 424 582 424 708 q 365 374 424 529 q 299 163 299 207 q 335 118 299 118 q 465 250 385 118 q 661 699 565 419 q 778 660 719 686 q 865 597 838 633 q 835 497 861 583 q 784 334 808 411 q 729 164 760 257 q 679 18 699 71 m 147 -92 q 195 -240 147 -175 q 319 -304 243 -304 q 387 -235 354 -304 q 463 -37 419 -167 q 501 92 476 10 q 544 238 525 175 q 578 343 563 300 l 553 339 q 493 235 519 276 q 215 19 358 19 q 185 22 204 19 q 147 -92 147 -36 z "},"þ":{"ha":825,"x_min":-33,"x_max":815,"o":"m 815 457 q 701 118 815 258 q 414 -22 588 -22 q 244 6 328 -22 q 199 -212 199 -135 q 246 -339 199 -303 l 239 -347 q -31 -289 65 -332 q -33 -261 -33 -275 q -3 -44 -33 -167 q 81 248 26 79 q 151 481 135 417 q 253 931 233 783 l 203 1004 l 206 1022 q 478 1042 354 1042 l 496 1031 q 428 694 493 921 q 281 289 363 467 l 304 288 q 350 394 319 325 q 642 708 497 708 q 768 640 721 708 q 815 457 815 571 m 524 583 q 358 325 476 583 q 265 72 311 217 q 393 10 322 10 q 486 72 443 10 q 554 233 529 133 q 579 442 579 332 q 524 583 579 583 z "},"ÿ":{"ha":829,"x_min":-50,"x_max":865,"o":"m 446 849 q 401 865 419 849 q 383 908 383 882 q 410 969 383 946 q 468 992 436 992 q 512 974 494 992 q 529 932 529 957 q 503 872 529 894 q 446 849 478 849 m 708 849 q 663 865 681 849 q 646 908 646 882 q 672 969 646 946 q 731 992 699 992 q 774 974 757 992 q 792 932 792 957 q 766 872 792 894 q 708 849 740 849 m 679 18 q 494 -249 615 -150 q 225 -347 374 -347 q 41 -301 122 -347 q -50 -171 -40 -256 q 38 -58 -22 -117 q 157 28 99 0 q 64 163 64 57 q 138 394 64 217 q 206 614 206 556 q 182 644 206 644 q 126 629 151 644 l 124 632 l 129 661 q 292 708 207 708 q 424 582 424 708 q 365 374 424 529 q 299 163 299 207 q 335 118 299 118 q 465 250 385 118 q 661 699 565 419 q 778 660 719 686 q 865 597 838 633 q 835 497 861 583 q 784 334 808 411 q 729 164 760 257 q 679 18 699 71 m 147 -92 q 195 -240 147 -175 q 319 -304 243 -304 q 387 -235 354 -304 q 463 -37 419 -167 q 501 92 476 10 q 544 238 525 175 q 578 343 563 300 l 553 339 q 493 235 519 276 q 215 19 358 19 q 185 22 204 19 q 147 -92 147 -36 z "},"Ā":{"ha":1054,"x_min":-140,"x_max":1051,"o":"m 638 1097 l 650 1129 l 1010 1129 l 997 1097 l 638 1097 m 464 376 q 158 389 250 376 q 135 469 135 425 l 140 474 q 378 417 207 426 q 640 824 513 589 l 486 928 l 489 947 q 742 940 614 940 q 993 946 922 940 l 1004 929 q 921 190 921 608 q 983 51 921 51 q 1047 82 1022 51 l 1051 81 l 1047 50 q 850 -22 985 -22 q 681 174 681 -22 q 690 381 681 242 q 464 376 586 376 m 476 415 q 693 422 606 415 q 754 889 715 681 l 718 889 q 476 415 568 582 m 329 357 l 444 357 q 236 67 332 156 q 13 -22 140 -22 q -140 71 -108 -22 l -126 90 q -72 61 -104 61 q 99 133 -6 61 q 329 357 203 206 z "},"ā":{"ha":857,"x_min":79,"x_max":979,"o":"m 421 903 l 433 935 l 793 935 l 781 903 l 421 903 m 979 160 q 815 37 917 96 q 638 -22 713 -22 q 540 10 575 -22 q 506 103 506 43 q 526 195 506 144 q 596 342 546 246 l 553 338 q 497 217 524 268 q 432 105 471 165 q 347 11 393 44 q 253 -22 301 -22 q 126 50 174 -22 q 79 238 79 122 q 176 572 79 436 q 425 708 274 708 q 594 615 536 708 l 581 579 q 460 665 518 665 q 359 541 403 665 q 315 253 315 417 q 367 103 315 103 q 413 138 388 103 q 478 261 438 174 q 650 692 546 400 q 767 653 708 682 q 854 592 825 624 q 781 322 854 546 q 707 56 707 99 q 713 31 707 38 q 975 200 851 74 l 979 196 l 979 160 z "},"Ă":{"ha":1054,"x_min":-140,"x_max":1069,"o":"m 1056 1214 l 1069 1206 q 946 1088 1018 1138 q 794 1038 874 1038 q 658 1204 669 1038 l 669 1210 q 711 1115 681 1147 q 807 1083 742 1083 q 1056 1214 939 1083 m 464 376 q 158 389 250 376 q 135 469 135 425 l 140 474 q 378 417 207 426 q 640 824 513 589 l 486 928 l 489 947 q 742 940 614 940 q 993 946 922 940 l 1004 929 q 921 190 921 608 q 983 51 921 51 q 1047 82 1022 51 l 1051 81 l 1047 50 q 850 -22 985 -22 q 681 174 681 -22 q 690 381 681 242 q 464 376 586 376 m 476 415 q 693 422 606 415 q 754 889 715 681 l 718 889 q 476 415 568 582 m 329 357 l 444 357 q 236 67 332 156 q 13 -22 140 -22 q -140 71 -108 -22 l -126 90 q -72 61 -104 61 q 99 133 -6 61 q 329 357 203 206 z "},"ă":{"ha":857,"x_min":79,"x_max":979,"o":"m 839 1019 l 853 1011 q 729 893 801 943 q 578 843 657 843 q 442 1010 453 843 l 453 1015 q 494 921 464 953 q 590 889 525 889 q 839 1019 722 889 m 979 160 q 815 37 917 96 q 638 -22 713 -22 q 540 10 575 -22 q 506 103 506 43 q 526 195 506 144 q 596 342 546 246 l 553 338 q 497 217 524 268 q 432 105 471 165 q 347 11 393 44 q 253 -22 301 -22 q 126 50 174 -22 q 79 238 79 122 q 176 572 79 436 q 425 708 274 708 q 594 615 536 708 l 581 579 q 460 665 518 665 q 359 541 403 665 q 315 253 315 417 q 367 103 315 103 q 413 138 388 103 q 478 261 438 174 q 650 692 546 400 q 767 653 708 682 q 854 592 825 624 q 781 322 854 546 q 707 56 707 99 q 713 31 707 38 q 975 200 851 74 l 979 196 l 979 160 z "},"Ą":{"ha":1054,"x_min":-140,"x_max":1051,"o":"m 931 -329 q 853 -347 894 -347 q 775 -322 804 -347 q 746 -254 746 -297 q 946 -10 746 -140 q 850 -22 903 -22 q 681 174 681 -22 q 690 381 681 242 q 464 376 586 376 q 158 389 250 376 q 135 469 135 425 l 140 474 q 378 417 207 426 q 640 824 513 589 l 486 928 l 489 947 q 742 940 614 940 q 993 946 922 940 l 1004 929 q 921 190 921 608 q 983 51 921 51 q 1047 82 1022 51 l 1051 81 l 1047 50 q 988 1 1032 33 q 807 -221 807 -125 q 828 -278 807 -257 q 889 -300 850 -300 q 946 -289 919 -300 l 949 -293 l 931 -329 m 476 415 q 693 422 606 415 q 754 889 715 681 l 718 889 q 476 415 568 582 m 329 357 l 444 357 q 236 67 332 156 q 13 -22 140 -22 q -140 71 -108 -22 l -126 90 q -72 61 -104 61 q 99 133 -6 61 q 329 357 203 206 z "},"ą":{"ha":857,"x_min":79,"x_max":979,"o":"m 710 -329 q 632 -347 674 -347 q 554 -322 583 -347 q 525 -254 525 -297 q 726 -4 525 -143 q 638 -22 675 -22 q 540 10 575 -22 q 506 103 506 43 q 526 195 506 144 q 596 342 546 246 l 553 338 q 497 217 524 268 q 432 105 471 165 q 347 11 393 44 q 253 -22 301 -22 q 126 50 174 -22 q 79 238 79 122 q 176 572 79 436 q 425 708 274 708 q 594 615 536 708 l 581 579 q 460 665 518 665 q 359 541 403 665 q 315 253 315 417 q 367 103 315 103 q 413 138 388 103 q 478 261 438 174 q 650 692 546 400 q 767 653 708 682 q 854 592 825 624 q 781 322 854 546 q 707 56 707 99 q 713 31 707 38 q 975 200 851 74 l 979 196 l 979 160 q 794 18 910 90 q 586 -221 586 -110 q 608 -278 586 -257 q 668 -300 629 -300 q 725 -289 699 -300 l 728 -293 l 710 -329 z "},"Ć":{"ha":894,"x_min":125,"x_max":1001,"o":"m 1001 1178 q 856 1101 965 1151 q 667 1022 747 1050 l 667 1033 q 996 1239 901 1138 l 1001 1235 l 1001 1178 m 832 217 l 842 217 l 842 179 q 677 34 785 90 q 436 -22 569 -22 q 208 63 292 -22 q 125 310 125 149 q 203 633 125 482 q 420 875 282 783 q 721 967 558 967 q 981 810 981 967 q 963 737 981 775 q 918 676 944 699 q 721 624 843 647 l 717 640 q 792 803 792 700 q 689 932 792 932 q 540 847 614 932 q 421 628 467 763 q 375 354 375 493 q 429 167 375 239 q 576 96 483 96 q 832 217 722 96 z "},"ć":{"ha":675,"x_min":78,"x_max":807,"o":"m 767 983 q 622 906 731 957 q 432 828 513 856 l 432 839 q 761 1044 667 943 l 767 1040 l 767 983 m 314 253 q 353 118 314 169 q 463 67 392 67 q 639 113 550 67 q 800 242 728 160 l 806 239 l 807 204 q 583 40 711 103 q 333 -22 454 -22 q 145 47 213 -22 q 78 238 78 115 q 206 565 78 422 q 514 708 333 708 q 664 675 610 708 q 718 575 718 642 q 692 494 718 531 q 475 419 600 444 l 468 431 q 544 610 544 525 q 497 667 544 667 q 369 540 425 667 q 314 253 314 414 z "},"Ĉ":{"ha":894,"x_min":125,"x_max":981,"o":"m 582 1039 l 567 1043 q 599 1063 572 1046 q 635 1088 625 1081 q 669 1111 644 1094 q 708 1140 693 1128 q 743 1168 722 1151 q 781 1202 764 1185 q 815 1238 799 1219 l 851 1238 q 965 1046 872 1171 l 954 1040 q 811 1181 864 1115 q 582 1039 690 1100 m 832 217 l 842 217 l 842 179 q 677 34 785 90 q 436 -22 569 -22 q 208 63 292 -22 q 125 310 125 149 q 203 633 125 482 q 420 875 282 783 q 721 967 558 967 q 981 810 981 967 q 963 737 981 775 q 918 676 944 699 q 721 624 843 647 l 717 640 q 792 803 792 700 q 689 932 792 932 q 540 847 614 932 q 421 628 467 763 q 375 354 375 493 q 429 167 375 239 q 576 96 483 96 q 832 217 722 96 z "},"ĉ":{"ha":675,"x_min":78,"x_max":807,"o":"m 347 844 l 332 849 q 364 869 338 851 q 400 893 390 886 q 434 917 410 900 q 473 945 458 933 q 508 974 488 957 q 547 1008 529 990 q 581 1043 564 1025 l 617 1043 q 731 851 638 976 l 719 846 q 576 986 629 921 q 347 844 456 906 m 314 253 q 353 118 314 169 q 463 67 392 67 q 639 113 550 67 q 800 242 728 160 l 806 239 l 807 204 q 583 40 711 103 q 333 -22 454 -22 q 145 47 213 -22 q 78 238 78 115 q 206 565 78 422 q 514 708 333 708 q 664 675 610 708 q 718 575 718 642 q 692 494 718 531 q 475 419 600 444 l 468 431 q 544 610 544 525 q 497 667 544 667 q 369 540 425 667 q 314 253 314 414 z "},"Ċ":{"ha":894,"x_min":125,"x_max":981,"o":"m 747 1029 q 687 1051 711 1029 q 663 1106 663 1072 q 700 1183 663 1153 q 781 1214 738 1214 q 842 1192 818 1214 q 865 1138 865 1171 q 828 1059 865 1089 q 747 1029 792 1029 m 832 217 l 842 217 l 842 179 q 677 34 785 90 q 436 -22 569 -22 q 208 63 292 -22 q 125 310 125 149 q 203 633 125 482 q 420 875 282 783 q 721 967 558 967 q 981 810 981 967 q 963 737 981 775 q 918 676 944 699 q 721 624 843 647 l 717 640 q 792 803 792 700 q 689 932 792 932 q 540 847 614 932 q 421 628 467 763 q 375 354 375 493 q 429 167 375 239 q 576 96 483 96 q 832 217 722 96 z "},"ċ":{"ha":675,"x_min":78,"x_max":807,"o":"m 513 835 q 452 856 476 835 q 428 911 428 878 q 465 989 428 958 q 546 1019 503 1019 q 607 998 583 1019 q 631 943 631 976 q 594 865 631 894 q 513 835 557 835 m 314 253 q 353 118 314 169 q 463 67 392 67 q 639 113 550 67 q 800 242 728 160 l 806 239 l 807 204 q 583 40 711 103 q 333 -22 454 -22 q 145 47 213 -22 q 78 238 78 115 q 206 565 78 422 q 514 708 333 708 q 664 675 610 708 q 718 575 718 642 q 692 494 718 531 q 475 419 600 444 l 468 431 q 544 610 544 525 q 497 667 544 667 q 369 540 425 667 q 314 253 314 414 z "},"Č":{"ha":894,"x_min":125,"x_max":1033,"o":"m 1018 1221 l 1033 1217 q 785 1022 863 1103 l 749 1022 q 635 1214 725 1096 l 646 1219 q 790 1079 728 1154 q 1018 1221 881 1139 m 832 217 l 842 217 l 842 179 q 677 34 785 90 q 436 -22 569 -22 q 208 63 292 -22 q 125 310 125 149 q 203 633 125 482 q 420 875 282 783 q 721 967 558 967 q 981 810 981 967 q 963 737 981 775 q 918 676 944 699 q 721 624 843 647 l 717 640 q 792 803 792 700 q 689 932 792 932 q 540 847 614 932 q 421 628 467 763 q 375 354 375 493 q 429 167 375 239 q 576 96 483 96 q 832 217 722 96 z "},"č":{"ha":675,"x_min":78,"x_max":807,"o":"m 783 1026 l 799 1022 q 550 828 628 908 l 514 828 q 400 1019 490 901 l 411 1025 q 556 885 493 960 q 783 1026 646 944 m 314 253 q 353 118 314 169 q 463 67 392 67 q 639 113 550 67 q 800 242 728 160 l 806 239 l 807 204 q 583 40 711 103 q 333 -22 454 -22 q 145 47 213 -22 q 78 238 78 115 q 206 565 78 422 q 514 708 333 708 q 664 675 610 708 q 718 575 718 642 q 692 494 718 531 q 475 419 600 444 l 468 431 q 544 610 544 525 q 497 667 544 667 q 369 540 425 667 q 314 253 314 414 z "},"Ď":{"ha":1065,"x_min":71,"x_max":1075,"o":"m 922 1221 l 938 1217 q 689 1022 767 1103 l 653 1022 q 539 1214 629 1096 l 550 1219 q 694 1079 632 1154 q 922 1221 785 1139 m 1075 653 q 894 185 1075 374 q 433 -3 714 -3 q 308 -1 397 -3 q 211 0 219 0 q 79 -1 122 0 l 71 18 q 208 366 124 76 q 322 850 293 656 l 181 929 l 183 950 q 399 947 240 947 q 574 950 453 947 q 746 953 694 953 q 986 878 897 953 q 1075 653 1075 803 m 636 915 l 560 915 q 469 458 540 733 q 331 56 397 183 q 482 29 394 29 q 672 123 589 29 q 793 349 754 217 q 832 624 832 482 q 785 835 832 754 q 636 915 738 915 z "},"ď":{"ha":869,"x_min":79,"x_max":1111,"o":"m 1051 1058 l 1111 1058 q 994 769 1078 890 l 982 769 q 1035 913 1019 851 q 1051 1058 1050 975 m 983 160 q 824 35 921 93 q 650 -24 726 -24 q 553 9 588 -24 q 519 101 519 42 q 592 339 519 175 l 567 336 q 525 249 547 288 q 392 42 457 108 q 257 -24 328 -24 q 128 48 176 -24 q 79 236 79 119 q 178 573 79 439 q 429 707 278 707 q 608 614 544 707 l 594 578 q 463 664 529 664 q 360 540 404 664 q 315 251 315 415 q 372 101 315 101 q 429 147 399 101 q 511 310 460 193 q 626 589 558 397 q 721 929 708 810 l 671 1003 l 674 1019 q 946 1040 814 1038 l 963 1029 q 931 822 963 961 q 854 549 900 683 q 719 65 719 150 q 726 29 719 39 q 978 197 849 68 l 983 194 l 983 160 z "},"đ":{"ha":869,"x_min":79,"x_max":1046,"o":"m 983 161 q 824 36 921 94 q 650 -22 726 -22 q 553 10 588 -22 q 519 103 519 43 q 522 138 519 119 q 534 185 525 157 q 549 228 543 213 q 569 285 554 243 q 590 342 585 326 l 567 338 q 525 250 547 289 q 392 44 457 110 q 257 -22 328 -22 q 128 49 176 -22 q 79 238 79 121 q 178 574 79 440 q 429 708 278 708 q 608 615 544 708 l 594 579 q 463 665 529 665 q 360 541 404 665 q 315 253 315 417 q 372 103 315 103 q 426 144 397 103 q 500 288 454 185 q 563 431 519 324 q 626 590 607 538 q 688 775 658 672 l 535 775 l 549 807 l 697 807 q 721 931 718 896 l 671 1004 l 674 1021 q 946 1042 814 1039 l 963 1031 q 932 807 963 925 l 1046 807 l 1032 775 l 924 775 q 854 550 908 714 q 719 67 719 151 q 726 31 719 40 q 978 199 849 69 l 983 196 l 983 161 z "},"Ē":{"ha":900,"x_min":67,"x_max":1010,"o":"m 483 1097 l 496 1129 l 856 1129 l 843 1097 l 483 1097 m 799 79 q 751 15 785 32 q 647 -3 718 -3 q 443 -1 594 -3 q 226 0 292 0 q 74 -1 125 0 l 67 19 q 198 356 114 71 q 314 851 282 640 l 172 929 l 175 950 q 618 944 347 944 q 807 948 692 944 q 949 951 922 951 q 1010 903 1010 951 q 846 593 1010 829 l 817 593 q 817 833 831 742 q 785 896 808 876 q 719 915 763 915 l 551 915 q 464 468 531 725 l 508 468 q 632 499 561 468 q 761 576 703 529 l 772 571 q 700 340 750 457 l 689 338 q 606 410 663 379 q 501 442 550 442 l 457 442 q 310 29 376 139 l 415 29 q 536 60 475 29 q 688 178 611 99 q 821 358 765 258 l 849 358 q 799 79 819 149 z "},"ē":{"ha":692,"x_min":79,"x_max":817,"o":"m 356 903 l 368 935 l 728 935 l 715 903 l 356 903 m 499 667 q 371 542 426 667 q 315 263 315 417 q 356 119 315 172 q 474 67 396 67 q 650 113 561 67 q 811 242 739 160 l 817 239 l 817 204 q 592 40 721 103 q 343 -22 464 -22 q 147 46 215 -22 q 79 238 79 114 q 207 565 79 422 q 515 708 335 708 q 669 671 614 708 q 724 564 724 633 q 615 401 724 474 q 344 300 507 328 l 336 318 q 483 444 422 363 q 543 604 543 525 q 499 667 543 667 z "},"Ĕ":{"ha":900,"x_min":67,"x_max":1010,"o":"m 901 1214 l 915 1206 q 792 1088 864 1138 q 640 1038 719 1038 q 504 1204 515 1038 l 515 1210 q 557 1115 526 1147 q 653 1083 588 1083 q 901 1214 785 1083 m 799 79 q 751 15 785 32 q 647 -3 718 -3 q 443 -1 594 -3 q 226 0 292 0 q 74 -1 125 0 l 67 19 q 198 356 114 71 q 314 851 282 640 l 172 929 l 175 950 q 618 944 347 944 q 807 948 692 944 q 949 951 922 951 q 1010 903 1010 951 q 846 593 1010 829 l 817 593 q 817 833 831 742 q 785 896 808 876 q 719 915 763 915 l 551 915 q 464 468 531 725 l 508 468 q 632 499 561 468 q 761 576 703 529 l 772 571 q 700 340 750 457 l 689 338 q 606 410 663 379 q 501 442 550 442 l 457 442 q 310 29 376 139 l 415 29 q 536 60 475 29 q 688 178 611 99 q 821 358 765 258 l 849 358 q 799 79 819 149 z "},"ĕ":{"ha":692,"x_min":79,"x_max":817,"o":"m 774 1019 l 788 1011 q 664 893 736 943 q 513 843 592 843 q 376 1010 388 843 l 388 1015 q 429 921 399 953 q 525 889 460 889 q 774 1019 657 889 m 499 667 q 371 542 426 667 q 315 263 315 417 q 356 119 315 172 q 474 67 396 67 q 650 113 561 67 q 811 242 739 160 l 817 239 l 817 204 q 592 40 721 103 q 343 -22 464 -22 q 147 46 215 -22 q 79 238 79 114 q 207 565 79 422 q 515 708 335 708 q 669 671 614 708 q 724 564 724 633 q 615 401 724 474 q 344 300 507 328 l 336 318 q 483 444 422 363 q 543 604 543 525 q 499 667 543 667 z "},"Ė":{"ha":900,"x_min":67,"x_max":1010,"o":"m 635 1029 q 574 1051 599 1029 q 550 1106 550 1072 q 588 1183 550 1153 q 668 1214 625 1214 q 729 1192 706 1214 q 753 1138 753 1171 q 716 1059 753 1089 q 635 1029 679 1029 m 799 79 q 751 15 785 32 q 647 -3 718 -3 q 443 -1 594 -3 q 226 0 292 0 q 74 -1 125 0 l 67 19 q 198 356 114 71 q 314 851 282 640 l 172 929 l 175 950 q 618 944 347 944 q 807 948 692 944 q 949 951 922 951 q 1010 903 1010 951 q 846 593 1010 829 l 817 593 q 817 833 831 742 q 785 896 808 876 q 719 915 763 915 l 551 915 q 464 468 531 725 l 508 468 q 632 499 561 468 q 761 576 703 529 l 772 571 q 700 340 750 457 l 689 338 q 606 410 663 379 q 501 442 550 442 l 457 442 q 310 29 376 139 l 415 29 q 536 60 475 29 q 688 178 611 99 q 821 358 765 258 l 849 358 q 799 79 819 149 z "},"ė":{"ha":692,"x_min":79,"x_max":817,"o":"m 507 835 q 447 856 471 835 q 422 911 422 878 q 460 989 422 958 q 540 1019 497 1019 q 601 998 578 1019 q 625 943 625 976 q 588 865 625 894 q 507 835 551 835 m 499 667 q 371 542 426 667 q 315 263 315 417 q 356 119 315 172 q 474 67 396 67 q 650 113 561 67 q 811 242 739 160 l 817 239 l 817 204 q 592 40 721 103 q 343 -22 464 -22 q 147 46 215 -22 q 79 238 79 114 q 207 565 79 422 q 515 708 335 708 q 669 671 614 708 q 724 564 724 633 q 615 401 724 474 q 344 300 507 328 l 336 318 q 483 444 422 363 q 543 604 543 525 q 499 667 543 667 z "},"Ę":{"ha":900,"x_min":67,"x_max":1010,"o":"m 551 -329 q 474 -347 515 -347 q 396 -322 425 -347 q 367 -254 367 -297 q 571 -3 367 -139 q 226 0 357 0 q 74 -1 125 0 l 67 19 q 198 356 114 71 q 314 851 282 640 l 172 929 l 175 950 q 618 944 347 944 q 807 948 692 944 q 949 951 922 951 q 1010 903 1010 951 q 846 593 1010 829 l 817 593 q 817 833 832 757 q 785 896 808 876 q 719 915 763 915 l 551 915 q 464 468 531 725 l 508 468 q 632 499 561 468 q 761 576 703 529 l 772 571 q 700 340 750 457 l 689 338 q 606 410 663 379 q 501 442 550 442 l 457 442 q 310 29 376 139 l 415 29 q 536 60 471 29 q 688 176 611 94 q 821 358 764 257 l 849 358 q 799 79 819 149 q 751 15 785 32 q 647 -3 718 -3 l 597 -3 q 428 -221 428 -129 q 449 -278 428 -257 q 510 -300 471 -300 q 567 -289 540 -300 l 569 -293 l 551 -329 z "},"ę":{"ha":692,"x_min":79,"x_max":817,"o":"m 457 -329 q 379 -347 421 -347 q 301 -322 331 -347 q 272 -254 272 -297 q 332 -126 272 -193 q 496 3 392 -58 q 343 -22 419 -22 q 147 46 215 -22 q 79 238 79 114 q 207 565 79 422 q 515 708 335 708 q 669 671 614 708 q 724 564 724 633 q 615 401 724 474 q 344 300 507 328 l 336 318 q 483 444 422 363 q 543 604 543 525 q 499 667 543 667 q 371 542 426 667 q 315 263 315 417 q 356 119 315 172 q 474 67 396 67 q 650 113 561 67 q 811 242 739 160 l 817 239 l 817 204 q 583 33 721 104 q 396 -100 458 -32 q 333 -221 333 -168 q 355 -278 333 -257 q 415 -300 376 -300 q 472 -289 446 -300 l 475 -293 l 457 -329 z "},"Ě":{"ha":900,"x_min":67,"x_max":1010,"o":"m 906 1221 l 921 1217 q 672 1022 750 1103 l 636 1022 q 522 1214 613 1096 l 533 1219 q 678 1079 615 1154 q 906 1221 768 1139 m 799 79 q 751 15 785 32 q 647 -3 718 -3 q 443 -1 594 -3 q 226 0 292 0 q 74 -1 125 0 l 67 19 q 198 356 114 71 q 314 851 282 640 l 172 929 l 175 950 q 618 944 347 944 q 807 948 692 944 q 949 951 922 951 q 1010 903 1010 951 q 846 593 1010 829 l 817 593 q 817 833 831 742 q 785 896 808 876 q 719 915 763 915 l 551 915 q 464 468 531 725 l 508 468 q 632 499 561 468 q 761 576 703 529 l 772 571 q 700 340 750 457 l 689 338 q 606 410 663 379 q 501 442 550 442 l 457 442 q 310 29 376 139 l 415 29 q 536 60 475 29 q 688 178 611 99 q 821 358 765 258 l 849 358 q 799 79 819 149 z "},"ě":{"ha":692,"x_min":79,"x_max":817,"o":"m 778 1026 l 793 1022 q 544 828 622 908 l 508 828 q 394 1019 485 901 l 406 1025 q 550 885 488 960 q 778 1026 640 944 m 499 667 q 371 542 426 667 q 315 263 315 417 q 356 119 315 172 q 474 67 396 67 q 650 113 561 67 q 811 242 739 160 l 817 239 l 817 204 q 592 40 721 103 q 343 -22 464 -22 q 147 46 215 -22 q 79 238 79 114 q 207 565 79 422 q 515 708 335 708 q 669 671 614 708 q 724 564 724 633 q 615 401 724 474 q 344 300 507 328 l 336 318 q 483 444 422 363 q 543 604 543 525 q 499 667 543 667 z "},"Ĝ":{"ha":967,"x_min":125,"x_max":993,"o":"m 567 1039 l 551 1043 q 583 1063 557 1046 q 619 1088 610 1081 q 653 1111 629 1094 q 692 1140 678 1128 q 728 1168 707 1151 q 766 1202 749 1185 q 800 1238 783 1219 l 836 1238 q 950 1046 857 1171 l 939 1040 q 796 1181 849 1115 q 567 1039 675 1100 m 125 310 q 203 633 125 482 q 420 875 282 783 q 721 967 558 967 q 993 810 993 967 q 975 737 993 775 q 931 676 957 699 q 733 624 856 647 l 729 640 q 804 803 804 700 q 693 932 804 932 q 541 847 615 932 q 421 628 467 763 q 375 354 375 493 q 428 166 375 236 q 572 96 481 96 q 768 215 675 96 q 892 508 854 325 l 938 508 q 760 -206 840 49 q 579 -347 715 -347 q 296 -283 415 -347 l 296 -265 q 456 -236 372 -274 q 796 163 674 -154 l 779 168 q 436 -22 654 -22 q 207 63 289 -22 q 125 310 125 149 z "},"ĝ":{"ha":840,"x_min":-60,"x_max":847,"o":"m 438 844 l 422 849 q 454 869 428 851 q 490 893 481 886 q 524 917 500 900 q 563 945 549 933 q 599 974 578 957 q 637 1008 619 990 q 671 1043 654 1025 l 707 1043 q 821 851 728 976 l 810 846 q 667 986 719 921 q 438 844 546 906 m 668 18 q 484 -249 606 -150 q 215 -347 363 -347 q 90 -328 149 -347 q -11 -269 32 -310 q -60 -171 -54 -228 q 32 -58 -32 -115 q 153 22 96 0 l 175 15 q 136 -92 136 -33 q 185 -239 136 -174 q 310 -304 235 -304 q 450 -40 374 -304 q 568 343 532 240 l 546 339 q 528 302 542 329 q 511 265 515 275 q 392 80 454 142 q 250 18 331 18 q 125 90 172 18 q 78 278 78 163 q 174 583 78 458 q 418 708 269 708 q 588 615 529 708 l 574 579 q 451 665 507 665 q 355 553 397 665 q 313 293 313 442 q 368 140 313 140 q 481 283 414 140 q 643 693 563 460 q 760 654 701 682 q 847 592 819 626 q 767 331 836 561 q 668 18 699 100 z "},"Ğ":{"ha":967,"x_min":125,"x_max":1013,"o":"m 999 1214 l 1013 1206 q 889 1088 961 1138 q 738 1038 817 1038 q 601 1204 613 1038 l 613 1210 q 654 1115 624 1147 q 750 1083 685 1083 q 999 1214 882 1083 m 125 310 q 203 633 125 482 q 420 875 282 783 q 721 967 558 967 q 993 810 993 967 q 975 737 993 775 q 931 676 957 699 q 733 624 856 647 l 729 640 q 804 803 804 700 q 693 932 804 932 q 541 847 615 932 q 421 628 467 763 q 375 354 375 493 q 428 166 375 236 q 572 96 481 96 q 768 215 675 96 q 892 508 854 325 l 938 508 q 760 -206 840 49 q 579 -347 715 -347 q 296 -283 415 -347 l 296 -265 q 456 -236 372 -274 q 796 163 674 -154 l 779 168 q 436 -22 654 -22 q 207 63 289 -22 q 125 310 125 149 z "},"ğ":{"ha":840,"x_min":-60,"x_max":883,"o":"m 869 1019 l 883 1011 q 760 893 832 943 q 608 843 688 843 q 472 1010 483 843 l 483 1015 q 525 921 494 953 q 621 889 556 889 q 869 1019 753 889 m 668 18 q 484 -249 606 -150 q 215 -347 363 -347 q 90 -328 149 -347 q -11 -269 32 -310 q -60 -171 -54 -228 q 32 -58 -32 -115 q 153 22 96 0 l 175 15 q 136 -92 136 -33 q 185 -239 136 -174 q 310 -304 235 -304 q 450 -40 374 -304 q 568 343 532 240 l 546 339 q 528 302 542 329 q 511 265 515 275 q 392 80 454 142 q 250 18 331 18 q 125 90 172 18 q 78 278 78 163 q 174 583 78 458 q 418 708 269 708 q 588 615 529 708 l 574 579 q 451 665 507 665 q 355 553 397 665 q 313 293 313 442 q 368 140 313 140 q 481 283 414 140 q 643 693 563 460 q 760 654 701 682 q 847 592 819 626 q 767 331 836 561 q 668 18 699 100 z "},"Ġ":{"ha":967,"x_min":125,"x_max":993,"o":"m 732 1029 q 672 1051 696 1029 q 647 1106 647 1072 q 685 1183 647 1153 q 765 1214 722 1214 q 826 1192 803 1214 q 850 1138 850 1171 q 813 1059 850 1089 q 732 1029 776 1029 m 125 310 q 203 633 125 482 q 420 875 282 783 q 721 967 558 967 q 993 810 993 967 q 975 737 993 775 q 931 676 957 699 q 733 624 856 647 l 729 640 q 804 803 804 700 q 693 932 804 932 q 541 847 615 932 q 421 628 467 763 q 375 354 375 493 q 428 166 375 236 q 572 96 481 96 q 768 215 675 96 q 892 508 854 325 l 938 508 q 760 -206 840 49 q 579 -347 715 -347 q 296 -283 415 -347 l 296 -265 q 456 -236 372 -274 q 796 163 674 -154 l 779 168 q 436 -22 654 -22 q 207 63 289 -22 q 125 310 125 149 z "},"ġ":{"ha":840,"x_min":-60,"x_max":847,"o":"m 599 835 q 538 856 563 835 q 514 911 514 878 q 551 989 514 958 q 632 1019 589 1019 q 693 998 669 1019 q 717 943 717 976 q 680 865 717 894 q 599 835 643 835 m 668 18 q 484 -249 606 -150 q 215 -347 363 -347 q 90 -328 149 -347 q -11 -269 32 -310 q -60 -171 -54 -228 q 32 -58 -32 -115 q 153 22 96 0 l 175 15 q 136 -92 136 -33 q 185 -239 136 -174 q 310 -304 235 -304 q 450 -40 374 -304 q 568 343 532 240 l 546 339 q 528 302 542 329 q 511 265 515 275 q 392 80 454 142 q 250 18 331 18 q 125 90 172 18 q 78 278 78 163 q 174 583 78 458 q 418 708 269 708 q 588 615 529 708 l 574 579 q 451 665 507 665 q 355 553 397 665 q 313 293 313 442 q 368 140 313 140 q 481 283 414 140 q 643 693 563 460 q 760 654 701 682 q 847 592 819 626 q 767 331 836 561 q 668 18 699 100 z "},"Ģ":{"ha":974,"x_min":108,"x_max":997,"o":"m 993 514 q 858 -24 901 272 l 835 -24 q 782 28 811 -8 q 736 93 753 64 l 694 93 q 419 -22 586 -22 q 192 63 275 -22 q 108 310 108 149 q 187 633 108 482 q 403 875 265 783 q 704 967 542 967 q 997 811 997 967 q 980 738 997 776 q 935 678 963 700 q 738 625 847 646 l 733 643 q 808 804 808 699 q 686 932 808 932 q 526 847 603 932 q 403 628 449 763 q 358 354 358 494 q 410 166 358 236 q 550 96 461 96 q 674 133 614 96 q 757 451 715 329 q 982 518 847 468 l 993 514 m 494 -169 q 434 -334 494 -251 q 281 -422 374 -417 l 263 -410 l 265 -403 q 401 -335 349 -397 q 458 -214 454 -272 l 454 -212 q 388 -240 433 -240 q 338 -222 358 -240 q 317 -175 317 -204 q 348 -108 317 -133 q 415 -83 379 -83 q 473 -106 451 -83 q 494 -169 494 -129 z "},"ģ":{"ha":840,"x_min":-60,"x_max":847,"o":"m 744 1003 q 713 888 744 932 q 628 844 681 844 q 575 865 594 844 q 556 911 556 885 q 586 976 556 950 q 654 1001 617 1001 q 691 992 675 1001 q 708 967 707 982 l 715 967 q 717 999 717 976 q 693 1111 717 1058 q 624 1186 669 1164 l 624 1192 l 638 1204 q 744 1003 744 1154 m 668 18 q 484 -249 606 -150 q 215 -347 363 -347 q 90 -328 149 -347 q -11 -269 32 -310 q -60 -171 -54 -228 q 32 -58 -32 -115 q 153 22 96 0 l 175 15 q 136 -92 136 -33 q 185 -239 136 -174 q 310 -304 235 -304 q 450 -40 374 -304 q 568 343 532 240 l 546 339 q 528 302 542 329 q 511 265 515 275 q 392 80 454 142 q 250 18 331 18 q 125 90 172 18 q 78 278 78 163 q 174 583 78 458 q 418 708 269 708 q 588 615 529 708 l 574 579 q 451 665 507 665 q 355 553 397 665 q 313 293 313 442 q 368 140 313 140 q 481 283 414 140 q 643 693 563 460 q 760 654 701 682 q 847 592 819 626 q 767 331 836 561 q 668 18 699 100 z "},"Ĥ":{"ha":1024,"x_min":-54,"x_max":1228,"o":"m 574 1039 l 558 1043 q 590 1063 564 1046 q 626 1088 617 1081 q 660 1111 636 1094 q 699 1140 685 1128 q 735 1168 714 1151 q 773 1202 756 1185 q 807 1238 790 1219 l 843 1238 q 957 1046 864 1171 l 946 1040 q 803 1181 856 1115 q 574 1039 682 1100 m 361 376 q 63 389 151 376 q 39 469 39 425 l 44 474 q 215 422 103 435 q 313 854 276 647 l 172 929 l 175 946 q 535 967 331 964 l 558 956 q 522 729 554 883 q 446 417 490 575 q 696 426 601 419 q 803 781 735 581 q 1051 968 864 968 q 1228 867 1165 968 l 1214 846 q 1172 883 1199 867 q 1125 899 1146 899 q 1046 811 1075 899 q 923 391 985 629 q 861 56 861 153 q 863 35 861 38 q 988 97 918 50 q 1110 197 1057 144 l 1114 194 l 1114 161 q 949 33 1042 85 q 785 -18 857 -18 q 677 18 717 -18 q 638 115 638 54 q 685 385 638 189 q 361 376 578 376 m 197 354 q 429 353 265 353 q 372 165 388 211 q 279 23 339 68 q 124 -22 219 -22 q -54 79 7 -22 l -40 100 q 1 63 -25 79 q 49 47 28 47 q 128 135 97 47 q 197 354 154 204 z "},"ĥ":{"ha":899,"x_min":22,"x_max":1004,"o":"m 193 1106 l 178 1110 q 210 1130 183 1113 q 246 1154 236 1147 q 280 1178 256 1161 q 319 1206 304 1194 q 354 1235 333 1218 q 392 1269 375 1251 q 426 1304 410 1286 l 463 1304 q 576 1113 483 1238 l 565 1107 q 422 1247 475 1182 q 193 1106 301 1167 m 1004 160 q 841 37 943 96 q 663 -22 739 -22 q 531 106 531 -22 q 596 343 531 158 q 663 569 663 529 q 628 610 663 610 q 486 472 574 610 q 229 -22 378 303 q 22 26 92 -10 q 156 453 76 164 q 264 931 235 742 l 214 1004 l 218 1021 q 490 1042 358 1039 l 507 1031 q 442 680 507 939 q 296 246 378 421 l 314 238 q 344 299 321 251 q 381 370 368 346 q 417 432 394 394 q 458 499 439 469 q 747 708 603 708 q 859 670 819 708 q 899 569 899 632 q 819 310 899 519 q 743 63 743 111 q 749 36 743 47 q 1000 199 878 76 l 1004 196 l 1004 160 z "},"Ħ":{"ha":979,"x_min":-54,"x_max":1228,"o":"m 1114 161 q 949 33 1042 85 q 785 -18 857 -18 q 677 18 717 -18 q 638 115 638 54 q 685 385 638 189 q 361 376 578 376 q 63 389 151 376 q 39 469 39 425 l 44 474 q 215 422 103 435 q 274 663 246 532 l 151 663 l 165 694 l 281 694 q 313 854 300 779 l 172 929 l 175 946 q 535 967 331 964 l 558 956 q 515 694 554 881 l 774 694 l 801 781 q 1051 968 860 968 q 1228 867 1165 968 l 1214 846 q 1172 883 1199 867 q 1125 899 1146 899 q 1046 811 1074 899 l 1008 694 l 1121 694 l 1107 663 l 999 663 q 861 56 861 213 q 863 35 861 38 q 988 97 918 50 q 1110 197 1057 144 l 1114 194 l 1114 161 m 446 417 q 696 426 603 419 q 764 663 722 532 l 508 663 q 446 417 483 556 m 197 354 q 429 353 265 353 q 372 165 388 211 q 279 23 339 68 q 124 -22 219 -22 q -54 79 7 -22 l -40 100 q 1 63 -25 79 q 49 47 28 47 q 128 135 97 47 q 197 354 154 204 z "},"ħ":{"ha":899,"x_min":22,"x_max":1004,"o":"m 1004 160 q 841 37 943 96 q 663 -22 739 -22 q 531 106 531 -22 q 596 344 531 160 q 663 569 663 531 q 628 610 663 610 q 486 472 574 610 q 229 -22 378 303 q 22 26 92 -10 q 128 356 65 135 q 236 775 192 578 l 124 775 l 138 807 l 243 807 q 264 931 263 915 l 214 1004 l 218 1021 q 490 1042 358 1039 l 507 1031 q 474 807 504 953 l 631 807 l 617 775 l 467 775 q 296 246 396 457 l 314 238 q 458 499 418 440 q 747 708 603 708 q 859 670 819 708 q 899 569 899 632 q 819 310 899 522 q 743 63 743 114 q 749 36 743 47 q 1000 199 878 76 l 1004 196 l 1004 160 z "},"Ĩ":{"ha":507,"x_min":-54,"x_max":668,"o":"m 346 1143 q 290 1120 315 1143 q 231 1049 265 1097 l 218 1051 q 371 1175 297 1175 q 456 1128 406 1175 q 540 1081 506 1081 q 596 1103 571 1081 q 656 1175 621 1126 l 668 1172 q 515 1049 592 1049 q 489 1056 503 1049 q 467 1068 475 1063 q 442 1090 460 1074 q 421 1108 425 1106 q 346 1143 381 1143 m 372 165 q 124 -22 310 -22 q -54 79 7 -22 l -40 100 q 1 63 -25 79 q 49 47 28 47 q 128 135 97 47 q 313 854 243 457 l 172 929 l 175 946 q 535 967 331 964 l 558 956 q 494 602 553 854 q 372 165 435 350 z "},"ĩ":{"ha":418,"x_min":61,"x_max":561,"o":"m 239 949 q 183 926 208 949 q 124 854 158 903 l 111 857 q 264 981 190 981 q 349 933 299 981 q 433 886 399 886 q 489 909 464 886 q 549 981 514 932 l 561 978 q 408 854 485 854 q 382 861 396 854 q 360 874 368 868 q 335 895 353 879 q 314 914 318 911 q 239 949 274 949 m 522 150 q 372 31 458 83 q 210 -22 285 -22 q 102 13 143 -22 q 61 113 61 49 q 113 332 61 169 q 183 604 168 501 l 132 671 l 135 688 q 408 708 281 706 l 425 696 q 368 396 425 592 q 331 278 357 358 q 291 147 304 197 q 278 65 278 97 q 285 31 278 40 q 402 91 335 44 q 517 188 469 138 l 522 183 l 522 150 z "},"Ī":{"ha":507,"x_min":-54,"x_max":629,"o":"m 257 1097 l 269 1129 l 629 1129 l 617 1097 l 257 1097 m 372 165 q 124 -22 310 -22 q -54 79 7 -22 l -40 100 q 1 63 -25 79 q 49 47 28 47 q 128 135 97 47 q 313 854 243 457 l 172 929 l 175 946 q 535 967 331 964 l 558 956 q 494 602 553 854 q 372 165 435 350 z "},"ī":{"ha":418,"x_min":61,"x_max":522,"o":"m 150 903 l 163 935 l 522 935 l 510 903 l 150 903 m 522 150 q 372 31 458 83 q 210 -22 285 -22 q 102 13 143 -22 q 61 113 61 49 q 113 332 61 169 q 183 604 168 501 l 132 671 l 135 688 q 408 708 281 706 l 425 696 q 368 396 425 592 q 331 278 357 358 q 291 147 304 197 q 278 65 278 97 q 285 31 278 40 q 402 91 335 44 q 517 188 469 138 l 522 183 l 522 150 z "},"Ĭ":{"ha":507,"x_min":-54,"x_max":689,"o":"m 675 1214 l 689 1206 q 565 1088 638 1138 q 414 1038 493 1038 q 278 1204 289 1038 l 289 1210 q 331 1115 300 1147 q 426 1083 361 1083 q 675 1214 558 1083 m 372 165 q 124 -22 310 -22 q -54 79 7 -22 l -40 100 q 1 63 -25 79 q 49 47 28 47 q 128 135 97 47 q 313 854 243 457 l 172 929 l 175 946 q 535 967 331 964 l 558 956 q 494 602 553 854 q 372 165 435 350 z "},"ĭ":{"ha":418,"x_min":61,"x_max":582,"o":"m 568 1019 l 582 1011 q 458 893 531 943 q 307 843 386 843 q 171 1010 182 843 l 182 1015 q 224 921 193 953 q 319 889 254 889 q 568 1019 451 889 m 522 150 q 372 31 458 83 q 210 -22 285 -22 q 102 13 143 -22 q 61 113 61 49 q 113 332 61 169 q 183 604 168 501 l 132 671 l 135 688 q 408 708 281 706 l 425 696 q 368 396 425 592 q 331 278 357 358 q 291 147 304 197 q 278 65 278 97 q 285 31 278 40 q 402 91 335 44 q 517 188 469 138 l 522 183 l 522 150 z "},"Į":{"ha":507,"x_min":-54,"x_max":558,"o":"m 199 -329 q 121 -347 163 -347 q 43 -322 72 -347 q 14 -254 14 -297 q 204 -12 14 -144 q 124 -22 171 -22 q -54 79 7 -22 l -40 100 q 1 63 -25 79 q 49 47 28 47 q 128 135 97 47 q 313 854 243 457 l 172 929 l 175 946 q 535 967 331 964 l 558 956 q 494 602 553 854 q 372 165 435 350 q 274 17 338 63 q 75 -221 75 -124 q 97 -278 75 -257 q 157 -300 118 -300 q 214 -289 188 -300 l 217 -293 l 199 -329 z "},"į":{"ha":433,"x_min":61,"x_max":522,"o":"m 318 857 q 257 878 282 857 q 232 933 232 900 q 269 1012 232 982 q 351 1042 307 1042 q 411 1020 388 1042 q 435 965 435 999 q 399 887 435 917 q 318 857 363 857 m 276 -329 q 199 -347 240 -347 q 121 -322 150 -347 q 92 -254 92 -297 q 286 -8 92 -144 q 210 -22 242 -22 q 102 13 143 -22 q 61 113 61 49 q 113 332 61 169 q 183 604 168 501 l 132 671 l 135 688 q 408 708 281 706 l 425 696 q 368 396 425 592 q 331 278 357 358 q 291 147 304 197 q 278 65 278 97 q 285 31 278 40 q 402 91 335 44 q 517 188 469 138 l 522 183 l 522 150 q 356 19 463 89 q 153 -221 153 -115 q 174 -278 153 -257 q 235 -300 196 -300 q 292 -289 265 -300 l 294 -293 l 276 -329 z "},"İ":{"ha":507,"x_min":-54,"x_max":558,"o":"m 421 1029 q 360 1051 385 1029 q 336 1106 336 1072 q 374 1183 336 1153 q 454 1214 411 1214 q 515 1192 492 1214 q 539 1138 539 1171 q 502 1059 539 1089 q 421 1029 465 1029 m 372 165 q 124 -22 310 -22 q -54 79 7 -22 l -40 100 q 1 63 -25 79 q 49 47 28 47 q 128 135 97 47 q 313 854 243 457 l 172 929 l 175 946 q 535 967 331 964 l 558 956 q 494 602 553 854 q 372 165 435 350 z "},"ı":{"ha":433,"x_min":61,"x_max":522,"o":"m 522 150 q 372 31 458 83 q 210 -22 285 -22 q 102 13 143 -22 q 61 113 61 49 q 113 332 61 169 q 183 604 168 501 l 132 671 l 135 688 q 408 708 281 706 l 425 696 q 368 396 425 592 q 331 278 357 358 q 291 147 304 197 q 278 65 278 97 q 285 31 278 40 q 402 91 335 44 q 517 188 469 138 l 522 183 l 522 150 z "},"Ĳ":{"ha":1293,"x_min":-56,"x_max":1343,"o":"m 371 165 q 122 -22 308 -22 q -56 79 6 -22 l -42 100 q 0 63 -26 79 q 47 47 26 47 q 126 135 96 47 q 311 854 242 457 l 171 929 l 174 946 q 533 967 329 964 l 557 956 q 492 602 551 854 q 371 165 433 350 m 1161 172 q 839 -22 1094 -22 q 649 1 739 -22 q 508 68 560 25 q 587 267 536 161 q 685 436 638 372 l 715 433 q 692 261 692 342 q 807 8 692 8 q 919 135 875 8 q 1020 487 967 268 q 1110 910 1074 706 q 989 897 1021 910 q 847 798 910 863 q 718 626 785 733 l 690 626 q 746 875 711 785 q 788 932 761 917 q 861 947 815 947 q 973 944 878 947 q 1119 940 1068 940 q 1321 951 1235 940 l 1343 940 q 1279 592 1336 835 q 1161 172 1222 350 z "},"ĳ":{"ha":869,"x_min":61,"x_max":1021,"o":"m 749 857 q 688 878 713 857 q 663 933 663 900 q 700 1012 663 982 q 782 1042 738 1042 q 842 1020 818 1042 q 865 965 865 999 q 829 887 865 917 q 749 857 793 857 m 318 857 q 257 878 282 857 q 232 933 232 900 q 269 1012 232 982 q 351 1042 307 1042 q 411 1020 388 1042 q 435 965 435 999 q 399 887 435 917 q 318 857 363 857 m 715 24 q 550 -239 674 -131 q 275 -347 426 -347 q 166 -319 210 -347 q 122 -243 122 -292 q 180 -129 122 -178 q 360 -15 238 -81 l 507 64 q 522 136 517 103 q 366 26 456 75 q 210 -22 276 -22 q 102 13 143 -22 q 61 113 61 49 q 113 332 61 169 q 183 604 168 501 l 132 671 l 135 688 q 408 708 281 706 l 425 696 q 368 396 425 592 q 331 278 357 358 q 291 147 304 197 q 278 65 278 97 q 285 31 278 40 q 408 92 332 43 q 535 189 483 140 q 614 604 593 453 l 563 671 l 565 688 q 838 708 682 708 l 856 696 q 779 244 856 543 q 1015 436 928 349 l 1021 436 l 1021 397 q 689 143 910 279 l 463 4 q 297 -235 297 -99 q 346 -306 297 -306 q 494 -6 436 -306 l 754 157 q 735 93 751 147 q 715 24 719 39 z "},"Ĵ":{"ha":818,"x_min":32,"x_max":867,"o":"m 444 1039 l 429 1043 q 461 1063 435 1046 q 497 1088 488 1081 q 531 1111 507 1094 q 570 1140 556 1128 q 606 1168 585 1151 q 644 1202 626 1185 q 678 1238 661 1219 l 714 1238 q 828 1046 735 1171 l 817 1040 q 674 1181 726 1115 q 444 1039 553 1100 m 685 172 q 363 -22 618 -22 q 173 1 263 -22 q 32 68 83 25 q 110 267 60 161 q 208 436 161 372 l 239 433 q 215 261 215 342 q 331 8 215 8 q 443 135 399 8 q 544 487 490 268 q 633 910 597 706 q 513 897 544 910 q 371 798 433 863 q 242 626 308 733 l 214 626 q 269 875 235 785 q 312 932 285 917 q 385 947 339 947 q 497 944 401 947 q 643 940 592 940 q 844 951 758 940 l 867 940 q 803 592 860 835 q 685 172 746 350 z "},"ĵ":{"ha":417,"x_min":-311,"x_max":588,"o":"m 135 844 l 119 849 q 151 869 125 851 q 188 893 178 886 q 222 917 197 900 q 260 945 246 933 q 296 974 275 957 q 334 1008 317 990 q 368 1043 351 1025 l 404 1043 q 518 851 425 976 l 507 846 q 364 986 417 921 q 135 844 243 906 m 283 24 q 117 -239 240 -131 q -158 -347 -7 -347 q -267 -319 -224 -347 q -311 -243 -311 -292 q -253 -129 -311 -178 q -74 -15 -196 -81 l 74 64 q 182 604 150 392 l 129 671 l 133 688 q 406 708 249 708 l 424 696 q 347 244 424 543 q 583 436 494 350 l 588 436 l 588 397 q 256 143 481 282 l 29 4 q -135 -235 -135 -97 q -87 -306 -135 -306 q 61 -6 6 -306 l 321 157 q 301 88 317 142 q 283 24 286 35 z "},"Ķ":{"ha":979,"x_min":-53,"x_max":1111,"o":"m 536 967 l 560 956 q 495 602 554 854 q 372 165 436 350 q 281 23 342 68 q 124 -22 219 -22 q -53 79 8 -22 l -39 100 q 3 63 -24 79 q 50 47 29 47 q 129 135 99 47 q 314 854 244 457 l 172 929 l 176 946 q 536 967 332 964 m 947 57 q 865 -1 919 21 q 753 -22 811 -22 q 578 104 629 -22 q 513 507 526 231 q 776 628 678 556 q 874 782 874 700 q 753 882 874 881 l 751 897 q 990 967 853 963 q 1111 840 1111 943 q 597 513 1111 654 l 601 499 q 725 511 647 499 l 735 506 q 883 50 760 50 q 943 78 917 50 l 947 76 l 947 57 m 514 -169 q 453 -334 514 -251 q 300 -422 393 -417 l 282 -410 l 285 -403 q 421 -335 368 -397 q 478 -214 474 -272 l 474 -212 q 407 -240 453 -240 q 357 -222 378 -240 q 336 -175 336 -204 q 367 -108 336 -133 q 435 -83 399 -83 q 492 -106 471 -83 q 514 -169 514 -129 z "},"ķ":{"ha":817,"x_min":21,"x_max":893,"o":"m 758 53 q 549 -24 667 -24 q 335 308 371 -24 l 318 308 q 214 -22 274 128 q 21 26 92 -11 q 154 452 75 163 q 264 931 233 742 l 214 1004 l 218 1021 q 490 1042 358 1039 l 507 1031 q 462 747 506 953 q 357 358 418 540 l 369 357 q 449 481 397 407 q 757 708 603 708 q 854 680 815 708 q 893 596 893 651 q 881 541 893 571 q 847 494 868 511 l 658 414 l 651 425 q 713 611 713 539 q 685 649 713 649 q 532 528 631 649 q 474 453 506 497 q 564 174 508 289 q 683 60 619 60 q 760 85 722 60 l 764 82 l 758 53 m 422 -169 q 362 -334 422 -251 q 208 -422 301 -417 l 190 -410 l 193 -403 q 329 -335 276 -397 q 386 -214 382 -272 l 382 -212 q 315 -240 361 -240 q 265 -222 286 -240 q 244 -175 244 -204 q 276 -108 244 -133 q 343 -83 307 -83 q 401 -106 379 -83 q 422 -169 422 -129 z "},"Ĺ":{"ha":886,"x_min":79,"x_max":867,"o":"m 642 1178 q 497 1101 606 1151 q 307 1022 388 1050 l 307 1033 q 636 1239 542 1138 l 642 1235 l 642 1178 m 813 79 q 767 15 799 32 q 665 -3 735 -3 q 503 0 619 -3 q 326 3 386 3 q 86 -1 224 3 l 79 18 q 201 336 125 71 q 319 854 278 601 l 178 931 l 181 946 q 540 967 324 964 l 565 954 q 466 451 547 753 q 318 33 385 149 l 429 33 q 553 60 500 33 q 838 385 683 122 l 867 385 q 813 79 838 163 z "},"ĺ":{"ha":442,"x_min":61,"x_max":625,"o":"m 625 1274 q 480 1197 589 1247 q 290 1118 371 1146 l 290 1129 q 619 1335 525 1233 l 625 1331 l 625 1274 m 210 -22 q 101 15 142 -22 q 61 113 61 51 q 113 343 61 178 l 221 682 q 281 931 269 835 l 231 1004 l 233 1021 q 507 1042 364 1039 l 524 1031 q 418 560 524 900 q 366 402 411 539 q 300 186 321 265 q 279 65 279 107 q 285 31 279 42 q 413 94 339 46 q 535 192 486 142 l 539 188 l 539 154 q 373 29 469 81 q 210 -22 276 -22 z "},"Ļ":{"ha":886,"x_min":79,"x_max":867,"o":"m 813 79 q 767 15 799 32 q 665 -3 735 -3 q 503 0 619 -3 q 326 3 386 3 q 86 -1 224 3 l 79 18 q 201 336 125 71 q 319 854 278 601 l 178 931 l 181 946 q 540 967 324 964 l 565 954 q 466 451 547 753 q 318 33 385 149 l 429 33 q 553 60 500 33 q 838 385 683 122 l 867 385 q 813 79 838 163 m 471 -169 q 410 -334 471 -251 q 257 -422 350 -417 l 239 -410 l 242 -403 q 378 -335 325 -397 q 435 -214 431 -272 l 431 -212 q 364 -240 410 -240 q 314 -222 335 -240 q 293 -175 293 -204 q 324 -108 293 -133 q 392 -83 356 -83 q 449 -106 428 -83 q 471 -169 471 -129 z "},"ļ":{"ha":442,"x_min":6,"x_max":539,"o":"m 210 -22 q 101 15 142 -22 q 61 113 61 51 q 113 343 61 178 l 221 682 q 281 931 269 835 l 231 1004 l 233 1021 q 507 1042 364 1039 l 524 1031 q 418 560 524 900 q 366 402 411 539 q 300 186 321 265 q 279 65 279 107 q 285 31 279 42 q 413 94 339 46 q 535 192 486 142 l 539 188 l 539 154 q 373 29 469 81 q 210 -22 276 -22 m 238 -169 q 177 -334 238 -251 q 24 -422 117 -417 l 6 -410 l 8 -403 q 144 -335 92 -397 q 201 -214 197 -272 l 197 -212 q 131 -240 176 -240 q 81 -222 101 -240 q 60 -175 60 -204 q 91 -108 60 -133 q 158 -83 122 -83 q 216 -106 194 -83 q 238 -169 238 -129 z "},"ľ":{"ha":442,"x_min":61,"x_max":669,"o":"m 610 1058 l 669 1058 q 553 769 636 890 l 540 769 q 593 913 578 851 q 610 1058 608 975 m 210 -22 q 101 15 142 -22 q 61 113 61 51 q 113 343 61 178 l 221 682 q 281 931 269 835 l 231 1004 l 233 1021 q 507 1042 364 1039 l 524 1031 q 418 560 524 900 q 366 402 411 539 q 300 186 321 265 q 279 65 279 107 q 285 31 279 42 q 413 94 339 46 q 535 192 486 142 l 539 188 l 539 154 q 373 29 469 81 q 210 -22 276 -22 z "},"Ŀ":{"ha":876,"x_min":79,"x_max":867,"o":"m 813 79 q 767 15 799 32 q 665 -3 735 -3 q 503 0 619 -3 q 326 3 386 3 q 86 -1 224 3 l 79 18 q 201 336 125 71 q 319 854 278 601 l 178 931 l 181 946 q 540 967 324 964 l 565 954 q 466 451 547 753 q 318 33 385 149 l 429 33 q 553 60 500 33 q 838 385 683 122 l 867 385 q 813 79 838 163 m 657 372 q 597 394 621 372 q 572 449 572 415 q 610 526 572 496 q 690 557 647 557 q 751 535 728 557 q 775 481 775 514 q 738 402 775 432 q 657 372 701 372 z "},"ŀ":{"ha":624,"x_min":61,"x_max":682,"o":"m 210 -22 q 101 15 142 -22 q 61 113 61 51 q 113 343 61 178 l 221 682 q 281 931 269 835 l 231 1004 l 233 1021 q 507 1042 364 1039 l 524 1031 q 418 560 524 900 q 366 402 411 539 q 300 186 321 265 q 279 65 279 107 q 285 31 279 42 q 413 94 339 46 q 535 192 486 142 l 539 188 l 539 154 q 373 29 469 81 q 210 -22 276 -22 m 564 385 q 503 406 528 385 q 479 461 479 428 q 517 539 479 508 q 597 569 554 569 q 658 548 635 569 q 682 493 682 526 q 645 415 682 444 q 564 385 608 385 z "},"Ł":{"ha":886,"x_min":71,"x_max":867,"o":"m 813 79 q 767 15 799 32 q 665 -3 735 -3 q 503 0 619 -3 q 326 3 386 3 q 86 -1 224 3 l 79 18 q 206 349 126 74 l 71 300 l 71 336 l 217 389 q 319 854 286 643 l 178 931 l 181 946 q 540 967 324 964 l 565 954 q 475 481 550 774 l 699 561 l 699 525 l 464 442 q 318 33 385 146 l 429 33 q 553 60 500 33 q 838 385 683 122 l 867 385 q 813 79 838 163 z "},"ł":{"ha":442,"x_min":49,"x_max":546,"o":"m 522 150 q 363 27 451 76 q 210 -22 275 -22 q 101 15 142 -22 q 61 113 61 51 q 113 343 61 178 l 156 481 l 49 449 l 49 483 l 168 519 l 221 682 q 281 931 269 835 l 231 1004 l 233 1021 q 507 1042 364 1039 l 524 1031 q 431 597 524 882 l 546 633 l 546 599 l 418 558 q 285 67 285 153 q 290 31 285 53 q 403 91 340 47 q 517 188 467 135 l 522 183 l 522 150 z "},"Ń":{"ha":1088,"x_min":-35,"x_max":1336,"o":"m 1108 1178 q 963 1101 1072 1151 q 774 1022 854 1050 l 774 1033 q 1103 1239 1008 1138 l 1108 1235 l 1108 1178 m 888 0 q 640 -22 794 -11 l 624 -12 q 540 402 579 149 q 485 899 500 656 l 469 899 l 438 639 q 326 135 396 293 q 143 -22 257 -22 q -35 46 29 -22 l -21 65 q 39 38 3 38 q 198 208 101 38 q 368 633 294 378 l 419 803 l 246 926 l 249 946 q 496 939 371 939 q 707 943 632 939 l 719 926 q 769 452 732 711 q 849 40 806 193 l 863 40 l 875 188 q 973 785 908 604 q 1158 967 1038 967 q 1336 899 1283 967 l 1322 879 q 1264 907 1297 907 q 1094 688 1196 907 q 925 168 992 469 l 888 0 z "},"ń":{"ha":899,"x_min":18,"x_max":1003,"o":"m 826 983 q 681 906 790 957 q 492 828 572 856 l 492 839 q 821 1044 726 943 l 826 1040 l 826 983 m 1003 160 q 840 37 942 96 q 661 -22 738 -22 q 529 106 529 -22 q 594 346 529 167 q 661 569 661 532 q 625 610 661 610 q 483 472 574 610 q 228 -22 375 300 q 115 -6 181 -21 q 18 26 49 8 q 117 315 63 129 q 182 606 172 500 l 131 671 l 135 688 q 407 708 263 708 l 425 696 q 292 247 425 528 l 311 238 q 457 499 411 432 q 744 708 599 708 q 856 670 817 708 q 896 569 896 632 q 818 310 896 513 q 742 63 742 114 q 747 36 742 43 q 999 199 876 76 l 1003 196 l 1003 160 z "},"Ņ":{"ha":1088,"x_min":-35,"x_max":1336,"o":"m 888 0 q 640 -22 794 -11 l 624 -12 q 540 402 579 149 q 485 899 500 656 l 469 899 l 438 639 q 326 135 396 293 q 143 -22 257 -22 q -35 46 29 -22 l -21 65 q 39 38 3 38 q 198 208 101 38 q 368 633 294 378 l 419 803 l 246 926 l 249 946 q 496 939 371 939 q 707 943 632 939 l 719 926 q 769 452 732 711 q 849 40 806 193 l 863 40 l 875 188 q 973 785 908 604 q 1158 967 1038 967 q 1336 899 1283 967 l 1322 879 q 1264 907 1297 907 q 1094 688 1196 907 q 925 168 992 469 l 888 0 m 538 -169 q 477 -334 538 -251 q 324 -422 417 -417 l 306 -410 l 308 -403 q 444 -335 392 -397 q 501 -214 497 -272 l 497 -212 q 431 -240 476 -240 q 381 -222 401 -240 q 360 -175 360 -204 q 391 -108 360 -133 q 458 -83 422 -83 q 516 -106 494 -83 q 538 -169 538 -129 z "},"ņ":{"ha":899,"x_min":18,"x_max":1003,"o":"m 1003 160 q 840 37 942 96 q 661 -22 738 -22 q 529 106 529 -22 q 594 346 529 167 q 661 569 661 532 q 625 610 661 610 q 483 472 574 610 q 228 -22 375 300 q 115 -6 181 -21 q 18 26 49 8 q 117 315 63 129 q 182 606 172 500 l 131 671 l 135 688 q 407 708 263 708 l 425 696 q 292 247 425 528 l 311 238 q 457 499 411 432 q 744 708 599 708 q 856 670 817 708 q 896 569 896 632 q 818 310 896 513 q 742 63 742 114 q 747 36 742 43 q 999 199 876 76 l 1003 196 l 1003 160 m 507 -169 q 447 -334 507 -251 q 293 -422 386 -417 l 275 -410 l 278 -403 q 414 -335 361 -397 q 471 -214 467 -272 l 467 -212 q 400 -240 446 -240 q 350 -222 371 -240 q 329 -175 329 -204 q 360 -108 329 -133 q 428 -83 392 -83 q 485 -106 464 -83 q 507 -169 507 -129 z "},"Ň":{"ha":1088,"x_min":-35,"x_max":1336,"o":"m 1125 1221 l 1140 1217 q 892 1022 969 1103 l 856 1022 q 742 1214 832 1096 l 753 1219 q 897 1079 835 1154 q 1125 1221 988 1139 m 888 0 q 640 -22 794 -11 l 624 -12 q 540 402 579 149 q 485 899 500 656 l 469 899 l 438 639 q 326 135 396 293 q 143 -22 257 -22 q -35 46 29 -22 l -21 65 q 39 38 3 38 q 198 208 101 38 q 368 633 294 378 l 419 803 l 246 926 l 249 946 q 496 939 371 939 q 707 943 632 939 l 719 926 q 769 452 732 711 q 849 40 806 193 l 863 40 l 875 188 q 973 785 908 604 q 1158 967 1038 967 q 1336 899 1283 967 l 1322 879 q 1264 907 1297 907 q 1094 688 1196 907 q 925 168 992 469 l 888 0 z "},"ň":{"ha":899,"x_min":18,"x_max":1003,"o":"m 843 1026 l 858 1022 q 610 828 688 908 l 574 828 q 460 1019 550 901 l 471 1025 q 615 885 553 960 q 843 1026 706 944 m 1003 160 q 840 37 942 96 q 661 -22 738 -22 q 529 106 529 -22 q 594 346 529 167 q 661 569 661 532 q 625 610 661 610 q 483 472 574 610 q 228 -22 375 300 q 115 -6 181 -21 q 18 26 49 8 q 117 315 63 129 q 182 606 172 500 l 131 671 l 135 688 q 407 708 263 708 l 425 696 q 292 247 425 528 l 311 238 q 457 499 411 432 q 744 708 599 708 q 856 670 817 708 q 896 569 896 632 q 818 310 896 513 q 742 63 742 114 q 747 36 742 43 q 999 199 876 76 l 1003 196 l 1003 160 z "},"Ō":{"ha":1011,"x_min":83,"x_max":1138,"o":"m 557 1097 l 569 1129 l 929 1129 l 917 1097 l 557 1097 m 1138 954 q 1067 753 1138 856 q 883 581 997 650 q 651 513 768 513 q 505 563 561 513 q 449 696 449 614 q 533 907 449 826 q 735 988 618 988 q 910 916 843 988 q 1000 726 976 844 q 1076 889 1076 810 q 1021 1036 1076 979 l 1026 1042 q 1115 1021 1092 1033 q 1138 954 1138 1008 m 494 703 q 540 589 494 631 q 668 547 586 547 q 761 565 710 547 q 633 917 761 917 q 537 856 579 917 q 494 703 494 796 m 760 503 q 905 564 836 521 q 1011 661 974 607 l 1011 621 q 953 374 1011 494 q 806 167 896 253 q 603 30 715 82 q 386 -22 492 -22 q 167 53 251 -22 q 83 281 83 129 q 157 527 83 411 q 332 708 231 643 q 414 599 375 669 q 360 460 379 544 q 340 293 340 376 q 377 104 340 181 q 486 28 414 28 q 670 173 586 28 q 760 503 754 318 z "},"ō":{"ha":781,"x_min":46,"x_max":1006,"o":"m 358 903 l 371 935 l 731 935 l 718 903 l 358 903 m 1006 497 q 759 372 894 421 q 506 324 624 324 q 356 368 413 324 q 299 500 299 413 q 363 690 299 615 q 532 765 428 765 q 700 681 636 765 q 764 461 764 597 q 761 401 764 438 q 999 532 890 447 l 1006 528 l 1006 497 m 343 518 q 519 354 343 354 q 543 356 535 354 q 544 414 544 375 q 522 622 544 540 q 454 703 499 703 q 378 649 413 703 q 343 518 343 594 m 538 299 q 750 346 671 311 q 565 85 700 193 q 272 -22 431 -22 q 106 39 167 -22 q 46 196 46 100 q 94 369 46 289 q 215 493 143 449 q 314 376 274 428 q 279 225 279 304 q 378 32 279 32 q 538 299 496 32 z "},"Ŏ":{"ha":1011,"x_min":83,"x_max":1138,"o":"m 975 1214 l 989 1206 q 865 1088 938 1138 q 714 1038 793 1038 q 578 1204 589 1038 l 589 1210 q 631 1115 600 1147 q 726 1083 661 1083 q 975 1214 858 1083 m 1138 954 q 1067 753 1138 856 q 883 581 997 650 q 651 513 768 513 q 505 563 561 513 q 449 696 449 614 q 533 907 449 826 q 735 988 618 988 q 910 916 843 988 q 1000 726 976 844 q 1076 889 1076 810 q 1021 1036 1076 979 l 1026 1042 q 1115 1021 1092 1033 q 1138 954 1138 1008 m 494 703 q 540 589 494 631 q 668 547 586 547 q 761 565 710 547 q 633 917 761 917 q 537 856 579 917 q 494 703 494 796 m 760 503 q 905 564 836 521 q 1011 661 974 607 l 1011 621 q 953 374 1011 494 q 806 167 896 253 q 603 30 715 82 q 386 -22 492 -22 q 167 53 251 -22 q 83 281 83 129 q 157 527 83 411 q 332 708 231 643 q 414 599 375 669 q 360 460 379 544 q 340 293 340 376 q 377 104 340 181 q 486 28 414 28 q 670 173 586 28 q 760 503 754 318 z "},"ŏ":{"ha":781,"x_min":46,"x_max":1006,"o":"m 776 1019 l 790 1011 q 667 893 739 943 q 515 843 594 843 q 379 1010 390 843 l 390 1015 q 432 921 401 953 q 528 889 463 889 q 776 1019 660 889 m 1006 497 q 759 372 894 421 q 506 324 624 324 q 356 368 413 324 q 299 500 299 413 q 363 690 299 615 q 532 765 428 765 q 700 681 636 765 q 764 461 764 597 q 761 401 764 438 q 999 532 890 447 l 1006 528 l 1006 497 m 343 518 q 519 354 343 354 q 543 356 535 354 q 544 414 544 375 q 522 622 544 540 q 454 703 499 703 q 378 649 413 703 q 343 518 343 594 m 538 299 q 750 346 671 311 q 565 85 700 193 q 272 -22 431 -22 q 106 39 167 -22 q 46 196 46 100 q 94 369 46 289 q 215 493 143 449 q 314 376 274 428 q 279 225 279 304 q 378 32 279 32 q 538 299 496 32 z "},"Ő":{"ha":1011,"x_min":83,"x_max":1138,"o":"m 608 1022 l 607 1033 q 824 1239 736 1117 l 831 1235 l 831 1178 q 608 1022 785 1124 m 746 1022 l 744 1033 q 961 1239 874 1117 l 968 1235 l 968 1178 q 746 1022 922 1124 m 1138 954 q 1067 753 1138 856 q 883 581 997 650 q 651 513 768 513 q 505 563 561 513 q 449 696 449 614 q 533 907 449 826 q 735 988 618 988 q 910 916 843 988 q 1000 726 976 844 q 1076 889 1076 810 q 1021 1036 1076 979 l 1026 1042 q 1115 1021 1092 1033 q 1138 954 1138 1008 m 494 703 q 540 589 494 631 q 668 547 586 547 q 761 565 710 547 q 633 917 761 917 q 537 856 579 917 q 494 703 494 796 m 760 503 q 905 564 836 521 q 1011 661 974 607 l 1011 621 q 953 374 1011 494 q 806 167 896 253 q 603 30 715 82 q 386 -22 492 -22 q 167 53 251 -22 q 83 281 83 129 q 157 527 83 411 q 332 708 231 643 q 414 599 375 669 q 360 460 379 544 q 340 293 340 376 q 377 104 340 181 q 486 28 414 28 q 670 173 586 28 q 760 503 754 318 z "},"ő":{"ha":781,"x_min":46,"x_max":1006,"o":"m 410 828 l 408 839 q 625 1044 538 922 l 632 1040 l 632 983 q 410 828 586 929 m 547 828 l 546 839 q 763 1044 675 922 l 769 1040 l 769 983 q 547 828 724 929 m 1006 497 q 759 372 894 421 q 506 324 624 324 q 356 368 413 324 q 299 500 299 413 q 363 690 299 615 q 532 765 428 765 q 700 681 636 765 q 764 461 764 597 q 761 401 764 438 q 999 532 890 447 l 1006 528 l 1006 497 m 343 518 q 519 354 343 354 q 543 356 535 354 q 544 414 544 375 q 522 622 544 540 q 454 703 499 703 q 378 649 413 703 q 343 518 343 594 m 538 299 q 750 346 671 311 q 565 85 700 193 q 272 -22 431 -22 q 106 39 167 -22 q 46 196 46 100 q 94 369 46 289 q 215 493 143 449 q 314 376 274 428 q 279 225 279 304 q 378 32 279 32 q 538 299 496 32 z "},"Œ":{"ha":1365,"x_min":96,"x_max":1465,"o":"m 818 -3 q 606 -4 650 -3 q 474 -22 531 -22 q 197 67 299 -22 q 96 315 96 156 q 147 569 96 447 q 279 777 197 690 q 469 915 361 864 q 690 967 578 967 q 829 950 769 967 q 1074 944 942 944 q 1267 948 1154 944 q 1404 951 1379 951 q 1465 903 1465 951 q 1301 593 1465 826 l 1272 593 q 1272 833 1290 751 q 1175 915 1257 915 l 1007 915 q 919 468 986 725 l 965 468 q 1086 498 1015 468 q 1217 576 1157 528 l 1229 571 q 1157 340 1207 457 l 1144 338 q 1061 411 1117 381 q 957 442 1006 442 l 913 442 q 765 29 832 139 l 872 29 q 992 60 931 29 q 1147 178 1069 96 q 1276 358 1224 260 l 1304 358 q 1254 79 1275 142 q 1205 14 1239 31 q 1103 -3 1171 -3 l 818 -3 m 347 329 q 386 108 347 201 q 493 15 425 15 q 525 19 511 15 q 658 374 578 101 q 767 835 738 647 q 665 931 736 931 q 520 843 594 931 q 397 614 446 756 q 347 329 347 472 z "},"œ":{"ha":1176,"x_min":78,"x_max":1297,"o":"m 1297 204 q 1071 41 1200 104 q 822 -22 942 -22 q 618 78 681 -22 q 351 -22 497 -22 q 149 47 221 -22 q 78 238 78 115 q 210 566 78 424 q 532 708 342 708 q 750 608 682 708 q 1004 708 864 708 q 1156 672 1103 708 q 1208 564 1208 635 q 1101 401 1208 474 q 829 300 993 328 l 822 318 q 968 444 907 363 q 1029 604 1029 525 q 983 667 1029 667 q 856 547 911 667 q 801 264 801 426 q 840 120 801 172 q 954 68 879 68 q 1130 114 1042 68 q 1292 242 1218 160 l 1297 239 l 1297 204 m 392 18 q 527 153 472 18 q 582 482 582 289 q 492 667 582 667 q 356 532 411 667 q 301 204 301 397 q 322 63 301 108 q 392 18 343 18 z "},"Ŕ":{"ha":1004,"x_min":-54,"x_max":1086,"o":"m 983 1178 q 838 1101 947 1151 q 649 1022 729 1050 l 649 1033 q 978 1239 883 1138 l 983 1235 l 983 1178 m 1058 -183 q 839 -257 964 -257 q 560 74 649 -257 q 504 426 528 203 q 724 564 610 450 q 839 797 839 678 q 756 894 839 894 q 615 808 693 894 q 501 592 538 722 q 372 165 453 404 q 124 -22 308 -22 q -54 79 7 -22 l -40 100 q 1 63 -25 79 q 49 47 28 47 q 128 135 97 47 q 313 854 243 457 l 172 929 l 175 946 q 535 967 331 964 l 558 956 q 482 699 553 860 l 499 688 q 652 889 551 811 q 883 967 753 967 q 1035 914 985 967 q 1086 790 1086 861 q 1052 670 1086 726 q 965 574 1018 614 q 844 503 913 535 q 712 453 775 471 q 586 424 649 435 l 590 406 q 732 418 651 406 l 739 413 q 781 163 750 297 q 864 -81 811 29 q 971 -192 917 -192 q 1054 -160 1007 -192 l 1058 -162 l 1058 -183 z "},"ŕ":{"ha":735,"x_min":14,"x_max":811,"o":"m 769 983 q 624 906 733 957 q 435 828 515 856 l 435 839 q 764 1044 669 943 l 769 1040 l 769 983 m 557 536 q 460 440 521 536 q 224 -22 351 265 q 110 -6 176 -21 q 14 26 44 8 q 117 316 60 132 q 183 606 174 500 l 132 671 l 135 688 q 408 708 265 708 l 425 696 q 289 247 415 517 l 310 235 q 461 511 415 435 l 483 544 q 510 585 504 578 q 536 619 515 592 q 570 656 557 647 q 606 681 583 665 q 651 703 628 697 q 700 708 674 708 q 778 681 749 708 q 811 610 808 654 q 696 335 778 483 l 674 335 q 557 536 621 536 z "},"Ŗ":{"ha":967,"x_min":-76,"x_max":1065,"o":"m 942 57 q 861 -1 914 19 q 747 -22 808 -22 q 567 94 624 -22 q 490 478 511 210 q 710 596 603 501 q 818 797 818 690 q 735 894 818 894 q 599 807 675 894 q 479 590 522 719 q 349 165 432 408 q 256 23 317 68 q 100 -22 196 -22 q -76 79 -15 -22 l -62 100 q -21 63 -47 79 q 26 47 6 47 q 106 135 75 47 q 289 854 218 449 l 149 929 l 151 946 q 511 967 311 964 l 536 956 q 458 699 529 857 l 481 685 q 638 889 540 811 q 863 967 735 967 q 1015 918 965 967 q 1065 800 1065 869 q 1017 667 1065 726 q 891 569 969 607 q 734 509 813 532 q 572 475 656 486 l 576 457 q 704 471 635 460 l 714 465 q 772 169 725 289 q 879 50 818 50 q 938 78 911 50 l 942 75 l 942 57 m 499 -169 q 438 -334 499 -251 q 285 -422 378 -417 l 267 -410 l 269 -403 q 406 -335 353 -397 q 463 -214 458 -272 l 458 -212 q 392 -240 438 -240 q 342 -222 363 -240 q 321 -175 321 -204 q 352 -108 321 -133 q 419 -83 383 -83 q 477 -106 456 -83 q 499 -169 499 -129 z "},"ŗ":{"ha":735,"x_min":-61,"x_max":811,"o":"m 557 536 q 460 440 521 536 q 224 -22 351 265 q 110 -6 176 -21 q 14 26 44 8 q 117 316 60 132 q 183 606 174 500 l 132 671 l 135 688 q 408 708 265 708 l 425 696 q 289 247 415 517 l 310 235 q 461 511 415 435 l 483 544 q 510 585 504 578 q 536 619 515 592 q 570 656 557 647 q 606 681 583 665 q 651 703 628 697 q 700 708 674 708 q 778 681 749 708 q 811 610 808 654 q 696 335 778 483 l 674 335 q 557 536 621 536 m 171 -169 q 110 -334 171 -251 q -43 -422 50 -417 l -61 -410 l -58 -403 q 78 -335 25 -397 q 135 -214 131 -272 l 131 -212 q 64 -240 110 -240 q 14 -222 35 -240 q -7 -175 -7 -204 q 24 -108 -7 -133 q 92 -83 56 -83 q 149 -106 128 -83 q 171 -169 171 -129 z "},"Ř":{"ha":1004,"x_min":-54,"x_max":1086,"o":"m 1000 1221 l 1015 1217 q 767 1022 844 1103 l 731 1022 q 617 1214 707 1096 l 628 1219 q 772 1079 710 1154 q 1000 1221 863 1139 m 1058 -183 q 839 -257 964 -257 q 560 74 649 -257 q 504 426 528 203 q 724 564 610 450 q 839 797 839 678 q 756 894 839 894 q 615 808 693 894 q 501 592 538 722 q 372 165 453 404 q 124 -22 308 -22 q -54 79 7 -22 l -40 100 q 1 63 -25 79 q 49 47 28 47 q 128 135 97 47 q 313 854 243 457 l 172 929 l 175 946 q 535 967 331 964 l 558 956 q 482 699 553 860 l 499 688 q 652 889 551 811 q 883 967 753 967 q 1035 914 985 967 q 1086 790 1086 861 q 1052 670 1086 726 q 965 574 1018 614 q 844 503 913 535 q 712 453 775 471 q 586 424 649 435 l 590 406 q 732 418 651 406 l 739 413 q 781 163 750 297 q 864 -81 811 29 q 971 -192 917 -192 q 1054 -160 1007 -192 l 1058 -162 l 1058 -183 z "},"ř":{"ha":735,"x_min":14,"x_max":811,"o":"m 786 1026 l 801 1022 q 553 828 631 908 l 517 828 q 403 1019 493 901 l 414 1025 q 558 885 496 960 q 786 1026 649 944 m 557 536 q 460 440 521 536 q 224 -22 351 265 q 110 -6 176 -21 q 14 26 44 8 q 117 316 60 132 q 183 606 174 500 l 132 671 l 135 688 q 408 708 265 708 l 425 696 q 289 247 415 517 l 310 235 q 461 511 415 435 l 483 544 q 510 585 504 578 q 536 619 515 592 q 570 656 557 647 q 606 681 583 665 q 651 703 628 697 q 700 708 674 708 q 778 681 749 708 q 811 610 808 654 q 696 335 778 483 l 674 335 q 557 536 621 536 z "},"Ś":{"ha":815,"x_min":36,"x_max":901,"o":"m 881 1178 q 735 1101 844 1151 q 546 1022 626 1050 l 546 1033 q 875 1239 781 1138 l 881 1235 l 881 1178 m 546 140 q 544 167 546 154 q 535 192 542 179 q 523 215 528 206 q 506 238 518 225 q 488 260 494 251 q 465 282 481 268 q 442 302 449 296 q 416 324 435 308 q 392 344 397 339 q 251 494 293 431 q 208 642 208 557 q 247 785 208 721 q 347 888 285 849 q 480 947 408 926 q 622 967 551 967 q 828 924 756 967 q 901 801 901 882 q 883 726 901 764 q 836 667 865 689 q 631 614 732 624 l 626 632 q 713 793 713 685 q 679 898 713 858 q 582 938 646 938 q 472 888 513 938 q 431 764 431 838 q 460 628 431 682 q 561 513 489 574 q 700 386 672 419 q 756 244 756 319 q 650 49 756 121 q 415 -22 544 -22 q 192 17 292 -22 q 36 129 93 56 q 143 346 76 250 l 157 346 q 199 194 169 267 q 286 65 229 121 q 413 10 343 10 q 508 47 469 10 q 546 140 546 83 z "},"ś":{"ha":674,"x_min":18,"x_max":711,"o":"m 704 983 q 559 906 668 957 q 369 828 450 856 l 369 839 q 699 1044 604 943 l 704 1040 l 704 983 m 599 189 q 516 33 599 89 q 329 -22 433 -22 q 137 10 225 -22 q 18 103 49 42 q 117 250 47 175 l 129 250 q 203 88 150 165 q 318 10 257 10 q 383 35 356 10 q 410 104 410 60 q 392 162 410 135 q 359 201 375 189 q 303 242 343 214 q 289 251 293 249 q 222 298 244 281 q 173 341 199 315 q 136 394 147 367 q 125 457 125 422 q 183 599 125 540 q 320 683 242 658 q 481 708 399 708 q 648 672 585 708 q 711 571 711 635 q 638 463 711 507 q 469 454 589 457 l 465 467 q 531 574 531 532 q 499 638 531 608 q 421 668 467 668 q 347 640 375 668 q 318 560 318 613 q 349 474 318 510 q 436 401 379 439 q 560 301 522 344 q 599 189 599 257 z "},"Ŝ":{"ha":815,"x_min":36,"x_max":901,"o":"m 461 1039 l 446 1043 q 478 1063 451 1046 q 514 1088 504 1081 q 548 1111 524 1094 q 587 1140 572 1128 q 622 1168 601 1151 q 660 1202 643 1185 q 694 1238 678 1219 l 731 1238 q 844 1046 751 1171 l 833 1040 q 690 1181 743 1115 q 461 1039 569 1100 m 546 140 q 544 167 546 154 q 535 192 542 179 q 523 215 528 206 q 506 238 518 225 q 488 260 494 251 q 465 282 481 268 q 442 302 449 296 q 416 324 435 308 q 392 344 397 339 q 251 494 293 431 q 208 642 208 557 q 247 785 208 721 q 347 888 285 849 q 480 947 408 926 q 622 967 551 967 q 828 924 756 967 q 901 801 901 882 q 883 726 901 764 q 836 667 865 689 q 631 614 732 624 l 626 632 q 713 793 713 685 q 679 898 713 858 q 582 938 646 938 q 472 888 513 938 q 431 764 431 838 q 460 628 431 682 q 561 513 489 574 q 700 386 672 419 q 756 244 756 319 q 650 49 756 121 q 415 -22 544 -22 q 192 17 292 -22 q 36 129 93 56 q 143 346 76 250 l 157 346 q 199 194 169 267 q 286 65 229 121 q 413 10 343 10 q 508 47 469 10 q 546 140 546 83 z "},"ŝ":{"ha":674,"x_min":18,"x_max":711,"o":"m 285 844 l 269 849 q 301 869 275 851 q 338 893 328 886 q 372 917 347 900 q 410 945 396 933 q 446 974 425 957 q 484 1008 467 990 q 518 1043 501 1025 l 554 1043 q 668 851 575 976 l 657 846 q 514 986 567 921 q 285 844 393 906 m 599 189 q 516 33 599 89 q 329 -22 433 -22 q 137 10 225 -22 q 18 103 49 42 q 117 250 47 175 l 129 250 q 203 88 150 165 q 318 10 257 10 q 383 35 356 10 q 410 104 410 60 q 392 162 410 135 q 359 201 375 189 q 303 242 343 214 q 289 251 293 249 q 222 298 244 281 q 173 341 199 315 q 136 394 147 367 q 125 457 125 422 q 183 599 125 540 q 320 683 242 658 q 481 708 399 708 q 648 672 585 708 q 711 571 711 635 q 638 463 711 507 q 469 454 589 457 l 465 467 q 531 574 531 532 q 499 638 531 608 q 421 668 467 668 q 347 640 375 668 q 318 560 318 613 q 349 474 318 510 q 436 401 379 439 q 560 301 522 344 q 599 189 599 257 z "},"Ş":{"ha":815,"x_min":36,"x_max":901,"o":"m 546 140 q 544 167 546 154 q 535 192 542 179 q 523 215 528 206 q 506 238 518 225 q 488 260 494 251 q 465 282 481 268 q 442 302 449 296 q 416 324 435 308 q 392 344 397 339 q 251 494 293 431 q 208 642 208 557 q 247 785 208 721 q 347 888 285 849 q 480 947 408 926 q 622 967 551 967 q 828 924 756 967 q 901 801 901 882 q 883 726 901 764 q 836 667 865 689 q 631 614 732 624 l 626 632 q 713 793 713 685 q 679 898 713 858 q 582 938 646 938 q 472 888 513 938 q 431 764 431 838 q 460 628 431 682 q 561 513 489 574 q 700 386 672 419 q 756 244 756 319 q 650 49 756 121 q 415 -22 544 -22 q 192 17 292 -22 q 36 129 93 56 q 143 346 76 250 l 157 346 q 199 194 169 267 q 286 65 229 121 q 413 10 343 10 q 508 47 469 10 q 546 140 546 83 m 364 -93 l 363 -87 l 379 -83 q 467 -113 432 -86 q 501 -189 501 -140 q 433 -301 501 -257 q 264 -347 364 -346 l 250 -336 l 250 -332 q 390 -294 335 -332 q 446 -194 446 -256 q 364 -93 446 -112 z "},"ş":{"ha":674,"x_min":18,"x_max":711,"o":"m 599 189 q 516 33 599 89 q 329 -22 433 -22 q 137 10 225 -22 q 18 103 49 42 q 117 250 47 175 l 129 250 q 203 88 150 165 q 318 10 257 10 q 383 35 356 10 q 410 104 410 60 q 392 162 410 135 q 359 201 375 189 q 303 242 343 214 q 289 251 293 249 q 222 298 244 281 q 173 341 199 315 q 136 394 147 367 q 125 457 125 422 q 183 599 125 540 q 320 683 242 658 q 481 708 399 708 q 648 672 585 708 q 711 571 711 635 q 638 463 711 507 q 469 454 589 457 l 465 467 q 531 574 531 532 q 499 638 531 608 q 421 668 467 668 q 347 640 375 668 q 318 560 318 613 q 349 474 318 510 q 436 401 379 439 q 560 301 522 344 q 599 189 599 257 m 256 -93 l 254 -87 l 271 -83 q 358 -113 324 -86 q 393 -189 393 -140 q 324 -301 393 -257 q 156 -347 256 -346 l 142 -336 l 142 -332 q 282 -294 226 -332 q 338 -194 338 -256 q 256 -93 338 -112 z "},"Š":{"ha":815,"x_min":36,"x_max":913,"o":"m 897 1221 l 913 1217 q 664 1022 742 1103 l 628 1022 q 514 1214 604 1096 l 525 1219 q 669 1079 607 1154 q 897 1221 760 1139 m 546 140 q 544 167 546 154 q 535 192 542 179 q 523 215 528 206 q 506 238 518 225 q 488 260 494 251 q 465 282 481 268 q 442 302 449 296 q 416 324 435 308 q 392 344 397 339 q 251 494 293 431 q 208 642 208 557 q 247 785 208 721 q 347 888 285 849 q 480 947 408 926 q 622 967 551 967 q 828 924 756 967 q 901 801 901 882 q 883 726 901 764 q 836 667 865 689 q 631 614 732 624 l 626 632 q 713 793 713 685 q 679 898 713 858 q 582 938 646 938 q 472 888 513 938 q 431 764 431 838 q 460 628 431 682 q 561 513 489 574 q 700 386 672 419 q 756 244 756 319 q 650 49 756 121 q 415 -22 544 -22 q 192 17 292 -22 q 36 129 93 56 q 143 346 76 250 l 157 346 q 199 194 169 267 q 286 65 229 121 q 413 10 343 10 q 508 47 469 10 q 546 140 546 83 z "},"š":{"ha":674,"x_min":18,"x_max":736,"o":"m 721 1026 l 736 1022 q 488 828 565 908 l 451 828 q 338 1019 428 901 l 349 1025 q 493 885 431 960 q 721 1026 583 944 m 599 189 q 516 33 599 89 q 329 -22 433 -22 q 137 10 225 -22 q 18 103 49 42 q 117 250 47 175 l 129 250 q 203 88 150 165 q 318 10 257 10 q 383 35 356 10 q 410 104 410 60 q 392 162 410 135 q 359 201 375 189 q 303 242 343 214 q 289 251 293 249 q 222 298 244 281 q 173 341 199 315 q 136 394 147 367 q 125 457 125 422 q 183 599 125 540 q 320 683 242 658 q 481 708 399 708 q 648 672 585 708 q 711 571 711 635 q 638 463 711 507 q 469 454 589 457 l 465 467 q 531 574 531 532 q 499 638 531 608 q 421 668 467 668 q 347 640 375 668 q 318 560 318 613 q 349 474 318 510 q 436 401 379 439 q 560 301 522 344 q 599 189 599 257 z "},"Ť":{"ha":1063,"x_min":171,"x_max":1193,"o":"m 976 1221 l 992 1217 q 743 1022 821 1103 l 707 1022 q 593 1214 683 1096 l 604 1219 q 749 1079 686 1154 q 976 1221 839 1139 m 622 165 q 531 23 592 68 q 374 -22 469 -22 q 197 79 258 -22 l 211 100 q 253 63 226 79 q 300 47 279 47 q 379 135 350 47 q 575 915 508 519 l 501 915 q 292 683 403 915 q 200 436 238 569 l 171 436 q 199 865 181 768 q 288 950 208 950 q 419 947 313 950 q 599 944 526 944 l 808 944 q 996 947 882 944 q 1133 950 1110 950 q 1177 938 1161 950 q 1193 903 1193 925 q 1186 858 1193 885 q 1165 794 1179 831 q 1138 726 1151 758 q 1101 647 1124 693 q 1065 572 1079 600 q 1028 498 1051 544 q 997 436 1004 451 l 967 436 q 993 738 993 611 q 972 870 993 825 q 890 915 950 915 l 808 915 q 729 537 783 753 q 622 165 675 321 z "},"ť":{"ha":486,"x_min":81,"x_max":646,"o":"m 586 1058 l 646 1058 q 529 769 613 890 l 517 769 q 569 913 554 851 q 586 1058 585 975 m 625 192 q 435 49 556 119 q 226 -22 314 -22 q 121 13 161 -22 q 81 114 81 49 q 167 524 81 208 q 189 608 178 563 l 119 608 l 133 640 l 200 640 q 371 763 292 672 q 469 944 450 853 l 503 926 q 435 640 485 814 l 579 640 l 565 608 l 425 608 q 413 565 421 596 q 401 526 404 533 q 297 61 297 185 q 303 31 297 42 q 468 108 367 43 q 621 229 569 174 l 625 225 l 625 192 z "},"Ŧ":{"ha":1063,"x_min":171,"x_max":1193,"o":"m 622 165 q 531 23 592 68 q 374 -22 469 -22 q 197 79 258 -22 l 211 100 q 253 63 226 79 q 300 47 279 47 q 379 135 350 47 q 471 447 426 281 l 339 447 l 353 479 l 479 479 q 575 915 543 715 l 501 915 q 292 683 403 915 q 200 436 238 569 l 171 436 q 199 865 179 760 q 288 950 208 950 q 419 947 313 950 q 599 944 526 944 l 808 944 q 996 947 882 944 q 1133 950 1110 950 q 1177 938 1161 950 q 1193 903 1193 925 q 997 436 1193 824 l 967 436 q 993 738 993 611 q 972 870 993 825 q 890 915 950 915 l 808 915 q 714 479 776 726 l 846 479 l 832 447 l 706 447 q 622 165 656 263 z "},"ŧ":{"ha":488,"x_min":75,"x_max":626,"o":"m 626 192 q 436 49 557 119 q 228 -22 315 -22 q 122 13 163 -22 q 82 114 82 49 q 136 400 82 211 l 147 442 l 75 442 l 89 474 l 156 474 q 170 529 157 478 q 190 608 183 581 l 121 608 l 135 640 l 201 640 q 372 763 293 672 q 471 944 451 853 l 504 926 q 436 640 486 814 l 581 640 l 567 608 l 426 608 q 388 474 406 546 l 490 474 l 476 442 l 378 442 l 363 385 q 299 61 299 142 q 304 31 299 42 q 469 108 368 43 q 622 229 571 174 l 626 225 l 626 192 z "},"Ũ":{"ha":990,"x_min":157,"x_max":1033,"o":"m 592 1143 q 536 1120 561 1143 q 476 1049 511 1097 l 464 1051 q 617 1175 543 1175 q 701 1128 651 1175 q 786 1081 751 1081 q 842 1103 817 1081 q 901 1175 867 1126 l 914 1172 q 761 1049 838 1049 q 735 1056 749 1049 q 713 1068 721 1063 q 688 1090 706 1074 q 667 1108 671 1106 q 592 1143 626 1143 m 886 297 q 468 -22 704 -22 q 240 47 318 -22 q 161 226 161 115 q 206 442 161 286 q 296 856 283 751 l 157 931 l 158 946 q 525 967 322 967 l 544 953 q 457 471 528 771 q 392 126 392 192 q 506 21 392 21 q 804 306 692 21 q 871 671 871 474 q 754 926 871 865 l 756 943 q 974 967 869 964 q 1033 835 1033 928 q 994 569 1033 719 q 886 297 954 419 z "},"ũ":{"ha":871,"x_min":64,"x_max":993,"o":"m 474 949 q 418 926 443 949 q 358 854 393 903 l 346 857 q 499 981 425 981 q 583 933 533 981 q 668 886 633 886 q 724 909 699 886 q 783 981 749 932 l 796 978 q 643 854 719 854 q 617 861 631 854 q 595 874 603 868 q 570 895 588 879 q 549 914 553 911 q 474 949 508 949 m 993 150 q 835 33 932 88 q 661 -22 738 -22 q 565 10 599 -22 q 531 103 531 43 q 625 407 531 199 l 601 414 q 547 308 557 326 q 496 210 517 249 q 441 122 475 171 q 376 45 407 74 q 301 -3 344 17 q 211 -22 258 -22 q 103 17 142 -22 q 64 121 64 57 q 133 361 64 172 q 203 614 203 550 q 179 643 203 643 q 106 619 149 643 l 103 622 l 108 654 q 290 708 217 708 q 389 675 356 708 q 422 581 422 642 q 360 344 422 526 q 299 119 299 164 q 335 76 299 76 q 475 232 386 76 q 686 708 568 396 q 801 678 743 703 q 885 628 858 654 q 807 358 882 588 q 732 56 732 129 q 738 31 732 38 q 989 190 875 74 l 993 186 l 993 150 z "},"Ū":{"ha":990,"x_min":157,"x_max":1033,"o":"m 503 1097 l 515 1129 l 875 1129 l 863 1097 l 503 1097 m 886 297 q 468 -22 704 -22 q 240 47 318 -22 q 161 226 161 115 q 206 442 161 286 q 296 856 283 751 l 157 931 l 158 946 q 525 967 322 967 l 544 953 q 457 471 528 771 q 392 126 392 192 q 506 21 392 21 q 804 306 692 21 q 871 671 871 474 q 754 926 871 865 l 756 943 q 974 967 869 964 q 1033 835 1033 928 q 994 569 1033 719 q 886 297 954 419 z "},"ū":{"ha":871,"x_min":64,"x_max":993,"o":"m 385 903 l 397 935 l 757 935 l 744 903 l 385 903 m 993 150 q 835 33 932 88 q 661 -22 738 -22 q 565 10 599 -22 q 531 103 531 43 q 625 407 531 199 l 601 414 q 547 308 557 326 q 496 210 517 249 q 441 122 475 171 q 376 45 407 74 q 301 -3 344 17 q 211 -22 258 -22 q 103 17 142 -22 q 64 121 64 57 q 133 361 64 172 q 203 614 203 550 q 179 643 203 643 q 106 619 149 643 l 103 622 l 108 654 q 290 708 217 708 q 389 675 356 708 q 422 581 422 642 q 360 344 422 526 q 299 119 299 164 q 335 76 299 76 q 475 232 386 76 q 686 708 568 396 q 801 678 743 703 q 885 628 858 654 q 807 358 882 588 q 732 56 732 129 q 738 31 732 38 q 989 190 875 74 l 993 186 l 993 150 z "},"Ŭ":{"ha":990,"x_min":157,"x_max":1033,"o":"m 921 1214 l 935 1206 q 811 1088 883 1138 q 660 1038 739 1038 q 524 1204 535 1038 l 535 1210 q 576 1115 546 1147 q 672 1083 607 1083 q 921 1214 804 1083 m 886 297 q 468 -22 704 -22 q 240 47 318 -22 q 161 226 161 115 q 206 442 161 286 q 296 856 283 751 l 157 931 l 158 946 q 525 967 322 967 l 544 953 q 457 471 528 771 q 392 126 392 192 q 506 21 392 21 q 804 306 692 21 q 871 671 871 474 q 754 926 871 865 l 756 943 q 974 967 869 964 q 1033 835 1033 928 q 994 569 1033 719 q 886 297 954 419 z "},"ŭ":{"ha":871,"x_min":64,"x_max":993,"o":"m 803 1019 l 817 1011 q 693 893 765 943 q 542 843 621 843 q 406 1010 417 843 l 417 1015 q 458 921 428 953 q 554 889 489 889 q 803 1019 686 889 m 993 150 q 835 33 932 88 q 661 -22 738 -22 q 565 10 599 -22 q 531 103 531 43 q 625 407 531 199 l 601 414 q 547 308 557 326 q 496 210 517 249 q 441 122 475 171 q 376 45 407 74 q 301 -3 344 17 q 211 -22 258 -22 q 103 17 142 -22 q 64 121 64 57 q 133 361 64 172 q 203 614 203 550 q 179 643 203 643 q 106 619 149 643 l 103 622 l 108 654 q 290 708 217 708 q 389 675 356 708 q 422 581 422 642 q 360 344 422 526 q 299 119 299 164 q 335 76 299 76 q 475 232 386 76 q 686 708 568 396 q 801 678 743 703 q 885 628 858 654 q 807 358 882 588 q 732 56 732 129 q 738 31 732 38 q 989 190 875 74 l 993 186 l 993 150 z "},"Ů":{"ha":990,"x_min":157,"x_max":1033,"o":"m 685 1007 q 599 1036 629 1007 q 568 1113 568 1065 q 617 1221 568 1181 q 732 1261 667 1261 q 816 1233 786 1261 q 846 1158 846 1204 q 798 1048 846 1089 q 685 1007 750 1007 m 689 1044 q 790 1074 747 1044 q 833 1154 833 1104 q 806 1204 833 1185 q 726 1224 778 1224 q 624 1194 668 1224 q 581 1115 581 1165 q 609 1064 581 1083 q 689 1044 638 1044 m 886 297 q 468 -22 704 -22 q 240 47 318 -22 q 161 226 161 115 q 206 442 161 286 q 296 856 283 751 l 157 931 l 158 946 q 525 967 322 967 l 544 953 q 457 471 528 771 q 392 126 392 192 q 506 21 392 21 q 804 306 692 21 q 871 671 871 474 q 754 926 871 865 l 756 943 q 974 967 869 964 q 1033 835 1033 928 q 994 569 1033 719 q 886 297 954 419 z "},"ů":{"ha":871,"x_min":64,"x_max":993,"o":"m 567 813 q 481 842 511 813 q 450 918 450 871 q 499 1026 450 986 q 614 1067 549 1067 q 698 1038 668 1067 q 728 964 728 1010 q 680 853 728 894 q 567 813 632 813 m 571 850 q 672 880 629 850 q 715 960 715 910 q 688 1010 715 990 q 608 1029 660 1029 q 506 1000 550 1029 q 463 921 463 971 q 491 869 463 889 q 571 850 519 850 m 993 150 q 835 33 932 88 q 661 -22 738 -22 q 565 10 599 -22 q 531 103 531 43 q 625 407 531 199 l 601 414 q 547 308 557 326 q 496 210 517 249 q 441 122 475 171 q 376 45 407 74 q 301 -3 344 17 q 211 -22 258 -22 q 103 17 142 -22 q 64 121 64 57 q 133 361 64 172 q 203 614 203 550 q 179 643 203 643 q 106 619 149 643 l 103 622 l 108 654 q 290 708 217 708 q 389 675 356 708 q 422 581 422 642 q 360 344 422 526 q 299 119 299 164 q 335 76 299 76 q 475 232 386 76 q 686 708 568 396 q 801 678 743 703 q 885 628 858 654 q 807 358 882 588 q 732 56 732 129 q 738 31 732 38 q 989 190 875 74 l 993 186 l 993 150 z "},"Ű":{"ha":990,"x_min":157,"x_max":1033,"o":"m 554 1022 l 553 1033 q 769 1239 682 1117 l 776 1235 l 776 1178 q 554 1022 731 1124 m 692 1022 l 690 1033 q 907 1239 819 1117 l 914 1235 l 914 1178 q 692 1022 868 1124 m 886 297 q 468 -22 704 -22 q 240 47 318 -22 q 161 226 161 115 q 206 442 161 286 q 296 856 283 751 l 157 931 l 158 946 q 525 967 322 967 l 544 953 q 457 471 528 771 q 392 126 392 192 q 506 21 392 21 q 804 306 692 21 q 871 671 871 474 q 754 926 871 865 l 756 943 q 974 967 869 964 q 1033 835 1033 928 q 994 569 1033 719 q 886 297 954 419 z "},"ű":{"ha":871,"x_min":64,"x_max":993,"o":"m 436 828 l 435 839 q 651 1044 564 922 l 658 1040 l 658 983 q 436 828 613 929 m 574 828 l 572 839 q 789 1044 701 922 l 796 1040 l 796 983 q 574 828 750 929 m 993 150 q 835 33 932 88 q 661 -22 738 -22 q 565 10 599 -22 q 531 103 531 43 q 625 407 531 199 l 601 414 q 547 308 557 326 q 496 210 517 249 q 441 122 475 171 q 376 45 407 74 q 301 -3 344 17 q 211 -22 258 -22 q 103 17 142 -22 q 64 121 64 57 q 133 361 64 172 q 203 614 203 550 q 179 643 203 643 q 106 619 149 643 l 103 622 l 108 654 q 290 708 217 708 q 389 675 356 708 q 422 581 422 642 q 360 344 422 526 q 299 119 299 164 q 335 76 299 76 q 475 232 386 76 q 686 708 568 396 q 801 678 743 703 q 885 628 858 654 q 807 358 882 588 q 732 56 732 129 q 738 31 732 38 q 989 190 875 74 l 993 186 l 993 150 z "},"Ų":{"ha":990,"x_min":157,"x_max":1033,"o":"m 550 -329 q 472 -347 514 -347 q 394 -322 424 -347 q 365 -254 365 -297 q 414 -129 365 -194 q 543 -12 463 -64 q 468 -22 501 -22 q 240 47 318 -22 q 161 226 161 115 q 206 442 161 286 q 296 856 283 751 l 157 931 l 158 946 q 525 967 322 967 l 544 953 q 457 471 528 771 q 392 126 392 192 q 506 21 392 21 q 804 306 692 21 q 871 671 871 474 q 754 926 871 865 l 756 943 q 974 967 869 964 q 1033 835 1033 928 q 994 569 1033 719 q 886 297 954 419 q 613 7 764 85 q 473 -106 519 -42 q 426 -221 426 -169 q 448 -278 426 -257 q 508 -300 469 -300 q 565 -289 539 -300 l 568 -293 l 550 -329 z "},"ų":{"ha":871,"x_min":64,"x_max":993,"o":"m 736 -329 q 658 -347 700 -347 q 581 -322 610 -347 q 551 -254 551 -297 q 753 -4 551 -143 q 661 -22 701 -22 q 565 10 599 -22 q 531 103 531 43 q 625 407 531 199 l 601 414 q 547 308 557 324 q 496 210 517 249 q 441 122 475 171 q 376 45 407 74 q 301 -3 344 17 q 211 -22 258 -22 q 103 17 142 -22 q 64 121 64 57 q 133 361 64 172 q 203 614 203 550 q 179 643 203 643 q 106 619 149 643 l 103 622 l 108 654 q 290 708 217 708 q 389 675 356 708 q 422 581 422 642 q 360 344 422 526 q 299 119 299 164 q 335 76 299 76 q 475 232 386 76 q 686 708 568 396 q 801 678 743 703 q 885 628 858 654 q 807 358 882 588 q 732 56 732 129 q 738 31 732 38 q 989 190 875 74 l 993 186 l 993 150 q 818 19 946 101 q 613 -221 613 -111 q 634 -278 613 -257 q 694 -300 656 -300 q 751 -289 725 -300 l 754 -293 l 736 -329 z "},"Ŵ":{"ha":1396,"x_min":140,"x_max":1474,"o":"m 758 1039 l 743 1043 q 775 1063 749 1046 q 811 1088 801 1081 q 845 1111 821 1094 q 884 1140 869 1128 q 919 1168 899 1151 q 958 1202 940 1185 q 992 1238 975 1219 l 1028 1238 q 1142 1046 1049 1171 l 1131 1040 q 988 1181 1040 1115 q 758 1039 867 1100 m 1474 847 q 1436 675 1474 778 q 1219 313 1389 540 q 908 -22 1049 86 q 761 22 843 -18 q 794 464 788 239 q 598 194 710 328 q 386 -22 486 60 q 231 22 308 -17 q 269 582 269 331 q 254 843 269 733 l 140 929 l 142 944 q 481 967 290 964 l 500 951 q 513 671 513 824 q 464 128 513 408 l 494 126 q 708 411 629 269 q 794 668 788 553 q 772 864 790 760 q 989 944 942 931 l 1017 931 q 1029 671 1029 811 q 985 128 1029 383 l 1015 128 q 1234 424 1156 276 q 1313 689 1313 572 q 1194 926 1313 857 l 1197 943 q 1411 967 1300 964 q 1474 847 1474 929 z "},"ŵ":{"ha":1190,"x_min":92,"x_max":1401,"o":"m 511 844 l 496 849 q 528 869 501 851 q 564 893 554 886 q 598 917 574 900 q 637 945 622 933 q 672 974 651 957 q 710 1008 693 990 q 744 1043 728 1025 l 781 1043 q 894 851 801 976 l 883 846 q 740 986 793 921 q 511 844 619 906 m 1394 399 q 1114 321 1232 321 q 953 372 1018 321 q 889 543 889 424 q 944 730 889 657 q 1092 803 1000 803 q 1191 765 1150 803 q 1232 657 1232 726 q 1128 354 1232 524 q 1142 353 1132 353 q 1397 438 1236 353 l 1401 435 l 1394 399 m 935 546 q 1007 378 935 422 q 1057 646 1057 535 q 1015 739 1057 739 q 957 679 979 739 q 935 546 935 619 m 615 661 q 833 607 753 649 q 769 333 794 476 q 744 110 744 190 q 785 50 744 50 q 885 131 825 50 q 988 324 944 211 q 1093 300 1025 303 q 883 72 1001 167 q 675 -22 765 -22 q 570 14 607 -22 q 533 113 533 50 q 560 260 533 168 l 546 264 q 410 52 482 126 q 239 -22 338 -22 q 131 15 171 -22 q 92 113 92 51 q 144 353 92 172 q 196 610 196 524 q 172 644 196 644 q 118 629 146 644 l 114 632 l 119 661 q 282 708 201 708 q 414 582 414 708 q 363 342 414 525 q 311 96 311 163 q 344 50 311 50 q 458 172 385 50 q 576 440 532 293 q 615 661 597 551 z "},"Ŷ":{"ha":968,"x_min":118,"x_max":1082,"o":"m 543 1039 l 528 1043 q 560 1063 533 1046 q 596 1088 586 1081 q 630 1111 606 1094 q 669 1140 654 1128 q 704 1168 683 1151 q 742 1202 725 1185 q 776 1238 760 1219 l 813 1238 q 926 1046 833 1171 l 915 1040 q 772 1181 825 1115 q 543 1039 651 1100 m 893 329 q 703 74 835 169 q 414 -22 572 -22 q 215 23 301 -22 q 118 150 128 68 q 205 245 143 199 q 335 322 267 292 q 258 374 286 338 q 231 460 231 411 q 285 661 231 510 q 339 861 335 797 l 203 931 l 204 946 q 372 960 247 953 q 557 967 497 967 l 575 954 q 518 682 575 858 q 463 456 463 513 q 504 413 463 413 q 640 528 557 413 q 794 825 722 644 q 860 967 828 881 q 1075 942 953 965 l 1082 925 q 1001 664 1075 904 q 893 329 928 424 m 324 213 q 367 69 324 129 q 492 10 411 10 q 546 35 519 10 q 597 113 572 61 q 641 215 622 164 q 685 340 660 265 q 792 663 772 611 l 771 661 q 658 486 717 558 q 394 314 525 314 q 378 315 389 314 q 363 315 368 315 q 324 213 324 268 z "},"ŷ":{"ha":829,"x_min":-50,"x_max":865,"o":"m 385 844 l 369 849 q 401 869 375 851 q 438 893 428 886 q 472 917 447 900 q 510 945 496 933 q 546 974 525 957 q 584 1008 567 990 q 618 1043 601 1025 l 654 1043 q 768 851 675 976 l 757 846 q 614 986 667 921 q 385 844 493 906 m 679 18 q 494 -249 615 -150 q 225 -347 374 -347 q 41 -301 122 -347 q -50 -171 -40 -256 q 38 -58 -22 -117 q 157 28 99 0 q 64 163 64 57 q 138 394 64 217 q 206 614 206 556 q 182 644 206 644 q 126 629 151 644 l 124 632 l 129 661 q 292 708 207 708 q 424 582 424 708 q 365 374 424 529 q 299 163 299 207 q 335 118 299 118 q 465 250 385 118 q 661 699 565 419 q 778 660 719 686 q 865 597 838 633 q 835 497 861 583 q 784 334 808 411 q 729 164 760 257 q 679 18 699 71 m 147 -92 q 195 -240 147 -175 q 319 -304 243 -304 q 387 -235 354 -304 q 463 -37 419 -167 q 501 92 476 10 q 544 238 525 175 q 578 343 563 300 l 553 339 q 493 235 519 276 q 215 19 358 19 q 185 22 204 19 q 147 -92 147 -36 z "},"Ÿ":{"ha":968,"x_min":118,"x_max":1082,"o":"m 604 1043 q 560 1060 578 1043 q 542 1103 542 1076 q 568 1163 542 1140 q 626 1186 594 1186 q 670 1169 653 1186 q 688 1126 688 1151 q 662 1066 688 1089 q 604 1043 636 1043 m 867 1043 q 822 1060 839 1043 q 804 1103 804 1076 q 831 1163 804 1140 q 889 1186 857 1186 q 933 1169 915 1186 q 950 1126 950 1151 q 924 1066 950 1089 q 867 1043 899 1043 m 893 329 q 703 74 835 169 q 414 -22 572 -22 q 215 23 301 -22 q 118 150 128 68 q 205 245 143 199 q 335 322 267 292 q 258 374 286 338 q 231 460 231 411 q 285 661 231 510 q 339 861 335 797 l 203 931 l 204 946 q 372 960 247 953 q 557 967 497 967 l 575 954 q 518 682 575 858 q 463 456 463 513 q 504 413 463 413 q 640 528 557 413 q 794 825 722 644 q 860 967 828 881 q 1075 942 953 965 l 1082 925 q 1001 664 1075 904 q 893 329 928 424 m 324 213 q 367 69 324 129 q 492 10 411 10 q 546 35 519 10 q 597 113 572 61 q 641 215 622 164 q 685 340 660 265 q 792 663 772 611 l 771 661 q 658 486 717 558 q 394 314 525 314 q 378 315 389 314 q 363 315 368 315 q 324 213 324 268 z "},"Ź":{"ha":826,"x_min":-11,"x_max":974,"o":"m 907 1178 q 762 1101 871 1151 q 572 1022 653 1050 l 572 1033 q 901 1239 807 1138 l 907 1235 l 907 1178 m 154 -15 l 144 -33 q -11 -10 63 -31 q 271 390 43 217 q 536 544 349 443 q 782 700 724 646 l 764 728 q 643 685 719 685 q 481 726 597 685 q 311 767 364 767 q 193 668 247 767 l 169 685 q 463 967 301 967 q 676 915 543 967 q 850 863 808 863 q 890 897 890 863 q 810 999 818 943 l 819 1014 q 974 992 907 1008 q 736 600 908 731 q 435 412 622 515 q 182 257 247 308 l 196 235 q 322 285 256 285 q 513 221 390 285 q 674 157 635 157 q 733 176 708 157 q 788 244 757 196 l 810 231 q 685 51 763 124 q 526 -22 607 -22 q 369 14 449 -22 q 224 86 289 50 q 117 122 158 122 q 76 86 76 122 q 154 -15 144 38 z "},"ź":{"ha":679,"x_min":-22,"x_max":764,"o":"m 732 985 q 587 908 696 958 q 397 829 478 857 l 397 840 q 726 1046 632 944 l 732 1042 l 732 985 m 86 94 q 53 72 53 94 q 117 -19 106 36 l 110 -33 q -22 -14 38 -31 l 8 78 q 55 171 25 129 q 113 238 85 213 q 193 290 142 264 q 275 328 244 317 q 368 363 306 340 q 388 369 381 367 q 576 460 540 433 q 599 478 589 468 l 586 501 q 478 464 540 464 q 351 497 436 464 q 221 529 267 529 q 121 449 172 529 l 101 461 q 332 706 203 706 q 508 663 394 706 q 661 621 622 621 q 692 643 692 621 q 625 733 639 682 l 632 747 q 764 728 706 743 l 733 629 q 707 560 724 592 q 674 506 690 529 q 629 460 657 482 q 581 425 601 439 q 523 394 561 411 q 461 367 485 376 q 392 340 438 358 q 142 215 194 267 l 154 194 q 261 229 206 229 q 346 184 299 229 q 431 85 393 139 q 516 -15 469 31 q 599 -60 563 -60 q 647 -46 626 -60 q 694 6 667 -32 l 713 -7 q 604 -152 674 -89 q 468 -215 535 -215 q 378 -183 424 -215 q 296 -106 333 -151 q 224 -15 258 -61 q 153 63 189 31 q 86 94 117 94 z "},"Ż":{"ha":826,"x_min":-11,"x_max":974,"o":"m 653 1029 q 592 1051 617 1029 q 568 1106 568 1072 q 606 1183 568 1153 q 686 1214 643 1214 q 747 1192 724 1214 q 771 1138 771 1171 q 734 1059 771 1089 q 653 1029 697 1029 m 154 -15 l 144 -33 q -11 -10 63 -31 q 271 390 43 217 q 536 544 349 443 q 782 700 724 646 l 764 728 q 643 685 719 685 q 481 726 597 685 q 311 767 364 767 q 193 668 247 767 l 169 685 q 463 967 301 967 q 676 915 543 967 q 850 863 808 863 q 890 897 890 863 q 810 999 818 943 l 819 1014 q 974 992 907 1008 q 736 600 908 731 q 435 412 622 515 q 182 257 247 308 l 196 235 q 322 285 256 285 q 513 221 390 285 q 674 157 635 157 q 733 176 708 157 q 788 244 757 196 l 810 231 q 685 51 763 124 q 526 -22 607 -22 q 369 14 449 -22 q 224 86 289 50 q 117 122 158 122 q 76 86 76 122 q 154 -15 144 38 z "},"ż":{"ha":679,"x_min":-22,"x_max":764,"o":"m 478 836 q 417 858 442 836 q 393 913 393 879 q 431 990 393 960 q 511 1021 468 1021 q 572 999 549 1021 q 596 944 596 978 q 559 866 596 896 q 478 836 522 836 m 86 94 q 53 72 53 94 q 117 -19 106 36 l 110 -33 q -22 -14 38 -31 l 8 78 q 55 171 25 129 q 113 238 85 213 q 193 290 142 264 q 275 328 244 317 q 368 363 306 340 q 388 369 381 367 q 576 460 540 433 q 599 478 589 468 l 586 501 q 478 464 540 464 q 351 497 436 464 q 221 529 267 529 q 121 449 172 529 l 101 461 q 332 706 203 706 q 508 663 394 706 q 661 621 622 621 q 692 643 692 621 q 625 733 639 682 l 632 747 q 764 728 706 743 l 733 629 q 707 560 724 592 q 674 506 690 529 q 629 460 657 482 q 581 425 601 439 q 523 394 561 411 q 461 367 485 376 q 392 340 438 358 q 142 215 194 267 l 154 194 q 261 229 206 229 q 346 184 299 229 q 431 85 393 139 q 516 -15 469 31 q 599 -60 563 -60 q 647 -46 626 -60 q 694 6 667 -32 l 713 -7 q 604 -152 674 -89 q 468 -215 535 -215 q 378 -183 424 -215 q 296 -106 333 -151 q 224 -15 258 -61 q 153 63 189 31 q 86 94 117 94 z "},"Ž":{"ha":826,"x_min":-11,"x_max":974,"o":"m 924 1221 l 939 1217 q 690 1022 768 1103 l 654 1022 q 540 1214 631 1096 l 551 1219 q 696 1079 633 1154 q 924 1221 786 1139 m 154 -15 l 144 -33 q -11 -10 63 -31 q 271 390 43 217 q 536 544 349 443 q 782 700 724 646 l 764 728 q 643 685 719 685 q 481 726 597 685 q 311 767 364 767 q 193 668 247 767 l 169 685 q 463 967 301 967 q 676 915 543 967 q 850 863 808 863 q 890 897 890 863 q 810 999 818 943 l 819 1014 q 974 992 907 1008 q 736 600 908 731 q 435 412 622 515 q 182 257 247 308 l 196 235 q 322 285 256 285 q 513 221 390 285 q 674 157 635 157 q 733 176 708 157 q 788 244 757 196 l 810 231 q 685 51 763 124 q 526 -22 607 -22 q 369 14 449 -22 q 224 86 289 50 q 117 122 158 122 q 76 86 76 122 q 154 -15 144 38 z "},"ž":{"ha":679,"x_min":-22,"x_max":764,"o":"m 749 1028 l 764 1024 q 515 829 593 910 l 479 829 q 365 1021 456 903 l 376 1026 q 521 886 458 961 q 749 1028 611 946 m 86 94 q 53 72 53 94 q 117 -19 106 36 l 110 -33 q -22 -14 38 -31 l 8 78 q 55 171 25 129 q 113 238 85 213 q 193 290 142 264 q 275 328 244 317 q 368 363 306 340 q 388 369 381 367 q 576 460 540 433 q 599 478 589 468 l 586 501 q 478 464 540 464 q 351 497 436 464 q 221 529 267 529 q 121 449 172 529 l 101 461 q 332 706 203 706 q 508 663 394 706 q 661 621 622 621 q 692 643 692 621 q 625 733 639 682 l 632 747 q 764 728 706 743 l 733 629 q 707 560 724 592 q 674 506 690 529 q 629 460 657 482 q 581 425 601 439 q 523 394 561 411 q 461 367 485 376 q 392 340 438 358 q 142 215 194 267 l 154 194 q 261 229 206 229 q 346 184 299 229 q 431 85 393 139 q 516 -15 469 31 q 599 -60 563 -60 q 647 -46 626 -60 q 694 6 667 -32 l 713 -7 q 604 -152 674 -89 q 468 -215 535 -215 q 378 -183 424 -215 q 296 -106 333 -151 q 224 -15 258 -61 q 153 63 189 31 q 86 94 117 94 z "},"ƒ":{"ha":556,"x_min":-57,"x_max":799,"o":"m 313 72 q 272 -65 292 -11 q 222 -169 253 -118 q 149 -244 192 -219 q 50 -268 107 -268 q -26 -244 6 -268 q -57 -172 -57 -219 q -31 -92 -57 -125 q 76 -42 1 -68 l 85 -51 q 18 -171 18 -101 q 35 -222 18 -204 q 81 -239 53 -239 q 147 -217 118 -239 q 199 -151 176 -196 q 236 -58 221 -106 q 269 63 251 -10 q 347 369 272 76 l 193 369 l 208 403 l 356 403 q 429 701 389 529 q 525 955 467 868 q 692 1042 583 1042 q 767 1017 736 1042 q 799 946 799 993 q 772 865 799 899 q 665 815 740 842 l 657 825 q 724 944 724 875 q 706 995 724 978 q 661 1013 689 1013 q 546 934 589 1013 q 472 711 503 856 q 399 403 456 635 l 549 403 l 533 369 l 389 369 q 313 72 347 197 z "},"Ǣ":{"ha":1374,"x_min":-164,"x_max":1472,"o":"m 861 1097 l 874 1129 l 1233 1129 l 1221 1097 l 861 1097 m 454 376 q 132 389 231 376 q 108 469 108 425 l 114 474 q 371 417 193 428 q 639 822 497 576 l 485 931 l 488 949 q 1021 943 664 943 q 1251 947 1117 943 q 1411 951 1385 951 q 1472 903 1472 951 q 1308 593 1472 826 l 1279 593 q 1279 833 1296 738 q 1249 895 1271 875 q 1182 915 1228 915 l 1015 915 q 928 468 996 736 l 982 468 q 1097 497 1031 468 q 1224 576 1163 526 l 1236 571 q 1163 340 1210 444 l 1151 338 q 1067 411 1124 381 q 964 442 1011 442 l 921 442 q 776 31 843 144 q 879 29 801 29 q 999 60 942 29 q 1153 181 1076 100 q 1283 358 1231 263 l 1311 358 q 1261 79 1289 165 q 1212 14 1246 31 q 1110 -3 1178 -3 q 906 -1 1058 -3 q 689 0 754 0 q 536 -1 588 0 l 529 18 q 667 379 581 74 q 454 376 542 376 m 721 886 q 468 415 525 518 q 678 419 574 415 q 782 886 757 706 l 721 886 m 321 358 q 436 357 342 357 q 217 67 318 157 q -11 -22 117 -22 q -164 71 -132 -22 l -150 90 q -96 61 -128 61 q 82 135 -28 61 q 321 358 192 208 z "},"ǣ":{"ha":1122,"x_min":79,"x_max":1239,"o":"m 586 903 l 599 935 l 958 935 l 946 903 l 586 903 m 1239 204 q 1010 38 1138 100 q 764 -24 882 -24 q 580 42 647 -24 q 513 225 513 108 l 513 236 l 506 236 q 381 37 439 96 q 251 -22 322 -22 q 126 49 174 -22 q 79 238 79 121 q 177 574 79 440 q 425 708 275 708 q 533 678 479 708 q 617 603 586 649 l 603 567 q 530 638 569 611 q 458 665 490 665 q 358 541 401 665 q 314 253 314 417 q 365 103 314 103 q 489 282 410 103 l 546 413 q 711 632 607 556 q 947 708 815 708 q 1102 670 1049 708 q 1156 564 1156 632 q 1054 406 1156 478 q 776 300 953 333 l 768 318 q 919 447 864 367 q 975 604 975 526 q 931 667 975 667 q 803 542 858 667 q 747 263 747 418 q 786 119 747 171 q 896 67 825 67 q 1233 242 1078 67 l 1239 239 l 1239 204 z "},"Ǽ":{"ha":1374,"x_min":-164,"x_max":1472,"o":"m 1267 1178 q 1122 1101 1231 1151 q 932 1022 1013 1050 l 932 1033 q 1261 1239 1167 1138 l 1267 1235 l 1267 1178 m 454 376 q 132 389 231 376 q 108 469 108 425 l 114 474 q 371 417 193 428 q 639 822 497 576 l 485 931 l 488 949 q 1021 943 664 943 q 1251 947 1117 943 q 1411 951 1385 951 q 1472 903 1472 951 q 1308 593 1472 826 l 1279 593 q 1279 833 1296 738 q 1249 895 1271 875 q 1182 915 1228 915 l 1015 915 q 928 468 996 736 l 982 468 q 1097 497 1031 468 q 1224 576 1163 526 l 1236 571 q 1163 340 1210 444 l 1151 338 q 1067 411 1124 381 q 964 442 1011 442 l 921 442 q 776 31 843 144 q 879 29 801 29 q 999 60 942 29 q 1153 181 1076 100 q 1283 358 1231 263 l 1311 358 q 1261 79 1289 165 q 1212 14 1246 31 q 1110 -3 1178 -3 q 906 -1 1058 -3 q 689 0 754 0 q 536 -1 588 0 l 529 18 q 667 379 581 74 q 454 376 542 376 m 721 886 q 468 415 525 518 q 678 419 574 415 q 782 886 757 706 l 721 886 m 321 358 q 436 357 342 357 q 217 67 318 157 q -11 -22 117 -22 q -164 71 -132 -22 l -150 90 q -96 61 -128 61 q 82 135 -28 61 q 321 358 192 208 z "},"ǽ":{"ha":1122,"x_min":79,"x_max":1239,"o":"m 992 983 q 847 906 956 957 q 657 828 738 856 l 657 839 q 986 1044 892 943 l 992 1040 l 992 983 m 1239 204 q 1010 38 1138 100 q 764 -24 882 -24 q 580 42 647 -24 q 513 225 513 108 l 513 236 l 506 236 q 381 37 439 96 q 251 -22 322 -22 q 126 49 174 -22 q 79 238 79 121 q 177 574 79 440 q 425 708 275 708 q 533 678 479 708 q 617 603 586 649 l 603 567 q 530 638 569 611 q 458 665 490 665 q 358 541 401 665 q 314 253 314 417 q 365 103 314 103 q 489 282 410 103 l 546 413 q 711 632 607 556 q 947 708 815 708 q 1102 670 1049 708 q 1156 564 1156 632 q 1054 406 1156 478 q 776 300 953 333 l 768 318 q 919 447 864 367 q 975 604 975 526 q 931 667 975 667 q 803 542 858 667 q 747 263 747 418 q 786 119 747 171 q 896 67 825 67 q 1233 242 1078 67 l 1239 239 l 1239 204 z "},"Ǿ":{"ha":1026,"x_min":29,"x_max":1126,"o":"m 915 1178 q 770 1101 879 1151 q 581 1022 661 1050 l 581 1033 q 910 1239 815 1138 l 915 1235 l 915 1178 m 1050 631 q 967 303 1049 454 q 753 66 886 153 q 469 -21 619 -21 q 164 117 251 -21 q 111 56 126 83 q 85 -18 96 28 q 29 38 28 -12 q 39 53 33 46 q 49 67 44 61 q 62 81 54 74 q 74 94 69 89 q 89 107 79 99 q 103 119 99 115 q 119 132 107 122 q 135 145 131 142 q 153 160 139 149 q 171 174 167 171 l 799 671 q 758 858 792 786 q 661 931 724 931 q 514 849 585 931 q 399 635 443 767 q 356 364 356 503 l 356 353 l 133 176 q 106 315 106 239 q 281 774 106 582 q 686 967 456 967 q 993 829 900 967 q 1044 892 1029 864 q 1071 964 1060 919 q 1126 908 1125 958 q 1112 887 1119 897 q 1093 865 1104 876 q 1075 847 1082 854 q 1053 826 1068 839 q 1031 809 1038 814 q 1007 790 1025 804 q 985 772 989 776 l 358 276 q 398 90 364 163 q 497 15 432 17 q 648 95 576 14 q 760 308 719 176 q 801 582 801 440 l 801 593 l 1022 772 q 1050 631 1050 710 z "},"ǿ":{"ha":825,"x_min":-14,"x_max":896,"o":"m 793 982 q 648 905 757 956 q 458 826 539 854 l 458 838 q 788 1043 693 942 l 793 1039 l 793 982 m 806 449 q 674 120 806 263 q 351 -22 542 -22 q 104 110 167 -22 q 72 70 85 93 q 55 32 60 47 q 42 -19 50 17 q -14 36 -12 -14 q 128 171 28 110 l 579 453 q 486 667 575 667 q 367 563 417 667 q 306 304 317 460 l 85 171 q 78 238 78 197 q 210 566 78 424 q 532 708 342 708 q 779 576 714 708 q 811 617 799 594 q 828 656 824 640 q 840 707 832 671 q 896 651 894 701 q 754 515 856 581 l 303 235 q 328 72 306 126 q 397 18 350 18 q 515 123 465 18 q 576 381 565 228 l 799 518 q 806 449 806 483 z "},"Ș":{"ha":815,"x_min":36,"x_max":901,"o":"m 546 140 q 544 167 546 154 q 535 192 542 179 q 523 215 528 206 q 506 238 518 225 q 488 260 494 251 q 465 282 481 268 q 442 302 449 296 q 416 324 435 308 q 392 344 397 339 q 251 494 293 431 q 208 642 208 557 q 247 785 208 721 q 347 888 285 849 q 480 947 408 926 q 622 967 551 967 q 828 924 756 967 q 901 801 901 882 q 883 726 901 764 q 836 667 865 689 q 631 614 732 624 l 626 632 q 713 793 713 685 q 679 898 713 858 q 582 938 646 938 q 472 888 513 938 q 431 764 431 838 q 460 628 431 682 q 561 513 489 574 q 700 386 672 419 q 756 244 756 319 q 650 49 756 121 q 415 -22 544 -22 q 192 17 292 -22 q 36 129 93 56 q 143 346 76 250 l 157 346 q 199 194 169 267 q 286 65 229 121 q 413 10 343 10 q 508 47 469 10 q 546 140 546 83 m 467 -169 q 406 -334 467 -251 q 253 -422 346 -417 l 235 -410 l 238 -403 q 374 -335 321 -397 q 431 -214 426 -272 l 426 -212 q 360 -240 406 -240 q 310 -222 331 -240 q 289 -175 289 -204 q 320 -108 289 -133 q 388 -83 351 -83 q 445 -106 424 -83 q 467 -169 467 -129 z "},"ș":{"ha":674,"x_min":18,"x_max":711,"o":"m 599 189 q 516 33 599 89 q 329 -22 433 -22 q 137 10 225 -22 q 18 103 49 42 q 117 250 47 175 l 129 250 q 203 88 150 165 q 318 10 257 10 q 383 35 356 10 q 410 104 410 60 q 392 162 410 135 q 359 201 375 189 q 303 242 343 214 q 289 251 293 249 q 222 298 244 281 q 173 341 199 315 q 136 394 147 367 q 125 457 125 422 q 183 599 125 540 q 320 683 242 658 q 481 708 399 708 q 648 672 585 708 q 711 571 711 635 q 638 463 711 507 q 469 454 589 457 l 465 467 q 531 574 531 532 q 499 638 531 608 q 421 668 467 668 q 347 640 375 668 q 318 560 318 613 q 349 474 318 510 q 436 401 379 439 q 560 301 522 344 q 599 189 599 257 m 358 -169 q 298 -334 358 -251 q 144 -422 238 -417 l 126 -410 l 129 -403 q 265 -335 213 -397 q 322 -214 318 -272 l 318 -212 q 251 -240 297 -240 q 201 -222 222 -240 q 181 -175 181 -204 q 212 -108 181 -133 q 279 -83 243 -83 q 337 -106 315 -83 q 358 -169 358 -129 z "}}}
